<?xml version="1.0" encoding="UTF-8" standalone="no"?>
<!-- Created with Inkscape (http://www.inkscape.org/) -->

<svg
   width="128"
   height="128"
   viewBox="0 0 33.866666 33.866666"
   version="1.1"
   id="svg1"
   sodipodi:docname="module_multiply.svg"
   inkscape:version="1.4.3 (0d15f75, 2025-12-25)"
   xmlns:inkscape="http://www.inkscape.org/namespaces/inkscape"
   xmlns:sodipodi="http://sodipodi.sourceforge.net/DTD/sodipodi-0.dtd"
   xmlns="http://www.w3.org/2000/svg"
   xmlns:svg="http://www.w3.org/2000/svg">
  <sodipodi:namedview
     id="namedview1"
     pagecolor="#ffffff"
     bordercolor="#000000"
     borderopacity="0.25"
     inkscape:showpageshadow="2"
     inkscape:pageopacity="0.0"
     inkscape:pagecheckerboard="0"
     inkscape:deskcolor="#d1d1d1"
     inkscape:document-units="px"
     inkscape:zoom="1.0520188"
     inkscape:cx="105.9867"
     inkscape:cy="26.615494"
     inkscape:window-width="1231"
     inkscape:window-height="729"
     inkscape:window-x="0"
     inkscape:window-y="38"
     inkscape:window-maximized="0"
     inkscape:current-layer="layer1" />
  <defs
     id="defs1">
    <inkscape:path-effect
       effect="powerstroke"
       message=""
       id="path-effect8"
       is_visible="true"
       lpeversion="1.3"
       scale_width="1"
       interpolator_type="CentripetalCatmullRom"
       interpolator_beta="0.75"
       start_linecap_type="round"
       end_linecap_type="round"
       offset_points="23.663772,1.8862543"
       linejoin_type="spiro"
       miter_limit="4"
       not_jump="true"
       sort_points="true" />
    <inkscape:path-effect
       effect="simplify"
       id="path-effect7"
       is_visible="true"
       lpeversion="1.3"
       threshold="0.012"
       steps="1"
       smooth_angles="0"
       helper_size="0"
       simplify_individual_paths="false"
       simplify_just_coalesce="false"
       step="1" />
    <inkscape:path-effect
       effect="powerstroke"
       message=""
       id="path-effect6"
       is_visible="true"
       lpeversion="1.3"
       scale_width="1"
       interpolator_type="CentripetalCatmullRom"
       interpolator_beta="0.75"
       start_linecap_type="round"
       end_linecap_type="round"
       offset_points="40.56292,1.8862543"
       linejoin_type="spiro"
       miter_limit="4"
       not_jump="true"
       sort_points="true" />
    <inkscape:path-effect
       effect="simplify"
       id="path-effect5"
       is_visible="true"
       lpeversion="1.3"
       threshold="0.012"
       steps="1"
       smooth_angles="0"
       helper_size="0"
       simplify_individual_paths="false"
       simplify_just_coalesce="false"
       step="1" />
    <inkscape:path-effect
       effect="powerstroke"
       message=""
       id="path-effect4"
       is_visible="true"
       lpeversion="1.3"
       scale_width="1"
       interpolator_type="CentripetalCatmullRom"
       interpolator_beta="0.75"
       start_linecap_type="round"
       end_linecap_type="round"
       offset_points="86.392198,1.8862543"
       linejoin_type="spiro"
       miter_limit="4"
       not_jump="true"
       sort_points="true" />
    <inkscape:path-effect
       effect="simplify"
       id="path-effect3"
       is_visible="true"
       lpeversion="1.3"
       threshold="0.012"
       steps="1"
       smooth_angles="0"
       helper_size="0"
       simplify_individual_paths="false"
       simplify_just_coalesce="false"
       step="1" />
    <inkscape:path-effect
       effect="powerstroke"
       message=""
       id="path-effect2"
       is_visible="true"
       lpeversion="1.3"
       scale_width="1"
       interpolator_type="CentripetalCatmullRom"
       interpolator_beta="0.75"
       start_linecap_type="round"
       end_linecap_type="round"
       offset_points="19.442751,1.8862543"
       linejoin_type="spiro"
       miter_limit="4"
       not_jump="true"
       sort_points="true" />
    <inkscape:path-effect
       effect="simplify"
       id="path-effect1"
       is_visible="true"
       lpeversion="1.3"
       threshold="0.012"
       steps="1"
       smooth_angles="0"
       helper_size="0"
       simplify_individual_paths="false"
       simplify_just_coalesce="false"
       step="1" />
    <inkscape:path-effect
       effect="bspline"
       id="path-effect18"
       is_visible="true"
       lpeversion="1.3"
       weight="33.333333"
       steps="2"
       helper_size="0"
       apply_no_weight="true"
       apply_with_weight="true"
       only_selected="false"
       uniform="false" />
    <inkscape:path-effect
       effect="bspline"
       id="path-effect17"
       is_visible="true"
       lpeversion="1.3"
       weight="33.333333"
       steps="2"
       helper_size="0"
       apply_no_weight="true"
       apply_with_weight="true"
       only_selected="false"
       uniform="false" />
    <inkscape:path-effect
       effect="bspline"
       id="path-effect16"
       is_visible="true"
       lpeversion="1.3"
       weight="33.333333"
       steps="2"
       helper_size="0"
       apply_no_weight="true"
       apply_with_weight="true"
       only_selected="false"
       uniform="false" />
    <linearGradient
       id="swatch12"
       inkscape:swatch="solid">
      <stop
         style="stop-color:#000000;stop-opacity:1;"
         offset="0"
         id="stop13" />
    </linearGradient>
  </defs>
  <g
     inkscape:label="图层 1"
     inkscape:groupmode="layer"
     id="layer1">
    <path
       d="m 8.3774071,26.075277 c 0.00437,-0.01903 0.00897,-0.03906 0.013789,-0.06004 0.00336,-0.01427 0.00805,-0.03423 0.012933,-0.05497 0.00346,-0.01435 0.00825,-0.03426 0.013206,-0.05481 0.00355,-0.01441 0.00845,-0.03426 0.013478,-0.05466 0.00487,-0.0193 0.00986,-0.03909 0.01497,-0.05936 0.0029,-0.01115 0.00841,-0.0325 0.014041,-0.05435 0.00297,-0.01118 0.00858,-0.03247 0.014309,-0.0542 0.00304,-0.0112 0.00875,-0.03242 0.014576,-0.05405 0.00311,-0.01121 0.00892,-0.03238 0.014842,-0.05391 0.00317,-0.01122 0.00909,-0.03233 0.015107,-0.05377 0.00324,-0.01122 0.00926,-0.03227 0.015371,-0.05363 0.0033,-0.01123 0.00943,-0.03222 0.015634,-0.05349 0.00337,-0.01123 0.00959,-0.03216 0.015897,-0.05336 0.00343,-0.01123 0.00976,-0.0321 0.016158,-0.05322 0.00349,-0.01123 0.00992,-0.03204 0.016418,-0.05309 0.00356,-0.01123 0.010083,-0.03198 0.016678,-0.05296 0.00362,-0.01123 0.010245,-0.03192 0.016936,-0.05283 0.00368,-0.01123 0.010407,-0.03186 0.017194,-0.0527 0.00375,-0.01122 0.010568,-0.03181 0.017451,-0.05257 0.00381,-0.01122 0.010728,-0.03175 0.017707,-0.05245 0.00387,-0.01122 0.010888,-0.03169 0.017962,-0.05233 0.00394,-0.01122 0.011048,-0.03163 0.018216,-0.05221 0.004,-0.01122 0.011207,-0.03158 0.018469,-0.05208 0.00406,-0.01122 0.011366,-0.03152 0.018722,-0.05197 0.00413,-0.01122 0.011524,-0.03147 0.018973,-0.05185 0.00419,-0.01122 0.011682,-0.03141 0.019224,-0.05173 0.00425,-0.01122 0.01184,-0.03136 0.019474,-0.05162 0.00432,-0.01123 0.011997,-0.03131 0.019723,-0.05151 0.00438,-0.01123 0.012154,-0.03125 0.019972,-0.0514 0.00445,-0.01123 0.012311,-0.0312 0.020219,-0.05129 0.00451,-0.01123 0.012467,-0.03115 0.020466,-0.05118 0.00458,-0.01124 0.012623,-0.0311 0.020712,-0.05107 0.00464,-0.01124 0.012779,-0.03105 0.020957,-0.05096 0.00471,-0.01125 0.012935,-0.03101 0.021201,-0.05086 0.00477,-0.01125 0.01309,-0.03096 0.021445,-0.05076 0.00484,-0.01126 0.013245,-0.03091 0.021688,-0.05066 0.00491,-0.01127 0.013399,-0.03087 0.02193,-0.05055 0.00497,-0.01128 0.013554,-0.03082 0.022171,-0.05045 0.00504,-0.01128 0.013708,-0.03078 0.022411,-0.05036 0.00511,-0.01129 0.013862,-0.03074 0.022651,-0.05026 0.00133,-0.0029 0.00631,-0.01379 0.011297,-0.02473 0.00384,-0.0084 0.0077,-0.01689 0.011593,-0.02543 0.00514,-0.01109 0.014066,-0.03043 0.023128,-0.05007 0.00521,-0.01112 0.014227,-0.03041 0.023365,-0.04998 0.00529,-0.01114 0.014386,-0.03039 0.023602,-0.04988 0.00536,-0.01117 0.014544,-0.03036 0.023837,-0.04979 0.00544,-0.01119 0.014702,-0.03034 0.024072,-0.0497 0.00551,-0.01122 0.014858,-0.03031 0.024306,-0.04961 0.00559,-0.01124 0.015014,-0.03028 0.024539,-0.04952 0.00566,-0.01126 0.015169,-0.03026 0.024772,-0.04944 0.00573,-0.01128 0.015324,-0.03023 0.025004,-0.04935 0.00581,-0.0113 0.015478,-0.0302 0.025234,-0.04927 0.00588,-0.01132 0.015631,-0.03017 0.025465,-0.04918 0.00595,-0.01134 0.015784,-0.03015 0.025694,-0.0491 0.00603,-0.01136 0.015936,-0.03012 0.025922,-0.04902 0.0061,-0.01138 0.016088,-0.03009 0.026149,-0.04894 0.00617,-0.0114 0.016239,-0.03006 0.026376,-0.04885 0.00625,-0.01142 0.01639,-0.03004 0.026602,-0.04877 0.00632,-0.01144 0.01654,-0.03001 0.026827,-0.0487 0.00639,-0.01146 0.01669,-0.02998 0.027051,-0.04862 0.00647,-0.01148 0.016839,-0.02996 0.027274,-0.04854 0.00654,-0.0115 0.016989,-0.02993 0.027497,-0.04847 0.00661,-0.01152 0.017137,-0.02991 0.027718,-0.04839 0.00669,-0.01154 0.017285,-0.02988 0.027939,-0.04832 0.00676,-0.01156 0.017433,-0.02986 0.028158,-0.04824 0.00684,-0.01158 0.01758,-0.02983 0.028377,-0.04817 0.00691,-0.0116 0.017727,-0.02981 0.028595,-0.0481 0.00699,-0.01162 0.017874,-0.02978 0.028812,-0.04803 0.00706,-0.01164 0.01802,-0.02976 0.029028,-0.04796 0.00714,-0.01166 0.018165,-0.02974 0.029243,-0.04789 0.00721,-0.01168 0.018311,-0.02971 0.029457,-0.04782 0.00729,-0.0117 0.018455,-0.02969 0.029671,-0.04775 0.00736,-0.01172 0.018599,-0.02967 0.029882,-0.04768 0.00744,-0.01174 0.018743,-0.02965 0.030095,-0.04762 0.00751,-0.01177 0.018886,-0.02962 0.030304,-0.04755 0.00759,-0.01179 0.019029,-0.0296 0.030514,-0.04748 0.0077,-0.01181 0.01917,-0.02958 0.03072,-0.04742 0.0077,-0.01183 0.01931,-0.02956 0.03093,-0.04735 0.0078,-0.01185 0.01945,-0.02954 0.03114,-0.04729 0.0079,-0.01187 0.01959,-0.02952 0.03134,-0.04723 0.008,-0.01189 0.01974,-0.0295 0.03154,-0.04717 0.008,-0.01191 0.01988,-0.02948 0.03175,-0.0471 0.0081,-0.01193 0.02001,-0.02946 0.03195,-0.04704 0.0082,-0.01195 0.02015,-0.02944 0.03215,-0.04698 0.0083,-0.01197 0.02029,-0.02942 0.03235,-0.04692 0.0083,-0.01199 0.02043,-0.02941 0.03255,-0.04687 0.0084,-0.01201 0.02057,-0.02939 0.03275,-0.04681 0.0085,-0.01203 0.0207,-0.02937 0.03294,-0.04675 0.0086,-0.01206 0.02084,-0.02935 0.03314,-0.04669 0.0086,-0.01208 0.02097,-0.02933 0.03333,-0.04663 0.0087,-0.0121 0.02111,-0.02932 0.03353,-0.04658 0.0088,-0.01212 0.02124,-0.0293 0.03372,-0.04652 0.0089,-0.01214 0.02138,-0.02928 0.03391,-0.04647 0.0089,-0.01216 0.02151,-0.02927 0.0341,-0.04641 0.009,-0.01218 0.02164,-0.02925 0.03429,-0.04636 0.0091,-0.0122 0.02177,-0.02923 0.03448,-0.0463 0.0092,-0.01222 0.0219,-0.02922 0.03467,-0.04625 0.0092,-0.01224 0.02203,-0.0292 0.03485,-0.0462 0.0093,-0.01226 0.02216,-0.02919 0.03503,-0.04615 0.0094,-0.01228 0.02229,-0.02917 0.03522,-0.0461 0.0095,-0.0123 0.02242,-0.02916 0.0354,-0.04604 0.0095,-0.01232 0.02255,-0.02914 0.03558,-0.04599 0.0096,-0.01234 0.02267,-0.02913 0.03576,-0.04594 0.0097,-0.01236 0.0228,-0.02911 0.03594,-0.04589 0.0098,-0.01238 0.02293,-0.0291 0.03611,-0.04585 0.0098,-0.0124 0.02305,-0.02909 0.03629,-0.0458 0.0099,-0.01243 0.02318,-0.02907 0.03646,-0.04575 0.01,-0.01244 0.0233,-0.02906 0.03664,-0.0457 0.01005,-0.01247 0.02342,-0.02905 0.03681,-0.04566 0.01013,-0.01249 0.02354,-0.02904 0.03698,-0.04561 0.0102,-0.01251 0.02366,-0.02902 0.03715,-0.04556 0.01027,-0.01252 0.02378,-0.02901 0.03731,-0.04552 0.01035,-0.01254 0.0239,-0.029 0.03748,-0.04547 0.01042,-0.01256 0.02402,-0.02899 0.03764,-0.04543 0.01049,-0.01258 0.02414,-0.02897 0.03781,-0.04538 0.01056,-0.0126 0.02426,-0.02896 0.03797,-0.04534 0.01063,-0.01262 0.02437,-0.02895 0.03813,-0.0453 0.0107,-0.01264 0.02449,-0.02894 0.03829,-0.04526 0.01077,-0.01266 0.02461,-0.02893 0.03845,-0.04522 0.01084,-0.01268 0.02472,-0.02892 0.03861,-0.04517 0.01091,-0.0127 0.02483,-0.02891 0.03876,-0.04513 0.01098,-0.01272 0.02494,-0.0289 0.03892,-0.04509 0.01105,-0.01274 0.02506,-0.02889 0.03907,-0.04505 0.01112,-0.01276 0.02517,-0.02888 0.03922,-0.04501 0.01119,-0.01278 0.02528,-0.02887 0.03937,-0.04498 0.01126,-0.0128 0.02538,-0.02886 0.03952,-0.04494 0.01133,-0.01282 0.02549,-0.02885 0.03967,-0.0449 0.0114,-0.01284 0.0256,-0.02884 0.03981,-0.04486 0.01146,-0.01286 0.02571,-0.02884 0.03996,-0.04483 0.01153,-0.01288 0.02581,-0.02883 0.0401,-0.04479 0.03882,-0.04326 0.07922,-0.088 0.119835,-0.132707 0.04059,-0.04468 0.08141,-0.08931 0.12243,-0.133914 0.356281,-0.387344 0.725965,-0.769238 1.106998,-1.149957 0.45465,-0.454263 0.921865,-0.903269 1.400506,-1.35681 0.4519,-0.428214 1.038934,-0.977126 1.490818,-1.405324 0.401238,-0.379741 0.806867,-0.767561 1.209438,-1.164192 0.1679,-0.165434 0.336412,-0.333471 0.504569,-0.504259 0.263119,-0.267076 0.521158,-0.535492 0.772866,-0.79888 0.245675,-0.257035 0.478682,-0.502302 0.716621,-0.748963 0.218497,-0.22647 0.432397,-0.444976 0.646853,-0.656367 0.207056,-0.204068 0.411298,-0.398187 0.616459,-0.582053 0.190649,-0.170845 0.379852,-0.330777 0.569883,-0.479113 0.02438,-0.01903 0.04878,-0.03787 0.07319,-0.05651 0.02433,-0.01858 0.04866,-0.03696 0.073,-0.05513 0.0072,-0.0053 0.01713,-0.01274 0.02711,-0.02016 0.0043,-0.0032 0.01432,-0.01055 0.02431,-0.01793 0.0043,-0.0031 0.01428,-0.01044 0.02429,-0.01777 0.0042,-0.003 0.01424,-0.01033 0.02427,-0.01761 0.0041,-0.003 0.0142,-0.01022 0.02426,-0.01746 0.0041,-0.0029 0.01416,-0.0101 0.02424,-0.0173 0.004,-0.0028 0.01413,-0.01 0.02422,-0.01715 0.004,-0.0028 0.01409,-0.0099 0.02421,-0.01699 0.0039,-0.0027 0.01405,-0.0098 0.02419,-0.01683 0.0039,-0.0026 0.01402,-0.0097 0.02418,-0.01668 0.0038,-0.0026 0.01398,-0.0096 0.02417,-0.01653 0.0037,-0.0025 0.01395,-0.0094 0.02416,-0.01637 0.0037,-0.0025 0.01392,-0.0093 0.02414,-0.01622 0.0036,-0.0024 0.01388,-0.0092 0.02414,-0.01606 0.0036,-0.0023 0.01385,-0.0091 0.02413,-0.01591 0.0035,-0.0023 0.01382,-0.009 0.02412,-0.01575 0.0035,-0.0022 0.01379,-0.0089 0.02411,-0.0156 0.0034,-0.0022 0.01376,-0.0088 0.02411,-0.01544 0.0033,-0.0021 0.01373,-0.0087 0.0241,-0.01529 0.0033,-0.002 0.0137,-0.0086 0.0241,-0.01514 0.0032,-0.002 0.01367,-0.0085 0.0241,-0.01499 0.0032,-0.0019 0.01364,-0.0084 0.0241,-0.01483 0.0031,-0.0019 0.01362,-0.0083 0.0241,-0.01468 0.0031,-0.0018 0.01359,-0.0082 0.0241,-0.01453 0.003,-0.0018 0.01357,-0.0081 0.0241,-0.01438 0.003,-0.0017 0.01354,-0.008 0.0241,-0.01423 0.0029,-0.0017 0.01352,-0.0079 0.02411,-0.01408 0.0029,-0.0016 0.0135,-0.0078 0.02412,-0.01393 0.0028,-0.0016 0.01348,-0.0077 0.02412,-0.01378 0.0028,-0.0015 0.01346,-0.0076 0.02413,-0.01363 0.0027,-0.0015 0.01344,-0.0075 0.02414,-0.01348 0.0027,-0.0015 0.01342,-0.0074 0.02416,-0.01333 0.0026,-0.0014 0.0134,-0.0073 0.02417,-0.01318 0.0026,-0.0014 0.01339,-0.0072 0.02419,-0.01304 0.0025,-0.0013 0.01337,-0.0071 0.0242,-0.01289 0.0025,-0.0013 0.01336,-0.007 0.02422,-0.012741 0.0024,-0.00125 0.01335,-0.00692 0.02424,-0.012595 0.0024,-0.00121 0.01334,-0.00683 0.02426,-0.012449 0.0024,-0.00117 0.01333,-0.00674 0.02429,-0.012304 0.0023,-0.00114 0.01332,-0.00665 0.02431,-0.012159 0.0023,-0.0011 0.01332,-0.00656 0.02434,-0.012015 0.0022,-0.00107 0.01331,-0.00647 0.02437,-0.011871 0.0022,-0.00103 0.01331,-0.00638 0.0244,-0.011728 6.64e-4,-2.862e-4 0.01029,-0.00486 0.01991,-0.00944 0.0051,-0.00241 0.01479,-0.00693 0.02443,-0.011455 0.0051,-0.00237 0.0148,-0.00684 0.02447,-0.011314 0.0051,-0.00233 0.01482,-0.00676 0.02451,-0.011173 0.0051,-0.0023 0.01483,-0.00667 0.02455,-0.011033 0.0051,-0.00226 0.01485,-0.00658 0.02459,-0.010892 0.0051,-0.00222 0.01487,-0.00649 0.02464,-0.010753 0.0051,-0.00219 0.01489,-0.0064 0.02468,-0.010614 0.0051,-0.00215 0.01492,-0.00632 0.02473,-0.010475 0.0051,-0.00212 0.01494,-0.00623 0.02478,-0.010336 0.0051,-0.00209 0.01497,-0.00614 0.02484,-0.010198 0.0051,-0.00205 0.015,-0.00606 0.0249,-0.01006 0.0051,-0.00202 0.01502,-0.00597 0.02495,-0.00992 0.0051,-0.00199 0.01506,-0.00589 0.02502,-0.00979 0.0051,-0.00196 0.01509,-0.00581 0.02508,-0.00965 0.0051,-0.00193 0.01512,-0.00572 0.02514,-0.00951 0.0051,-0.00189 0.01516,-0.00564 0.02521,-0.00938 0.0051,-0.00186 0.0152,-0.00556 0.02528,-0.00924 0.0051,-0.00183 0.01524,-0.00547 0.02536,-0.0091 0.0051,-0.00181 0.01529,-0.00539 0.02543,-0.00897 0.0051,-0.00178 0.01533,-0.00531 0.02551,-0.00883 0.0051,-0.00175 0.01538,-0.00523 0.02559,-0.0087 0.0052,-0.00172 0.01543,-0.00514 0.02568,-0.00856 0.0052,-0.00169 0.01548,-0.00506 0.02576,-0.00843 0.0052,-0.00166 0.01553,-0.00498 0.02585,-0.00829 0.0052,-0.00164 0.01559,-0.0049 0.02594,-0.00815 0.0052,-0.00161 0.01564,-0.00482 0.02604,-0.00802 0.0053,-0.00158 0.0157,-0.00474 0.02613,-0.00788 0.0053,-0.00156 0.01577,-0.00466 0.02623,-0.00775 0.0053,-0.00153 0.01583,-0.00458 0.02634,-0.00761 0.0053,-0.0015 0.01589,-0.00449 0.02644,-0.00748 0.0053,-0.00148 0.01596,-0.00441 0.02655,-0.00734 0.0054,-0.00145 0.01603,-0.00433 0.02666,-0.0072 0.0054,-0.00143 0.0161,-0.00425 0.02677,-0.00707 0.0054,-0.0014 0.01618,-0.00417 0.02689,-0.00693 0.0055,-0.00138 0.01626,-0.00409 0.02701,-0.00679 0.0055,-0.00135 0.01633,-0.00401 0.02713,-0.00666 0.0055,-0.00133 0.01642,-0.00393 0.02726,-0.00652 0.0056,-0.0013 0.0165,-0.00384 0.02738,-0.00638 0.0056,-0.00128 0.01658,-0.00376 0.02751,-0.00624 0.0057,-0.00125 0.01667,-0.00368 0.02765,-0.0061 0.0057,-0.00122 0.01676,-0.0036 0.02778,-0.00596 0.0058,-0.0012 0.01685,-0.00351 0.02792,-0.00582 0.0058,-0.00117 0.01695,-0.00343 0.02806,-0.00568 0.0058,-0.00115 0.01704,-0.00335 0.02821,-0.00554 0.0059,-0.00112 0.01714,-0.00326 0.02835,-0.0054 0.0059,-0.0011 0.01725,-0.00318 0.0285,-0.00525 0.006,-0.00107 0.01735,-0.00309 0.02866,-0.00511 0.0061,-0.00104 0.01745,-0.00301 0.02881,-0.00496 0.0061,-0.00102 0.01756,-0.00292 0.02897,-0.00482 0.0062,-9.886e-4 0.01767,-0.00283 0.02913,-0.00467 0.0062,-9.612e-4 0.01778,-0.00275 0.0293,-0.00453 0.0063,-9.333e-4 0.0179,-0.00266 0.02946,-0.00438 0.0063,-9.051e-4 0.01802,-0.00257 0.02963,-0.00423 0.0064,-8.767e-4 0.01814,-0.00248 0.0298,-0.00408 0.0065,-8.478e-4 0.01826,-0.00239 0.02998,-0.00393 0.0065,-8.184e-4 0.01838,-0.0023 0.03016,-0.00377 0.0066,-7.886e-4 0.01851,-0.00221 0.03034,-0.00362 0.0067,-7.583e-4 0.01863,-0.00212 0.03052,-0.00347 0.0068,-7.276e-4 0.01876,-0.00202 0.0307,-0.00331 0.0068,-6.963e-4 0.0189,-0.00193 0.03089,-0.00315 0.0069,-6.645e-4 0.01903,-0.00183 0.03108,-0.00299 0.007,-6.322e-4 0.01917,-0.00174 0.03128,-0.00283 0.0071,-5.992e-4 0.01931,-0.00164 0.03147,-0.00267 0.0071,-5.657e-4 0.01945,-0.00154 0.03167,-0.00251 0.0072,-5.316e-4 0.01959,-0.00144 0.03187,-0.00235 0.0073,-4.969e-4 0.01974,-0.00134 0.03207,-0.00218 0.0074,-4.615e-4 0.01989,-0.00124 0.03228,-0.00202 0.0075,-4.254e-4 0.02004,-0.00114 0.03249,-0.00185 0.0076,-3.887e-4 0.02019,-0.00104 0.0327,-0.00168 0.0077,-3.511e-4 0.02035,-9.339e-4 0.03291,-0.00151 0.0077,-3.129e-4 0.02051,-8.286e-4 0.03312,-0.00134 0.0078,-2.74e-4 0.02067,-7.222e-4 0.03334,-0.00117 0.0079,-2.342e-4 0.02083,-6.146e-4 0.03356,-9.9e-4 0.008,-1.937e-4 0.021,-5.059e-4 0.03378,-8.135e-4 0.0081,-1.523e-4 0.02118,-3.958e-4 0.034,-6.356e-4 0.0083,-1.099e-4 0.02135,-2.844e-4 0.03423,-4.559e-4 0.0084,-6.67e-5 0.02154,-1.717e-4 0.03446,-2.747e-4 0.01351,-3.58e-5 0.02674,-7.09e-5 0.03968,-1.052e-4 a 1.8862543,1.8862543 90 0 0 -0.01,-3.7724954 c -0.01455,3.86e-5 -0.02945,7.81e-5 -0.0447,1.185e-4 -0.0033,8.9e-6 -0.0067,2.67e-5 -0.01004,5.34e-5 -0.01452,1.158e-4 -0.02936,2.341e-4 -0.04452,3.549e-4 -0.0034,2.68e-5 -0.0067,6.26e-5 -0.01008,1.074e-4 -0.01449,1.93e-4 -0.02927,3.899e-4 -0.04433,5.905e-4 -0.0034,4.49e-5 -0.0068,9.9e-5 -0.01013,1.62e-4 -0.01446,2.702e-4 -0.02917,5.453e-4 -0.04415,8.252e-4 -0.0034,6.33e-5 -0.0068,1.358e-4 -0.01017,2.175e-4 -0.01442,3.472e-4 -0.02908,7.002e-4 -0.04397,0.00106 -0.0034,8.19e-5 -0.0068,1.731e-4 -0.01021,2.735e-4 -0.01438,4.241e-4 -0.02897,8.547e-4 -0.04379,0.00129 -0.0034,1.008e-4 -0.0068,2.108e-4 -0.01025,3.302e-4 -0.01433,5.008e-4 -0.02887,0.00101 -0.04361,0.00152 -0.0034,1.198e-4 -0.0069,2.49e-4 -0.01029,3.875e-4 -0.01429,5.773e-4 -0.02876,0.00116 -0.04343,0.00175 -0.0034,1.391e-4 -0.0069,2.876e-4 -0.01032,4.455e-4 -0.01424,6.536e-4 -0.02866,0.00132 -0.04325,0.00199 -0.0035,1.586e-4 -0.0069,3.266e-4 -0.01036,5.041e-4 -0.01419,7.296e-4 -0.02855,0.00147 -0.04307,0.00221 -0.0035,1.782e-4 -0.0069,3.659e-4 -0.01039,5.632e-4 -0.01414,8.054e-4 -0.02844,0.00162 -0.0429,0.00244 -0.0035,1.979e-4 -0.007,4.055e-4 -0.01043,6.228e-4 -0.0141,8.81e-4 -0.02834,0.00177 -0.04272,0.00267 -0.0035,2.179e-4 -0.007,4.456e-4 -0.01046,6.83e-4 -0.01405,9.562e-4 -0.02823,0.00192 -0.04255,0.0029 -0.0035,2.381e-4 -0.007,4.86e-4 -0.01049,7.437e-4 -0.01399,0.00103 -0.02812,0.00207 -0.04238,0.00312 -0.0035,2.585e-4 -0.007,5.268e-4 -0.01052,8.049e-4 -0.01394,0.00111 -0.02801,0.00222 -0.0422,0.00335 -0.0035,2.789e-4 -0.007,5.678e-4 -0.01055,8.665e-4 -0.0139,0.00118 -0.02791,0.00237 -0.04203,0.00357 -0.0035,2.996e-4 -0.0071,6.091e-4 -0.01058,9.286e-4 -0.01384,0.00125 -0.0278,0.00252 -0.04186,0.00379 -0.0035,3.204e-4 -0.0071,6.508e-4 -0.0106,9.911e-4 -0.01379,0.00133 -0.02769,0.00267 -0.0417,0.00402 -0.0035,3.413e-4 -0.0071,6.926e-4 -0.01063,0.00105 -0.01374,0.0014 -0.02758,0.00282 -0.04153,0.00424 -0.0036,3.623e-4 -0.0071,7.347e-4 -0.01065,0.00112 -0.01369,0.00148 -0.02748,0.00296 -0.04136,0.00446 -0.0036,3.834e-4 -0.0071,7.77e-4 -0.01067,0.00118 -0.01364,0.00155 -0.02737,0.00311 -0.0412,0.00468 -0.0036,4.046e-4 -0.0071,8.194e-4 -0.01069,0.00124 -0.01359,0.00162 -0.02727,0.00325 -0.04103,0.0049 -0.0036,4.26e-4 -0.0071,8.621e-4 -0.01071,0.00131 -0.01354,0.00169 -0.02716,0.0034 -0.04087,0.00511 -0.0036,4.473e-4 -0.0071,9.049e-4 -0.01072,0.00137 -0.01349,0.00177 -0.02706,0.00354 -0.04071,0.00533 -0.0036,4.688e-4 -0.0072,9.479e-4 -0.01074,0.00144 -0.01344,0.00184 -0.02695,0.00369 -0.04055,0.00555 -0.0036,4.904e-4 -0.0072,9.91e-4 -0.01075,0.0015 -0.01339,0.00191 -0.02685,0.00383 -0.04039,0.00576 -0.0036,5.119e-4 -0.0072,0.00103 -0.01076,0.00157 -0.01334,0.00198 -0.02675,0.00397 -0.04023,0.00598 -0.0036,5.335e-4 -0.0072,0.00108 -0.01077,0.00163 -0.01329,0.00205 -0.02664,0.00412 -0.04007,0.00619 -0.0036,5.552e-4 -0.0072,0.00112 -0.01078,0.0017 -0.01324,0.00212 -0.02654,0.00426 -0.03991,0.0064 -0.0036,5.768e-4 -0.0072,0.00116 -0.01078,0.00176 -0.01319,0.00219 -0.02644,0.0044 -0.03976,0.00661 -0.0036,5.984e-4 -0.0072,0.00121 -0.01079,0.00183 -0.01314,0.00226 -0.02634,0.00454 -0.0396,0.00682 -0.0036,6.201e-4 -0.0072,0.00125 -0.01079,0.00189 -0.01309,0.00233 -0.02624,0.00468 -0.03945,0.00703 -0.0036,6.417e-4 -0.0072,0.00129 -0.01079,0.00196 -0.01304,0.0024 -0.02614,0.00482 -0.03929,0.00724 -0.0036,6.633e-4 -0.0072,0.00134 -0.01079,0.00202 -0.01299,0.00247 -0.02604,0.00496 -0.03914,0.00745 -0.0036,6.848e-4 -0.0072,0.00138 -0.01079,0.00209 -0.01294,0.00254 -0.02594,0.00509 -0.03899,0.00766 -0.0036,7.063e-4 -0.0072,0.00142 -0.01079,0.00215 -0.0129,0.00261 -0.02584,0.00523 -0.03884,0.00786 -0.0036,7.277e-4 -0.0072,0.00147 -0.01078,0.00221 -0.01285,0.00268 -0.02575,0.00537 -0.0387,0.00807 -0.0036,7.49e-4 -0.0072,0.00151 -0.01077,0.00228 -0.0128,0.00275 -0.02565,0.0055 -0.03855,0.00827 -0.0036,7.702e-4 -0.0072,0.00155 -0.01076,0.00234 -0.01275,0.00282 -0.02556,0.00564 -0.0384,0.00848 -0.0036,7.914e-4 -0.0072,0.00159 -0.01075,0.00241 -0.01271,0.00288 -0.02546,0.00578 -0.03826,0.00868 -0.0036,8.124e-4 -0.0072,0.00164 -0.01074,0.00247 -0.01266,0.00295 -0.02536,0.00591 -0.03811,0.00888 -0.0036,8.333e-4 -0.0071,0.00168 -0.01072,0.00253 -0.01261,0.00302 -0.02527,0.00604 -0.03797,0.00908 -0.0036,8.54e-4 -0.0071,0.00172 -0.01071,0.00259 -0.01257,0.00308 -0.02518,0.00618 -0.03783,0.00928 -0.0036,8.746e-4 -0.0071,0.00176 -0.01069,0.00266 -0.01252,0.00315 -0.02508,0.00631 -0.03768,0.00948 -0.0036,8.95e-4 -0.0071,0.0018 -0.01067,0.00272 -0.01248,0.00322 -0.02499,0.00644 -0.03755,0.00968 -0.0036,9.153e-4 -0.0071,0.00184 -0.01065,0.00278 -0.01243,0.00328 -0.0249,0.00657 -0.03741,0.00987 -0.0035,9.354e-4 -0.0071,0.00188 -0.01062,0.00284 -0.01239,0.00335 -0.02481,0.0067 -0.03727,0.010071 -0.0035,9.552e-4 -0.0071,0.00192 -0.0106,0.0029 -0.01234,0.00341 -0.02472,0.00683 -0.03713,0.010266 -0.0035,9.748e-4 -0.007,0.00196 -0.01057,0.00296 -0.0123,0.00348 -0.02463,0.00696 -0.037,0.010461 -0.0035,9.943e-4 -0.007,0.002 -0.01054,0.00301 -0.01225,0.00354 -0.02454,0.00709 -0.03686,0.010654 -0.0035,0.00101 -0.007,0.00204 -0.01051,0.00307 -0.01221,0.00361 -0.02445,0.00722 -0.03673,0.010847 -0.0035,0.00103 -0.007,0.00207 -0.01048,0.00313 -0.01217,0.00367 -0.02437,0.00735 -0.03659,0.011039 -0.0035,0.00105 -0.007,0.00211 -0.01044,0.00318 -0.01213,0.00373 -0.02428,0.00748 -0.03646,0.01123 -0.0035,0.00107 -0.0069,0.00215 -0.01041,0.00324 -0.01208,0.0038 -0.02419,0.0076 -0.03633,0.01142 -0.0035,0.00109 -0.0069,0.00219 -0.01037,0.00329 -0.01204,0.00386 -0.02411,0.00773 -0.0362,0.011609 -0.0034,0.00111 -0.0069,0.00222 -0.01033,0.00335 -0.012,0.00392 -0.02402,0.00786 -0.03607,0.011797 -0.0034,0.00112 -0.0069,0.00226 -0.01029,0.0034 -0.01196,0.00399 -0.02394,0.00798 -0.03595,0.011985 -0.0034,0.00114 -0.0068,0.00229 -0.01025,0.00345 -0.01191,0.00405 -0.02385,0.00811 -0.03582,0.012171 -0.0034,0.00116 -0.0068,0.00232 -0.0102,0.0035 -0.01187,0.00411 -0.02377,0.00823 -0.03569,0.012357 -0.0034,0.00117 -0.0068,0.00236 -0.01016,0.00355 -0.01183,0.00417 -0.02369,0.00835 -0.03557,0.012542 -0.0034,0.00119 -0.0067,0.00239 -0.01011,0.0036 -0.01179,0.00423 -0.02361,0.00848 -0.03545,0.012725 -0.0034,0.00121 -0.0067,0.00242 -0.01007,0.00365 -0.01175,0.00429 -0.02353,0.0086 -0.03532,0.012908 -0.0033,0.00122 -0.0067,0.00245 -0.01002,0.00369 -0.01171,0.00436 -0.02345,0.00872 -0.0352,0.01309 -0.0033,0.00124 -0.0066,0.00248 -0.01,0.00374 -0.01167,0.00442 -0.02337,0.00884 -0.03508,0.013271 -0.0033,0.00125 -0.0066,0.00251 -0.0099,0.00378 -0.01164,0.00448 -0.02329,0.00896 -0.03496,0.013451 -0.0033,0.00127 -0.0066,0.00254 -0.0099,0.00382 -0.01159,0.00454 -0.02321,0.00908 -0.03485,0.01363 -0.0033,0.00128 -0.0065,0.00257 -0.0098,0.00387 -0.01156,0.0046 -0.02313,0.0092 -0.03473,0.013809 -0.0033,0.00129 -0.0065,0.0026 -0.0097,0.00391 -0.01152,0.00465 -0.02306,0.00932 -0.03461,0.013987 -0.0032,0.00131 -0.0065,0.00262 -0.0097,0.00395 -0.01148,0.00471 -0.02298,0.00943 -0.0345,0.014164 -0.0032,0.00132 -0.0064,0.00265 -0.0096,0.00398 -0.01144,0.00477 -0.02291,0.00955 -0.03438,0.014339 -0.0032,0.00133 -0.0064,0.00267 -0.0096,0.00402 -0.01141,0.00483 -0.02283,0.00967 -0.03427,0.014514 -0.0032,0.00134 -0.0063,0.0027 -0.0095,0.00406 -0.01137,0.00489 -0.02276,0.00979 -0.03416,0.014688 -0.0032,0.00136 -0.0063,0.00272 -0.0094,0.00409 -0.01133,0.00495 -0.02268,0.0099 -0.03405,0.014861 -0.0031,0.00137 -0.0063,0.00274 -0.0094,0.00412 -0.0113,0.005 -0.02261,0.010016 -0.03394,0.015033 -0.0031,0.00138 -0.0062,0.00276 -0.0093,0.00416 -0.01126,0.00506 -0.02254,0.01013 -0.03383,0.015204 -0.0031,0.00139 -0.0062,0.00278 -0.0093,0.00419 -0.01123,0.00512 -0.02247,0.010244 -0.03372,0.015375 -0.0031,0.0014 -0.0061,0.0028 -0.0092,0.00422 -0.01119,0.00518 -0.0224,0.010357 -0.03362,0.015544 -0.003,0.00141 -0.0061,0.00282 -0.0091,0.00424 -0.01116,0.00523 -0.02233,0.010469 -0.03351,0.015713 -0.003,0.00142 -0.006,0.00284 -0.009,0.00427 -0.01112,0.00529 -0.02226,0.010581 -0.03341,0.015881 -0.02006,0.00964 -0.03117,0.014989 -0.04228,0.020344 -0.01996,0.00972 -0.03103,0.015123 -0.04211,0.020534 -0.01986,0.0098 -0.03089,0.015256 -0.04193,0.020721 -0.01975,0.00987 -0.03075,0.015387 -0.04176,0.020907 -0.01965,0.00995 -0.03061,0.015516 -0.04159,0.02109 -0.01954,0.01002 -0.03047,0.015642 -0.04142,0.02127 -0.01943,0.010091 -0.03033,0.015767 -0.04124,0.021449 -0.01933,0.01016 -0.0302,0.015891 -0.04107,0.021626 -0.01922,0.010228 -0.03006,0.016011 -0.0409,0.0218 -0.01911,0.010294 -0.02992,0.01613 -0.04073,0.021971 -0.019,0.010359 -0.02978,0.016247 -0.04056,0.022141 -0.0189,0.010422 -0.02964,0.016363 -0.0404,0.022308 -0.01879,0.010483 -0.0295,0.016476 -0.04023,0.022474 -0.01868,0.010542 -0.02936,0.016587 -0.04006,0.022636 -0.01857,0.0106 -0.02923,0.016697 -0.03989,0.022797 -0.01846,0.010657 -0.02909,0.016804 -0.03972,0.022956 -0.01835,0.010711 -0.02895,0.01691 -0.03956,0.023112 -0.01825,0.010764 -0.02882,0.017013 -0.03939,0.023266 -0.01814,0.010816 -0.02868,0.017115 -0.03923,0.023417 -0.01803,0.010866 -0.02855,0.017215 -0.03906,0.023568 -0.01792,0.010914 -0.02841,0.017313 -0.0389,0.023715 -0.01782,0.010961 -0.02828,0.017409 -0.03874,0.02386 -0.01771,0.011006 -0.02814,0.017503 -0.03858,0.024003 -0.0176,0.01105 -0.02801,0.017596 -0.03842,0.024145 -0.01749,0.011092 -0.02787,0.017687 -0.03826,0.024284 -0.01739,0.011133 -0.02774,0.017776 -0.0381,0.02442 -0.01728,0.011172 -0.02761,0.017863 -0.03794,0.024555 -0.01717,0.01121 -0.02748,0.017949 -0.03778,0.024688 -0.01707,0.011246 -0.02735,0.018032 -0.03763,0.024819 -0.01696,0.011281 -0.02722,0.018114 -0.03747,0.024947 -0.01686,0.011315 -0.02709,0.018194 -0.03732,0.025074 -0.01675,0.011347 -0.02696,0.018272 -0.03717,0.025199 -0.01665,0.011377 -0.02683,0.018349 -0.03702,0.025321 -0.01654,0.011407 -0.0267,0.018424 -0.03687,0.025442 -0.01644,0.011435 -0.02658,0.018498 -0.03672,0.025561 -0.01634,0.011461 -0.02645,0.018569 -0.03657,0.025678 -0.01624,0.011487 -0.02633,0.01864 -0.03642,0.025792 -0.01613,0.011511 -0.02621,0.018709 -0.03628,0.025906 -0.01603,0.011533 -0.02608,0.018775 -0.03613,0.026017 -0.01593,0.011555 -0.02596,0.018841 -0.03599,0.026126 -0.01583,0.011575 -0.02584,0.018905 -0.03585,0.026233 -0.01573,0.011594 -0.02572,0.018968 -0.03571,0.02634 -0.01563,0.011612 -0.0256,0.019028 -0.03557,0.026442 -0.03832,0.028609 -0.07358,0.055244 -0.108588,0.081983 -0.03512,0.026821 -0.06997,0.053745 -0.104586,0.08076 -0.268794,0.2098172 -0.523857,0.4262 -0.766315,0.643472 -0.260485,0.2334489 -0.509154,0.4703371 -0.746954,0.7047053 -0.245881,0.2423676 -0.48391,0.4857605 -0.713682,0.7239176 -0.245988,0.2550042 -0.493454,0.5154182 -0.728829,0.7616762 -0.247689,0.259182 -0.490157,0.511301 -0.733414,0.758217 -0.152617,0.155006 -0.307336,0.309326 -0.464478,0.464161 -0.376883,0.371321 -0.762041,0.739715 -1.154842,1.11147 -0.5497,0.520207 -0.942778,0.88669 -1.492535,1.40695 -0.489826,0.464141 -0.983954,0.938744 -1.472135,1.426508 -0.409802,0.409465 -0.8174483,0.83021 -1.2171345,1.264743 -0.046101,0.05012 -0.092064,0.100392 -0.137899,0.150835 -0.045862,0.05047 -0.091592,0.101115 -0.1371849,0.151934 -0.015649,0.01748 -0.02993,0.03343 -0.0442,0.04937 -0.01699,0.01906 -0.031232,0.03504 -0.045464,0.051 -0.016981,0.01913 -0.031184,0.03514 -0.045377,0.05113 -0.016971,0.01921 -0.031136,0.03524 -0.045289,0.05126 -0.01696,0.01928 -0.031085,0.03534 -0.045198,0.05139 -0.016948,0.01936 -0.031033,0.03545 -0.045105,0.05153 -0.016936,0.01943 -0.03098,0.03555 -0.045011,0.05166 -0.016923,0.01951 -0.030925,0.03566 -0.044914,0.05179 -0.016909,0.01959 -0.030869,0.03577 -0.044816,0.05193 -0.016894,0.01966 -0.030812,0.03587 -0.044716,0.05207 -0.016879,0.01974 -0.030754,0.03598 -0.044615,0.0522 -0.016862,0.01982 -0.030694,0.03609 -0.04451,0.05234 -0.016845,0.0199 -0.030632,0.0362 -0.044405,0.05248 -0.016827,0.01998 -0.03057,0.03631 -0.044297,0.05262 -0.016808,0.02007 -0.030506,0.03643 -0.044187,0.05277 -0.016789,0.02015 -0.030441,0.03654 -0.044076,0.05291 -0.016768,0.02023 -0.030374,0.03665 -0.043962,0.05305 -0.016747,0.02031 -0.030305,0.03677 -0.043847,0.0532 -0.016725,0.0204 -0.030236,0.03688 -0.043729,0.05335 -0.016702,0.02048 -0.030166,0.037 -0.043611,0.0535 -0.016678,0.02057 -0.030093,0.03712 -0.043489,0.05364 -0.016653,0.02065 -0.030019,0.03723 -0.043366,0.05379 -0.016628,0.02074 -0.029944,0.03735 -0.04324,0.05395 -0.016601,0.02082 -0.029867,0.03747 -0.043113,0.0541 -0.016573,0.02091 -0.029789,0.03759 -0.042984,0.05425 -0.016545,0.021 -0.02971,0.03771 -0.042853,0.0544 -0.016516,0.02109 -0.029628,0.03784 -0.042719,0.05456 -0.016486,0.02117 -0.029547,0.03796 -0.042585,0.05472 -0.016454,0.02126 -0.029462,0.03808 -0.042447,0.05487 -0.016422,0.02135 -0.029377,0.03821 -0.042307,0.05504 -0.016389,0.02144 -0.02929,0.03834 -0.042166,0.05519 -0.016356,0.02154 -0.029202,0.03846 -0.042023,0.05536 -0.01632,0.02163 -0.029111,0.03859 -0.041877,0.05552 -0.016284,0.02172 -0.02902,0.03872 -0.04173,0.05568 -0.016248,0.02181 -0.028927,0.03885 -0.04158,0.05585 -0.01621,0.02191 -0.028833,0.03898 -0.041429,0.05601 -0.016171,0.022 -0.028737,0.03911 -0.041275,0.05618 -0.016131,0.0221 -0.028639,0.03924 -0.041119,0.05635 -0.016091,0.02219 -0.02854,0.03937 -0.040961,0.05651 -0.016048,0.02229 -0.028439,0.03951 -0.040801,0.05668 -0.016006,0.02238 -0.028337,0.03964 -0.040638,0.05685 -0.015962,0.02248 -0.028233,0.03978 -0.040474,0.05703 -0.015917,0.02258 -0.028128,0.03991 -0.040307,0.0572 -0.015871,0.02267 -0.028021,0.04005 -0.040138,0.05737 -0.015824,0.02277 -0.027913,0.04019 -0.039968,0.05755 -0.015775,0.02287 -0.027802,0.04032 -0.039794,0.05773 -0.015727,0.02297 -0.027691,0.04046 -0.03962,0.0579 -0.015676,0.02307 -0.027577,0.0406 -0.039442,0.05808 -0.015625,0.02317 -0.027462,0.04074 -0.039262,0.05826 -0.015572,0.02327 -0.027345,0.04088 -0.039081,0.05844 -0.015519,0.02337 -0.027227,0.04103 -0.038896,0.05862 -0.015464,0.02348 -0.027107,0.04117 -0.038711,0.0588 -0.015408,0.02358 -0.026985,0.04131 -0.038522,0.05898 -0.015351,0.02368 -0.026862,0.04146 -0.038331,0.05917 -0.015294,0.02379 -0.026737,0.0416 -0.038139,0.05936 -0.015234,0.02389 -0.02661,0.04175 -0.037943,0.05954 -0.015174,0.024 -0.026482,0.0419 -0.037745,0.05973 -0.015112,0.0241 -0.026351,0.04204 -0.037545,0.05992 -0.01505,0.02421 -0.02622,0.04219 -0.037344,0.06011 -0.014986,0.02431 -0.026086,0.04234 -0.037139,0.06029 -0.014921,0.02442 -0.025951,0.04249 -0.036932,0.06049 -0.014855,0.02453 -0.025814,0.04264 -0.036723,0.06068 -0.014787,0.02463 -0.025675,0.04279 -0.036512,0.06087 -0.014719,0.02474 -0.025535,0.04295 -0.036298,0.06106 -0.014649,0.02485 -0.025392,0.0431 -0.036082,0.06126 -0.014578,0.02496 -0.025249,0.04326 -0.035863,0.06145 -0.014506,0.02507 -0.025103,0.04341 -0.035642,0.06165 -0.014433,0.02518 -0.024956,0.04357 -0.03542,0.06185 -0.014358,0.02529 -0.024806,0.04372 -0.035194,0.06204 -0.014282,0.0254 -0.024655,0.04388 -0.034966,0.06224 -0.014205,0.02552 -0.024503,0.04404 -0.034736,0.06244 -0.014127,0.02563 -0.024348,0.0442 -0.034503,0.06264 -0.014048,0.02574 -0.024192,0.04435 -0.034268,0.06284 -0.013967,0.02585 -0.024034,0.04452 -0.03403,0.06304 -0.013886,0.02597 -0.023875,0.04468 -0.03379,0.06325 -0.013803,0.02608 -0.023714,0.04484 -0.033548,0.06345 -0.013719,0.0262 -0.023551,0.045 -0.033303,0.06365 -0.013634,0.02631 -0.023386,0.04517 -0.033056,0.06386 -0.013548,0.02643 -0.02322,0.04533 -0.032806,0.06406 -0.013461,0.02655 -0.023052,0.0455 -0.032554,0.06427 -0.013373,0.02667 -0.022883,0.04566 -0.0323,0.06447 -0.013283,0.02679 -0.022712,0.04583 -0.032043,0.06468 -0.013193,0.02691 -0.022539,0.046 -0.031783,0.06489 -0.013102,0.02703 -0.022366,0.04618 -0.031521,0.0651 -0.01301,0.02716 -0.02219,0.04635 -0.031257,0.0653 -0.012918,0.02728 -0.022014,0.04652 -0.03099,0.06551 -0.012824,0.02741 -0.021837,0.0467 -0.03072,0.06572 -0.012731,0.02754 -0.021658,0.04688 -0.030449,0.06593 -0.00754,0.0165 -0.011407,0.02497 -0.015244,0.03339 -0.00499,0.01094 -0.00996,0.02186 -0.01493,0.03275 -0.012422,0.02754 -0.021177,0.04699 -0.029897,0.06636 -0.012317,0.02765 -0.020986,0.04715 -0.029618,0.06657 -0.012211,0.02776 -0.020792,0.04731 -0.029337,0.06678 -0.012103,0.02788 -0.020596,0.04748 -0.029052,0.06699 -0.011993,0.02799 -0.020399,0.04764 -0.028765,0.0672 -0.011883,0.0281 -0.020199,0.04781 -0.028476,0.06742 -0.011771,0.02821 -0.019998,0.04797 -0.028185,0.06763 -0.011657,0.02832 -0.019794,0.04813 -0.02789,0.06784 -0.011542,0.02844 -0.019589,0.0483 -0.027594,0.06806 -0.011426,0.02855 -0.019382,0.04847 -0.027294,0.06827 -0.011309,0.02866 -0.019173,0.04863 -0.026993,0.06849 -0.01119,0.02877 -0.018962,0.0488 -0.026689,0.0687 -0.01107,0.02888 -0.01875,0.04896 -0.026382,0.06892 -0.010949,0.02899 -0.018535,0.04913 -0.026073,0.06913 -0.010826,0.0291 -0.018319,0.0493 -0.025762,0.06935 -0.010702,0.02922 -0.0181,0.04946 -0.025448,0.06957 -0.010577,0.02933 -0.01788,0.04963 -0.025131,0.06978 -0.01045,0.02944 -0.017659,0.0498 -0.024812,0.07 -0.010323,0.02955 -0.017435,0.04997 -0.024491,0.07022 -0.010194,0.02967 -0.01721,0.05013 -0.024167,0.07043 -0.010064,0.02978 -0.016983,0.0503 -0.023841,0.07065 -0.00993,0.02989 -0.016754,0.05047 -0.023512,0.07086 -0.0098,0.03 -0.016523,0.05064 -0.023182,0.07108 -0.00967,0.03012 -0.016291,0.05081 -0.022848,0.0713 -0.00953,0.03023 -0.016058,0.05099 -0.022512,0.07152 -0.0094,0.03035 -0.015822,0.05116 -0.022174,0.07173 -0.00926,0.03046 -0.015586,0.05133 -0.021834,0.07195 -0.00912,0.03058 -0.015347,0.05151 -0.021491,0.07217 -0.00898,0.0307 -0.015108,0.05169 -0.021146,0.07238 -0.00885,0.03082 -0.014868,0.05187 -0.020798,0.0726 -0.00871,0.03095 -0.014626,0.05205 -0.020448,0.07282 -0.00857,0.03108 -0.014383,0.05224 -0.020096,0.07303 -0.00843,0.03121 -0.01414,0.05244 -0.019742,0.07325 -0.00829,0.03135 -0.013897,0.05264 -0.019385,0.07347 -0.00815,0.0315 -0.013653,0.05285 -0.019026,0.07368 -0.00801,0.03166 -0.013411,0.05307 -0.018664,0.0739 -8.164e-4,0.0032 -0.00162,0.0065 -0.00242,0.0097 -0.00545,0.02212 -0.010747,0.04359 -0.015878,0.0644 -8.008e-4,0.0032 -0.00159,0.0065 -0.00238,0.0098 -0.00537,0.02229 -0.010557,0.04382 -0.015559,0.06458 -7.851e-4,0.0033 -0.00156,0.0065 -0.00233,0.0098 -0.00529,0.0225 -0.010375,0.04409 -0.015238,0.06476 -7.69e-4,0.0033 -0.00153,0.0065 -0.00228,0.0098 -0.00523,0.02277 -0.010205,0.04443 -0.014916,0.06495 a 1.8862543,1.8862543 90 0 0 3.6767846,0.844438 z"
       id="path-1"
       inkscape:path-effect="#path-effect5;#path-effect6"
       inkscape:original-d="M 6.5390148,25.653058 C 7.798081,20.102987 12.592949,16.581118 16.347537,12.826529 19.03675,10.137316 20.824532,7.5450171 24.647056,7.5450171"
       style="fill:#000000;fill-rule:nonzero;stroke:none" />
    <path
       d="m 5.4931666,7.3542764 c 0.5844543,0.3893902 1.2414668,0.84643 1.9745636,1.3866874 0.6361672,0.4688138 1.3086206,0.9847363 2.0324642,1.5630572 0.7076256,0.565358 1.4346806,1.166534 2.2084226,1.823233 0.850503,0.721846 1.697775,1.459887 2.613601,2.263708 0.99696,0.87503 2.140575,1.886159 3.224404,2.822911 0.599051,0.517757 1.225556,1.052628 1.868874,1.588727 0.14873,0.123961 0.302574,0.238499 0.45969,0.344504 0.161435,0.108953 0.323587,0.207032 0.483128,0.296281 0.163785,0.09165 0.324138,0.173584 0.474802,0.247531 0.138581,0.06804 0.281295,0.13522 0.39864,0.191154 0.107592,0.05131 0.198158,0.09515 0.281929,0.138263 0.07368,0.03794 0.131951,0.07018 0.180021,0.09928 0.04236,0.02565 0.07078,0.04531 0.0893,0.05933 0.0158,0.01197 0.02251,0.01861 0.02128,0.01739 -0.0026,-0.0025 -0.01044,-0.01045 -0.02063,-0.02138 -0.0058,-0.0063 -0.0054,-0.0058 -0.0049,-0.0053 -0.0066,-0.0073 -0.0061,-0.0067 -0.0056,-0.0062 -0.0063,-0.0072 -0.0058,-0.0066 -0.0053,-0.006 5.39e-4,6.24e-4 0.0011,0.0012 0.0016,0.0019 l -0.0066,-0.0076 c -0.0049,-0.0057 -0.0092,-0.01095 -0.01302,-0.01573 -0.004,-0.005 -0.0075,-0.0095 -0.01048,-0.01347 -0.0042,-0.0056 -0.0076,-0.01034 -0.01033,-0.01422 -0.01247,-0.0179 -0.01353,-0.02256 -0.0051,-0.0058 0.0055,0.01088 0.01325,0.02759 0.02291,0.05079 0.0049,0.01175 0.01022,0.02504 0.01601,0.0401 0.01788,0.04656 0.03728,0.102763 0.05892,0.172325 0.02565,0.08253 0.05127,0.173748 0.07894,0.279142 0.03494,0.133211 0.06823,0.27019 0.106668,0.429201 0.04303,0.178056 0.09322,0.387282 0.148499,0.596484 0.0391,0.147864 0.0838,0.307679 0.136013,0.473258 0.04339,0.137507 0.09383,0.285087 0.153716,0.43805 0.0539,0.137573 0.11782,0.285753 0.195025,0.438839 0.07286,0.144372 0.161063,0.300245 0.269226,0.458941 0.02791,0.04093 0.05706,0.08195 0.08771,0.123097 0.01836,0.02464 0.03718,0.04924 0.0565,0.07379 0.01944,0.0247 0.03932,0.04926 0.05966,0.07368 0.0088,0.0105 0.01182,0.01408 0.01479,0.01761 0.0039,0.0046 0.0078,0.0092 0.01174,0.01382 0.0031,0.0036 0.0061,0.0071 0.0091,0.01061 0.004,0.0047 0.008,0.0093 0.01204,0.0139 0.0031,0.0036 0.0062,0.0071 0.0092,0.01049 0.0041,0.0047 0.0082,0.0093 0.01234,0.01397 0.0032,0.0035 0.0062,0.007 0.0093,0.01037 0.0042,0.0047 0.0084,0.0094 0.01265,0.01403 0.0032,0.0035 0.0063,0.0069 0.0093,0.01025 0.0043,0.0047 0.0086,0.0094 0.01296,0.01409 0.0033,0.0035 0.0064,0.0069 0.0094,0.01013 0.0044,0.0047 0.0088,0.0095 0.01328,0.01414 0.0033,0.0035 0.0065,0.0069 0.0095,0.01001 0.0045,0.0048 0.009,0.0095 0.0136,0.01419 0.0034,0.0035 0.0066,0.0069 0.0096,0.0099 0.0046,0.0048 0.0093,0.0095 0.01392,0.01422 0.0036,0.0037 0.0069,0.0069 0.0097,0.0098 a 1.8862543,1.8862543 90 0 0 2.681724,-2.653332 c -8.45e-4,-8.54e-4 -0.0017,-0.0018 -0.0027,-0.0027 0.006,0.0062 0.0051,0.0053 0.0042,0.0043 0.0058,0.0062 0.0049,0.0052 0.0039,0.0042 0.0057,0.0061 0.0047,0.005 0.0037,0.004 0.0055,0.006 0.0045,0.0049 0.0035,0.0038 0.0053,0.0059 0.0043,0.0048 0.0032,0.0036 0.0051,0.0058 0.0041,0.0046 0.003,0.0034 0.0049,0.0057 0.0039,0.0045 0.0028,0.0032 -0.0011,-0.0013 -0.0021,-0.0025 -0.0032,-0.0038 0.0082,0.0098 0.01034,0.01246 0.01218,0.0148 0.0018,0.0023 0.0033,0.0043 0.0046,0.006 0.0021,0.0028 0.0034,0.0046 0.0039,0.0055 0.0019,0.0027 -0.0055,-0.008 -0.01822,-0.03327 -0.01361,-0.027 -0.03048,-0.06435 -0.05044,-0.115303 -0.02195,-0.05606 -0.04461,-0.120927 -0.06868,-0.197197 -0.02891,-0.09169 -0.05716,-0.191382 -0.08655,-0.302518 -0.04284,-0.1621 -0.08284,-0.328467 -0.128821,-0.518705 -0.03768,-0.155889 -0.07902,-0.326608 -0.124621,-0.500432 -0.03677,-0.140052 -0.07789,-0.288431 -0.125448,-0.441476 -0.04009,-0.128889 -0.0859,-0.264987 -0.139813,-0.405381 -0.01749,-0.04551 -0.03583,-0.09152 -0.05536,-0.138374 -0.03799,-0.09117 -0.08221,-0.18972 -0.133806,-0.292516 -0.06872,-0.136773 -0.157139,-0.294581 -0.271232,-0.458324 -0.02265,-0.03249 -0.0466,-0.06565 -0.0722,-0.09961 -0.01838,-0.02438 -0.03772,-0.04932 -0.05807,-0.07471 -0.01964,-0.0245 -0.04023,-0.04946 -0.06184,-0.07477 -0.0022,-0.0026 -0.0044,-0.0051 -0.0066,-0.0076 -0.0027,-0.0032 -0.0055,-0.0064 -0.0083,-0.0096 -0.0044,-0.0051 -0.0089,-0.01027 -0.0134,-0.01536 -0.0028,-0.0031 -0.0055,-0.0063 -0.0083,-0.0095 -0.0046,-0.0052 -0.0092,-0.01033 -0.01379,-0.01546 -0.0028,-0.0031 -0.0056,-0.0062 -0.0084,-0.0093 -0.0047,-0.0052 -0.0094,-0.01039 -0.01418,-0.01555 -0.0028,-0.0031 -0.0057,-0.0061 -0.0085,-0.0092 -0.03802,-0.04085 -0.06802,-0.07139 -0.09505,-0.09805 -0.130011,-0.128617 -0.264391,-0.24211 -0.394634,-0.340759 -0.143092,-0.108392 -0.283533,-0.200679 -0.413252,-0.279229 -0.144525,-0.08749 -0.283361,-0.162564 -0.407169,-0.226315 -0.13788,-0.07097 -0.271689,-0.135318 -0.385143,-0.189421 -0.140827,-0.06713 -0.247099,-0.11703 -0.359778,-0.172353 -0.113158,-0.05554 -0.209226,-0.105182 -0.295198,-0.15329 -0.08287,-0.04636 -0.15359,-0.08976 -0.214946,-0.131172 -0.05948,-0.04013 -0.11058,-0.07866 -0.154646,-0.115392 C 21.20948,15.386881 20.600925,14.867403 20.013487,14.359683 18.944155,13.435462 17.822852,12.443964 16.810765,11.555656 15.889643,10.747187 15.024052,9.9930698 14.149754,9.2510285 13.353208,8.5749756 12.596983,7.9495057 11.854984,7.3566854 11.095592,6.7499625 10.384194,6.2039792 9.7057783,5.7040309 8.9236431,5.1276345 8.2177784,4.636427 7.584863,4.2147498 A 1.8862543,1.8862543 90 0 0 5.4931666,7.3542764 Z"
       id="path-1-2"
       inkscape:path-effect="#path-effect7;#path-effect8"
       inkscape:original-d="M 6.5390148,5.7845131 C 11.628476,9.175401 15.959828,13.467523 20.623047,17.353539 c 0.853711,0.711426 1.90141,0.895408 2.515005,1.509004 0.746285,0.746284 0.68137,2.944874 1.509004,3.772508"
       style="fill:#000000;fill-rule:nonzero;stroke:none" />
  </g>
</svg>
