<?xml version="1.0" encoding="UTF-8" standalone="no"?>
<!-- Created with Inkscape (http://www.inkscape.org/) -->

<svg
   width="128"
   height="128"
   viewBox="0 0 33.866666 33.866666"
   version="1.1"
   id="svg1"
   sodipodi:docname="module_speed.svg"
   inkscape:version="1.4.3 (0d15f75, 2025-12-25)"
   xmlns:inkscape="http://www.inkscape.org/namespaces/inkscape"
   xmlns:sodipodi="http://sodipodi.sourceforge.net/DTD/sodipodi-0.dtd"
   xmlns="http://www.w3.org/2000/svg"
   xmlns:svg="http://www.w3.org/2000/svg">
  <sodipodi:namedview
     id="namedview1"
     pagecolor="#ffffff"
     bordercolor="#000000"
     borderopacity="0.25"
     inkscape:showpageshadow="2"
     inkscape:pageopacity="0.0"
     inkscape:pagecheckerboard="0"
     inkscape:deskcolor="#d1d1d1"
     inkscape:document-units="px"
     inkscape:zoom="1.0520188"
     inkscape:cx="105.9867"
     inkscape:cy="26.615494"
     inkscape:window-width="1231"
     inkscape:window-height="729"
     inkscape:window-x="0"
     inkscape:window-y="38"
     inkscape:window-maximized="0"
     inkscape:current-layer="layer1" />
  <defs
     id="defs1">
    <inkscape:path-effect
       effect="powerstroke"
       message=""
       id="path-effect14"
       is_visible="true"
       lpeversion="1.3"
       scale_width="1"
       interpolator_type="CentripetalCatmullRom"
       interpolator_beta="0.75"
       start_linecap_type="round"
       end_linecap_type="round"
       offset_points="5.605586,1.8862543"
       linejoin_type="spiro"
       miter_limit="4"
       not_jump="true"
       sort_points="true" />
    <inkscape:path-effect
       effect="simplify"
       id="path-effect13"
       is_visible="true"
       lpeversion="1.3"
       threshold="0.012"
       steps="1"
       smooth_angles="0"
       helper_size="0"
       simplify_individual_paths="false"
       simplify_just_coalesce="false"
       step="1" />
    <inkscape:path-effect
       effect="powerstroke"
       message=""
       id="path-effect12"
       is_visible="true"
       lpeversion="1.3"
       scale_width="1"
       interpolator_type="CentripetalCatmullRom"
       interpolator_beta="0.75"
       start_linecap_type="round"
       end_linecap_type="round"
       offset_points="56.354786,1.8862543"
       linejoin_type="spiro"
       miter_limit="4"
       not_jump="true"
       sort_points="true" />
    <inkscape:path-effect
       effect="simplify"
       id="path-effect11"
       is_visible="true"
       lpeversion="1.3"
       threshold="0.012"
       steps="1"
       smooth_angles="0"
       helper_size="0"
       simplify_individual_paths="false"
       simplify_just_coalesce="false"
       step="1" />
    <inkscape:path-effect
       effect="powerstroke"
       message=""
       id="path-effect10"
       is_visible="true"
       lpeversion="1.3"
       scale_width="1"
       interpolator_type="CentripetalCatmullRom"
       interpolator_beta="0.75"
       start_linecap_type="round"
       end_linecap_type="round"
       offset_points="76.862056,1.8862543"
       linejoin_type="spiro"
       miter_limit="4"
       not_jump="true"
       sort_points="true" />
    <inkscape:path-effect
       effect="simplify"
       id="path-effect9"
       is_visible="true"
       lpeversion="1.3"
       threshold="0.012"
       steps="1"
       smooth_angles="0"
       helper_size="0"
       simplify_individual_paths="false"
       simplify_just_coalesce="false"
       step="1" />
    <inkscape:path-effect
       effect="powerstroke"
       message=""
       id="path-effect8"
       is_visible="true"
       lpeversion="1.3"
       scale_width="1"
       interpolator_type="CentripetalCatmullRom"
       interpolator_beta="0.75"
       start_linecap_type="round"
       end_linecap_type="round"
       offset_points="23.663772,1.8862543"
       linejoin_type="spiro"
       miter_limit="4"
       not_jump="true"
       sort_points="true" />
    <inkscape:path-effect
       effect="simplify"
       id="path-effect7"
       is_visible="true"
       lpeversion="1.3"
       threshold="0.012"
       steps="1"
       smooth_angles="0"
       helper_size="0"
       simplify_individual_paths="false"
       simplify_just_coalesce="false"
       step="1" />
    <inkscape:path-effect
       effect="powerstroke"
       message=""
       id="path-effect6"
       is_visible="true"
       lpeversion="1.3"
       scale_width="1"
       interpolator_type="CentripetalCatmullRom"
       interpolator_beta="0.75"
       start_linecap_type="round"
       end_linecap_type="round"
       offset_points="40.56292,1.8862543"
       linejoin_type="spiro"
       miter_limit="4"
       not_jump="true"
       sort_points="true" />
    <inkscape:path-effect
       effect="simplify"
       id="path-effect5"
       is_visible="true"
       lpeversion="1.3"
       threshold="0.012"
       steps="1"
       smooth_angles="0"
       helper_size="0"
       simplify_individual_paths="false"
       simplify_just_coalesce="false"
       step="1" />
    <inkscape:path-effect
       effect="powerstroke"
       message=""
       id="path-effect4"
       is_visible="true"
       lpeversion="1.3"
       scale_width="1"
       interpolator_type="CentripetalCatmullRom"
       interpolator_beta="0.75"
       start_linecap_type="round"
       end_linecap_type="round"
       offset_points="86.392198,1.8862543"
       linejoin_type="spiro"
       miter_limit="4"
       not_jump="true"
       sort_points="true" />
    <inkscape:path-effect
       effect="simplify"
       id="path-effect3"
       is_visible="true"
       lpeversion="1.3"
       threshold="0.012"
       steps="1"
       smooth_angles="0"
       helper_size="0"
       simplify_individual_paths="false"
       simplify_just_coalesce="false"
       step="1" />
    <inkscape:path-effect
       effect="powerstroke"
       message=""
       id="path-effect2"
       is_visible="true"
       lpeversion="1.3"
       scale_width="1"
       interpolator_type="CentripetalCatmullRom"
       interpolator_beta="0.75"
       start_linecap_type="round"
       end_linecap_type="round"
       offset_points="19.442751,1.8862543"
       linejoin_type="spiro"
       miter_limit="4"
       not_jump="true"
       sort_points="true" />
    <inkscape:path-effect
       effect="simplify"
       id="path-effect1"
       is_visible="true"
       lpeversion="1.3"
       threshold="0.012"
       steps="1"
       smooth_angles="0"
       helper_size="0"
       simplify_individual_paths="false"
       simplify_just_coalesce="false"
       step="1" />
    <inkscape:path-effect
       effect="bspline"
       id="path-effect18"
       is_visible="true"
       lpeversion="1.3"
       weight="33.333333"
       steps="2"
       helper_size="0"
       apply_no_weight="true"
       apply_with_weight="true"
       only_selected="false"
       uniform="false" />
    <inkscape:path-effect
       effect="bspline"
       id="path-effect17"
       is_visible="true"
       lpeversion="1.3"
       weight="33.333333"
       steps="2"
       helper_size="0"
       apply_no_weight="true"
       apply_with_weight="true"
       only_selected="false"
       uniform="false" />
    <inkscape:path-effect
       effect="bspline"
       id="path-effect16"
       is_visible="true"
       lpeversion="1.3"
       weight="33.333333"
       steps="2"
       helper_size="0"
       apply_no_weight="true"
       apply_with_weight="true"
       only_selected="false"
       uniform="false" />
    <linearGradient
       id="swatch12"
       inkscape:swatch="solid">
      <stop
         style="stop-color:#000000;stop-opacity:1;"
         offset="0"
         id="stop13" />
    </linearGradient>
  </defs>
  <g
     inkscape:label="图层 1"
     inkscape:groupmode="layer"
     id="layer1">
    <path
       d="m 8.2321526,28.54669 c 0.00369,-0.0021 0.00759,-0.0044 0.011697,-0.0067 0.0072,-0.0041 0.014371,-0.0083 0.021516,-0.01253 0.00394,-0.0023 0.00805,-0.0048 0.012341,-0.0073 0.00629,-0.0037 0.01255,-0.0075 0.018792,-0.01126 0.00418,-0.0025 0.0085,-0.0052 0.01298,-0.0079 0.00553,-0.0034 0.011045,-0.0067 0.016542,-0.01016 0.0044,-0.0027 0.00894,-0.0056 0.013613,-0.0085 0.0049,-0.003 0.00979,-0.0061 0.014664,-0.0092 0.00463,-0.0029 0.00937,-0.0059 0.014241,-0.009 0.00437,-0.0028 0.00873,-0.0056 0.01308,-0.0084 0.00484,-0.0031 0.0098,-0.0063 0.014864,-0.0096 0.00392,-0.0025 0.00783,-0.0051 0.011734,-0.0076 0.00506,-0.0033 0.01022,-0.0067 0.015482,-0.01016 0.00353,-0.0023 0.00706,-0.0047 0.01058,-0.007 0.00527,-0.0035 0.010636,-0.0071 0.016094,-0.01072 0.03187,-0.02136 0.057545,-0.03894 0.081841,-0.0558 0.094988,-0.06601 0.1826626,-0.130241 0.2608774,-0.188412 0.145048,-0.10805 0.2841438,-0.215303 0.4181613,-0.319742 0.2314652,-0.180566 0.4586761,-0.361577 0.6851923,-0.54311 0.2685677,-0.215337 0.5352707,-0.430975 0.8051907,-0.649647 0.304526,-0.246749 0.787135,-0.638817 1.091538,-0.885466 0.535434,-0.434091 1.07793,-0.872549 1.622401,-1.307157 0.348497,-0.27815 0.700695,-0.557068 1.055411,-0.834011 0.296995,-0.231837 0.596284,-0.46276 0.897587,-0.690452 0.266253,-0.201118 0.532261,-0.398505 0.799329,-0.589769 0.133201,-0.09535 0.265615,-0.188372 0.397612,-0.278363 0.03254,-0.02218 0.06523,-0.04429 0.0979,-0.06618 0.0097,-0.0065 0.02172,-0.01451 0.03379,-0.02257 0.0073,-0.0048 0.01914,-0.0127 0.03106,-0.02061 0.007,-0.0046 0.01868,-0.01232 0.03047,-0.02009 0.0066,-0.0043 0.01822,-0.01193 0.02986,-0.01955 0.0063,-0.0041 0.01774,-0.01153 0.02923,-0.01901 0.0059,-0.0038 0.01724,-0.01112 0.02859,-0.01845 0.0056,-0.0036 0.01673,-0.01071 0.02793,-0.01789 0.0052,-0.0033 0.0162,-0.01029 0.02725,-0.01731 0.0048,-0.003 0.01565,-0.0099 0.02655,-0.01672 0.0044,-0.0027 0.01508,-0.0094 0.02582,-0.01612 0.0039,-0.0024 0.01449,-0.009 0.02508,-0.01551 0.0035,-0.0021 0.01387,-0.0085 0.0243,-0.01488 0.003,-0.0018 0.01323,-0.008 0.0235,-0.01425 0.0025,-0.0015 0.01256,-0.0075 0.02267,-0.0136 0.0019,-0.0011 0.01186,-0.007 0.02181,-0.01293 -1.18e-4,9.8e-5 0.0082,-0.0048 0.0165,-0.0097 0.0036,-0.0021 0.01168,-0.0068 0.01975,-0.01145 0.0031,-0.0018 0.01094,-0.0063 0.01876,-0.01073 0.0026,-0.0015 0.01016,-0.0057 0.01772,-0.01 0.0021,-0.0011 0.0093,-0.0052 0.01664,-0.0092 0.0015,-8.1e-4 0.0085,-0.0046 0.0155,-0.0085 8.61e-4,-4.63e-4 0.0076,-0.0041 0.01429,-0.0077 1.99e-4,-1.05e-4 0.0066,-0.0035 0.01302,-0.0069 -5.1e-4,2.65e-4 0.0056,-0.0029 0.01168,-0.0061 -0.0013,6.46e-4 0.0045,-0.0023 0.01026,-0.0052 -0.0021,0.001 0.0033,-0.0017 0.0087,-0.0043 -0.003,0.0014 0.0021,-0.001 0.0071,-0.0035 -0.0039,0.0019 7.22e-4,-3.41e-4 0.0054,-0.0025 -0.005,0.0023 -7.34e-4,3.37e-4 0.0035,-0.0016 -0.0061,0.0027 -0.0023,0.001 0.0015,-6.64e-4 -0.0074,0.0032 -0.004,0.0017 -6.96e-4,3e-4 -0.0087,0.0036 -0.0059,0.0024 -0.0031,0.0013 -0.01023,0.0041 -0.008,0.0032 -0.0057,0.0023 -0.0119,0.0045 -0.01021,0.0039 -0.0085,0.0032 -0.01375,0.005 -0.01271,0.0046 -0.01166,0.0042 -0.01582,0.0054 -0.01547,0.0053 -0.01513,0.0052 1.1e-4,-3.5e-5 2.2e-4,-7e-5 3.3e-4,-1.05e-4 l -0.03875,0.01193 c 0.0058,-0.0017 0.01164,-0.0034 0.01743,-0.0052 l -0.04268,0.0121 c 0.0056,-0.0015 0.01124,-0.003 0.01683,-0.0046 l -0.04717,0.01212 c 0.0054,-0.0013 0.01084,-0.0026 0.01622,-0.0039 l -0.05228,0.01193 c 0.0052,-0.0011 0.01043,-0.0022 0.01561,-0.0033 l -0.05811,0.01144 c 0.005,-9.07e-4 0.01002,-0.0018 0.015,-0.0027 l -0.06476,0.01054 c 0.0048,-6.98e-4 0.0096,-0.0014 0.01438,-0.0021 l -0.07234,0.0091 c 0.0046,-4.87e-4 0.0092,-9.71e-4 0.01375,-0.0015 l -0.08094,0.0068 c 0.0044,-2.74e-4 0.0088,-5.46e-4 0.01311,-8.17e-4 l -0.09063,0.0035 c 0.0042,-5.9e-5 0.0083,-1.18e-4 0.01248,-1.76e-4 l -0.101408,-0.0013 c 0.004,1.57e-4 0.0079,3.14e-4 0.01184,4.69e-4 l -0.113176,-0.0079 c 0.0038,3.76e-4 0.0075,7.5e-4 0.01119,0.0011 l -0.125652,-0.01686 c 0.0035,5.97e-4 0.007,0.0012 0.01053,0.0018 l -0.13829,-0.02868 c 0.0033,8.19e-4 0.0066,0.0016 0.0099,0.0024 l -0.150189,-0.04374 c 0.0031,0.001 0.0062,0.0021 0.0092,0.0031 l -0.160059,-0.06216 c 0.0029,0.0013 0.0057,0.0025 0.0085,0.0038 l -0.166289,-0.08348 c 0.0026,0.0015 0.0053,0.003 0.0079,0.0044 L 15.7412,21.393021 c 0.0024,0.0017 0.0048,0.0034 0.0072,0.0051 l -0.161626,-0.129282 c 0.0022,0.002 0.0044,0.0039 0.0065,0.0058 l -0.07644,-0.07228 c 0.164159,0.164141 0.327775,0.321294 0.487806,0.470969 0.169185,0.158207 0.33746,0.310942 0.502994,0.458001 0.02686,0.02386 0.05373,0.04765 0.08062,0.07137 0.233295,0.20578 0.468441,0.407089 0.704581,0.60479 0.273226,0.22872 0.548522,0.453216 0.825204,0.674322 0.316832,0.253164 0.635974,0.502267 0.956895,0.74806 0.350753,0.268618 0.703946,0.533518 1.059346,0.795273 0.298645,0.219938 0.599105,0.437836 0.901389,0.65376 0.177029,0.126432 0.353123,0.2496 0.5242,0.368688 0.351155,0.244385 0.273246,0.189715 0.624238,0.433987 0.30367,0.212011 0.596395,0.419397 0.880749,0.629383 0.226156,0.167014 0.444236,0.33357 0.654378,0.502339 0.176352,0.141651 0.345272,0.283384 0.506644,0.426745 0.146742,0.130385 0.285414,0.2605 0.415907,0.391568 0.11693,0.117468 0.225512,0.233933 0.325741,0.350281 0.09296,0.107933 0.177001,0.213777 0.252316,0.318161 0.01001,0.01388 0.01988,0.02775 0.02956,0.04154 0.0097,0.01379 0.01915,0.0275 0.02843,0.04111 0.0093,0.01363 0.01837,0.02716 0.02725,0.04059 0.0021,0.0033 0.0067,0.01022 0.01128,0.01716 -3.65e-4,-5.21e-4 0.0042,0.0065 0.0087,0.01339 -4.12e-4,-6e-4 0.0041,0.0064 0.0086,0.01333 -4.6e-4,-6.8e-4 0.004,0.0063 0.0084,0.01327 -5.06e-4,-7.6e-4 0.0039,0.0062 0.0083,0.0132 -5.51e-4,-8.41e-4 0.0038,0.0062 0.0082,0.01314 -5.96e-4,-9.22e-4 0.0037,0.0061 0.008,0.01307 -6.41e-4,-0.001 0.0036,0.006 0.0079,0.01301 -6.84e-4,-0.0011 0.0036,0.006 0.0078,0.01294 -7.25e-4,-0.0012 0.0035,0.0059 0.0076,0.01287 -7.66e-4,-0.0013 0.0034,0.0058 0.0075,0.0128 -8.05e-4,-0.0013 0.0033,0.0057 0.0074,0.01273 -0.0017,-0.0029 0.0015,0.0027 0.0048,0.0083 7.62e-4,0.0013 0.004,0.007 0.0071,0.01254 7.24e-4,0.0013 0.0039,0.0069 0.007,0.01247 6.87e-4,0.0012 0.0038,0.0069 0.0069,0.01239 6.51e-4,0.0012 0.0037,0.0068 0.0067,0.01232 6.18e-4,0.0011 0.0036,0.0067 0.0066,0.01225 5.86e-4,0.0011 0.0036,0.0067 0.0065,0.01217 5.58e-4,0.0011 0.0035,0.0067 0.0064,0.01209 5.35e-4,0.001 0.0034,0.0066 0.0062,0.01202 5.19e-4,0.001 0.0034,0.0066 0.0061,0.01194 0.003,0.0059 0.0058,0.01148 0.0084,0.01673 a 1.8862543,1.8862543 90 0 0 3.369356,-1.696838 c -0.0034,-0.0067 -0.007,-0.01387 -0.01086,-0.02156 -0.0016,-0.0032 -0.0033,-0.0064 -0.0049,-0.0096 -0.0035,-0.0068 -0.0071,-0.01398 -0.011,-0.02153 -0.0016,-0.0032 -0.0033,-0.0064 -0.0049,-0.0095 -0.0036,-0.0069 -0.0073,-0.01404 -0.01114,-0.0215 -0.0016,-0.0031 -0.0033,-0.0063 -0.0049,-0.0094 -0.0036,-0.0069 -0.0074,-0.01407 -0.01127,-0.02147 -0.0016,-0.0031 -0.0033,-0.0062 -0.0049,-0.0093 -0.0037,-0.0069 -0.0075,-0.01409 -0.01141,-0.02144 -0.0016,-0.0031 -0.0033,-0.0061 -0.0049,-0.0092 -0.0038,-0.007 -0.0076,-0.0141 -0.01155,-0.02141 -0.0016,-0.003 -0.0033,-0.0061 -0.0049,-0.0091 -0.0038,-0.007 -0.0077,-0.0141 -0.01168,-0.02138 -0.0016,-0.003 -0.0033,-0.006 -0.005,-0.009 -0.0039,-0.007 -0.0078,-0.0141 -0.01182,-0.02135 -0.0016,-0.003 -0.0033,-0.0059 -0.005,-0.0089 -0.0039,-0.007 -0.0079,-0.01409 -0.01195,-0.02131 -0.0016,-0.0029 -0.0033,-0.0059 -0.005,-0.0088 -0.004,-0.007 -0.008,-0.01409 -0.01209,-0.02128 -0.0016,-0.0029 -0.0033,-0.0058 -0.005,-0.0087 -0.004,-0.007 -0.0081,-0.01408 -0.01222,-0.02125 -0.009,-0.01558 -0.01315,-0.02266 -0.01732,-0.02981 -0.0091,-0.01548 -0.01324,-0.02254 -0.01745,-0.02968 -0.0091,-0.01537 -0.01333,-0.02243 -0.01758,-0.02955 -0.0092,-0.01527 -0.01342,-0.02231 -0.01771,-0.02942 -0.0092,-0.01517 -0.01351,-0.0222 -0.01783,-0.02929 -0.0093,-0.01506 -0.01359,-0.02209 -0.01795,-0.02916 -0.0093,-0.01496 -0.01367,-0.02197 -0.01807,-0.02903 -0.0093,-0.01486 -0.01376,-0.02186 -0.0182,-0.0289 -0.0094,-0.01476 -0.01384,-0.02175 -0.01831,-0.02878 -0.0094,-0.01466 -0.01391,-0.02164 -0.01843,-0.02865 -0.0095,-0.01456 -0.01399,-0.02153 -0.01855,-0.02853 -0.0095,-0.01445 -0.01406,-0.02142 -0.01866,-0.0284 -0.02116,-0.032 -0.04003,-0.06011 -0.05908,-0.08807 -0.01903,-0.02792 -0.03822,-0.05568 -0.05758,-0.08326 -0.01935,-0.02758 -0.03885,-0.05498 -0.05849,-0.08221 -0.146126,-0.202524 -0.298572,-0.393236 -0.453358,-0.572948 -0.16685,-0.193683 -0.338114,-0.376582 -0.510499,-0.549758 -0.192355,-0.193205 -0.387975,-0.3762 -0.583814,-0.550209 -0.21542,-0.191377 -0.432994,-0.373561 -0.649934,-0.547813 -0.258418,-0.207541 -0.518196,-0.405632 -0.775672,-0.595775 -0.323076,-0.238581 -0.646635,-0.467561 -0.962133,-0.687829 -0.149312,-0.104259 -0.479375,-0.33283 -0.628791,-0.437161 -0.16722,-0.116402 -0.328524,-0.22928 -0.486676,-0.34223 -0.287474,-0.205345 -0.573163,-0.412532 -0.856901,-0.621492 -0.337716,-0.248731 -0.672044,-0.499502 -1.002683,-0.752715 -0.30259,-0.231754 -0.601215,-0.464878 -0.895662,-0.700156 -0.257202,-0.205538 -0.510119,-0.411837 -0.7586,-0.619843 -0.214848,-0.179875 -0.425072,-0.359923 -0.630598,-0.541208 -0.02358,-0.0208 -0.04719,-0.0417 -0.07071,-0.0626 -0.14509,-0.128897 -0.289331,-0.259882 -0.431723,-0.393035 -0.134888,-0.12616 -0.267701,-0.253867 -0.397192,-0.383343 -0.0248,-0.0248 -0.05029,-0.0489 -0.07644,-0.07228 -0.0021,-0.0019 -0.0043,-0.0039 -0.0065,-0.0058 -0.05147,-0.04602 -0.105426,-0.08918 -0.161625,-0.129281 -0.0024,-0.0017 -0.0048,-0.0034 -0.0072,-0.0051 -0.05383,-0.03842 -0.109654,-0.07397 -0.167222,-0.106526 -0.0026,-0.0015 -0.0052,-0.0029 -0.0079,-0.0044 -0.05402,-0.03055 -0.109521,-0.05841 -0.166289,-0.08348 -0.0028,-0.0012 -0.0057,-0.0025 -0.0085,-0.0038 -0.05238,-0.02314 -0.105791,-0.04388 -0.160059,-0.06216 -0.003,-0.001 -0.0061,-0.0021 -0.0092,-0.0031 -0.04944,-0.01665 -0.09954,-0.03124 -0.15019,-0.04374 -0.0033,-8.06e-4 -0.0066,-0.0016 -0.0099,-0.0024 -0.04572,-0.01128 -0.09185,-0.02085 -0.13829,-0.02868 -0.0035,-5.88e-4 -0.007,-0.0012 -0.01053,-0.0018 -0.04168,-0.007 -0.08359,-0.01265 -0.125652,-0.01686 -0.0037,-3.7e-4 -0.0074,-7.44e-4 -0.01119,-0.0011 -0.03764,-0.0038 -0.07538,-0.0064 -0.113176,-0.0079 -0.0039,-1.55e-4 -0.0079,-3.12e-4 -0.01184,-4.69e-4 -0.03378,-0.0013 -0.0676,-0.0018 -0.101408,-0.0013 -0.0041,5.8e-5 -0.0083,1.17e-4 -0.01248,1.76e-4 -0.03023,4.27e-4 -0.06045,0.0016 -0.09063,0.0035 -0.0043,2.7e-4 -0.0087,5.43e-4 -0.01311,8.17e-4 -0.02703,0.0017 -0.05401,0.0039 -0.08094,0.0068 -0.0046,4.81e-4 -0.0091,9.66e-4 -0.01375,0.0015 -0.02417,0.0026 -0.04829,0.0056 -0.07234,0.0091 -0.0048,6.91e-4 -0.0096,0.0014 -0.01437,0.0021 -0.02165,0.0031 -0.04324,0.0067 -0.06476,0.01054 -0.005,8.98e-4 -0.01,0.0018 -0.015,0.0027 -0.01943,0.0035 -0.0388,0.0073 -0.05811,0.01144 -0.0052,0.0011 -0.01039,0.0022 -0.01561,0.0033 -0.01748,0.0037 -0.03491,0.0077 -0.05228,0.01193 -0.0054,0.0013 -0.01079,0.0026 -0.01622,0.0039 -0.01577,0.0038 -0.0315,0.0079 -0.04717,0.01212 -0.0056,0.0015 -0.0112,0.003 -0.01683,0.0046 -0.01428,0.0039 -0.0285,0.0079 -0.04268,0.0121 -0.0058,0.0017 -0.0116,0.0034 -0.01743,0.0052 -0.01296,0.0038 -0.02587,0.0078 -0.03875,0.01193 -0.006,0.0019 -0.012,0.0038 -0.01803,0.0058 -0.0118,0.0038 -0.02356,0.0077 -0.03528,0.01166 -0.0062,0.0021 -0.01239,0.0042 -0.01862,0.0064 -0.01077,0.0037 -0.02152,0.0075 -0.03222,0.01133 -0.0064,0.0023 -0.01279,0.0046 -0.0192,0.0069 -0.0099,0.0036 -0.01971,0.0072 -0.02951,0.01096 -0.0066,0.0025 -0.01317,0.005 -0.01978,0.0075 -0.0091,0.0035 -0.0181,0.007 -0.02711,0.01056 -0.0068,0.0027 -0.01356,0.0054 -0.02036,0.0081 -0.0083,0.0033 -0.01667,0.0067 -0.02496,0.01016 -0.007,0.0029 -0.01394,0.0058 -0.02093,0.0087 -0.0077,0.0032 -0.01539,0.0065 -0.02305,0.0098 -0.0072,0.0031 -0.01432,0.0062 -0.02149,0.0093 -0.0071,0.0031 -0.01424,0.0062 -0.02133,0.0093 -0.0073,0.0033 -0.01469,0.0065 -0.02205,0.0098 -0.0066,0.0029 -0.01321,0.0059 -0.01979,0.009 -0.0075,0.0035 -0.01506,0.0069 -0.02261,0.01039 -0.0062,0.0028 -0.01229,0.0057 -0.01841,0.0086 -0.0077,0.0036 -0.01543,0.0073 -0.02315,0.01094 -0.0057,0.0027 -0.01145,0.0054 -0.01715,0.0082 -0.0079,0.0038 -0.01579,0.0077 -0.0237,0.01149 -0.0054,0.0026 -0.01069,0.0052 -0.01602,0.0079 -0.0081,0.004 -0.01615,0.008 -0.02423,0.01204 -0.005,0.0025 -0.01,0.005 -0.01498,0.0075 -0.0083,0.0042 -0.01651,0.0084 -0.02477,0.01258 -0.0047,0.0024 -0.0094,0.0048 -0.01405,0.0072 -0.0084,0.0044 -0.01686,0.0087 -0.02529,0.01311 -0.0044,0.0023 -0.0088,0.0046 -0.01319,0.0069 -0.0086,0.0045 -0.01721,0.0091 -0.02582,0.01364 -0.0041,0.0022 -0.0083,0.0044 -0.0124,0.0066 -0.0088,0.0047 -0.01756,0.0094 -0.02634,0.01417 -0.0039,0.0021 -0.0078,0.0042 -0.01168,0.0063 -0.009,0.0049 -0.0179,0.0098 -0.02685,0.01469 -0.0037,0.002 -0.0074,0.004 -0.01102,0.0061 -0.0091,0.0051 -0.01824,0.01014 -0.02735,0.01521 -0.0035,0.0019 -0.0069,0.0039 -0.01042,0.0058 -0.0093,0.0052 -0.01858,0.01048 -0.02786,0.01572 -0.0033,0.0019 -0.0066,0.0037 -0.0099,0.0056 -0.0095,0.0054 -0.01891,0.01082 -0.02835,0.01622 -0.0031,0.0018 -0.0062,0.0036 -0.0093,0.0054 -0.0096,0.0056 -0.01924,0.01115 -0.02884,0.01672 -0.003,0.0017 -0.0059,0.0034 -0.0089,0.0052 -0.0098,0.0057 -0.01957,0.01149 -0.02933,0.01722 -0.01836,0.01088 -0.0283,0.01678 -0.03822,0.02267 -0.01811,0.01085 -0.02821,0.01692 -0.03828,0.02297 -0.01789,0.01083 -0.02814,0.01706 -0.03837,0.02327 -0.01768,0.01082 -0.02809,0.01721 -0.03847,0.02357 -0.01751,0.01082 -0.02807,0.01736 -0.0386,0.02388 -0.01735,0.01082 -0.02806,0.01752 -0.03874,0.02419 -0.01721,0.01083 -0.02807,0.01768 -0.0389,0.02451 -0.01708,0.01085 -0.0281,0.01785 -0.03906,0.02482 -0.01698,0.01087 -0.02813,0.01802 -0.03925,0.02514 -0.01688,0.01089 -0.02819,0.01819 -0.03944,0.02546 -0.0168,0.01092 -0.02825,0.01837 -0.03964,0.02578 -0.01673,0.01095 -0.02832,0.01854 -0.03985,0.0261 -0.01668,0.01099 -0.0284,0.01872 -0.04006,0.02642 -0.01663,0.01103 -0.02849,0.01891 -0.04028,0.02674 -0.01659,0.01107 -0.02859,0.01909 -0.04051,0.02706 -0.04376,0.02933 -0.08467,0.057 -0.124896,0.08441 -0.161287,0.10996 -0.317878,0.220071 -0.468836,0.328127 -0.301455,0.215891 -0.594526,0.433525 -0.877297,0.647121 -0.321423,0.242896 -0.636901,0.486362 -0.944912,0.726797 -0.36829,0.287542 -0.731471,0.575184 -1.087335,0.859212 -0.555811,0.44366 -1.1070547,0.889212 -1.6447671,1.325149 -0.4499777,0.364795 -0.6406368,0.519924 -1.0906411,0.88474 -0.2683935,0.217435 -0.5292095,0.428304 -0.7898742,0.637304 -0.2214069,0.177438 -0.4337802,0.346564 -0.6452989,0.51157 -0.1239037,0.09656 -0.2386959,0.184916 -0.3510258,0.268594 -0.062192,0.04625 -0.1135058,0.08357 -0.1602015,0.116016 -0.00984,0.0068 -0.018657,0.01284 -0.026057,0.0178 0.00132,-8.9e-4 -0.00229,0.0015 -0.00585,0.0039 0.00205,-0.0013 -0.00116,7.59e-4 -0.00433,0.0028 0.00307,-0.002 2.863e-4,-1.85e-4 -0.00246,0.0016 0.00422,-0.0027 0.00191,-0.0012 -3.73e-4,2.37e-4 0.00554,-0.0034 0.00375,-0.0023 0.00198,-0.0012 0.00708,-0.0043 0.00588,-0.0036 0.00468,-0.0028 0.00888,-0.0053 0.00834,-0.0049 0.0078,-0.0046 -3.007e-4,1.73e-4 -6e-4,3.44e-4 -8.978e-4,5.15e-4 a 1.8862543,1.8862543 90 0 0 1.8772722,3.272258 z"
       id="path-1"
       inkscape:path-effect="#path-effect9;#path-effect10"
       inkscape:original-d="m 7.2935165,26.910561 c 0.9705234,-0.547416 9.0313335,-7.567705 9.5570215,-7.042016 1.37456,1.37456 3.55988,3.045773 5.281512,4.27551 1.654556,1.181825 4.109449,2.685884 5.030012,4.52701"
       style="fill:#000000;fill-rule:nonzero;stroke:none"
       transform="translate(0,2.1166667)" />
    <path
       d="m 7.0765883,17.934664 c 0.00799,-0.01137 0.016372,-0.02331 0.025139,-0.03579 0.00444,-0.0063 0.012842,-0.01814 0.021564,-0.03047 0.00448,-0.0063 0.012914,-0.01811 0.02161,-0.03031 0.00452,-0.0063 0.012973,-0.01806 0.021657,-0.03017 0.00455,-0.0063 0.013023,-0.018 0.021703,-0.03001 0.00457,-0.0063 0.013068,-0.01794 0.021749,-0.02986 0.00459,-0.0062 0.013109,-0.01787 0.021795,-0.02972 0.0046,-0.0062 0.013147,-0.01779 0.021841,-0.02957 0.00461,-0.0062 0.013182,-0.01771 0.021888,-0.02942 0.00462,-0.0062 0.013216,-0.01763 0.021934,-0.02927 0.00463,-0.0061 0.013247,-0.01755 0.02198,-0.02913 0.00464,-0.0061 0.013278,-0.01746 0.022026,-0.02898 0.00464,-0.006 0.013308,-0.01738 0.022072,-0.02883 0.00465,-0.006 0.013337,-0.01729 0.022117,-0.02869 0.00465,-0.006 0.013365,-0.01721 0.022164,-0.02854 0.00466,-0.0059 0.013393,-0.01712 0.022209,-0.0284 0.00466,-0.0059 0.01342,-0.01703 0.022255,-0.02826 0.00466,-0.0059 0.013447,-0.01694 0.022301,-0.02811 0.00467,-0.0058 0.013473,-0.01686 0.022347,-0.02797 0.00467,-0.0058 0.0135,-0.01677 0.022393,-0.02783 0.00467,-0.0058 0.013525,-0.01669 0.022439,-0.02769 0.00467,-0.0057 0.013551,-0.0166 0.022485,-0.02755 0.00468,-0.0057 0.013577,-0.01651 0.022531,-0.02741 0.00468,-0.0056 0.013602,-0.01642 0.022577,-0.02727 0.00468,-0.0056 0.013627,-0.01634 0.022622,-0.02713 0.00468,-0.0056 0.013653,-0.01625 0.022669,-0.027 0.00468,-0.0055 0.013678,-0.01617 0.022714,-0.02686 0.00469,-0.0055 0.013703,-0.01608 0.022761,-0.02672 0.00469,-0.0055 0.013728,-0.016 0.022806,-0.02659 0.00469,-0.0054 0.013753,-0.01591 0.022853,-0.02645 0.00469,-0.0054 0.013777,-0.01583 0.022899,-0.02632 0.00469,-0.0053 0.013802,-0.01574 0.022945,-0.02618 0.0047,-0.0053 0.013827,-0.01566 0.022991,-0.02605 0.0047,-0.0053 0.013852,-0.01558 0.023038,-0.02592 0.0047,-0.0052 0.013877,-0.01549 0.023084,-0.02578 0.0047,-0.0052 0.013902,-0.01541 0.02313,-0.02565 0.0047,-0.0052 0.013927,-0.01533 0.023177,-0.02552 0.00471,-0.0051 0.013952,-0.01525 0.023223,-0.02539 0.00471,-0.0051 0.013977,-0.01517 0.02327,-0.02526 0.00471,-0.0051 0.014002,-0.01508 0.023317,-0.02513 0.00471,-0.005 0.014028,-0.015 0.023363,-0.025 0.00472,-0.005 0.014053,-0.01492 0.02341,-0.02487 0.00472,-0.005 0.014078,-0.01484 0.023457,-0.02474 0.00472,-0.0049 0.014104,-0.01477 0.023504,-0.02462 0.00472,-0.0049 0.014129,-0.01469 0.023551,-0.02449 0.00473,-0.0049 0.014155,-0.01461 0.023599,-0.02437 0.00473,-0.0048 0.014181,-0.01453 0.023646,-0.02424 0.00473,-0.0048 0.014207,-0.01445 0.023693,-0.02411 0.00474,-0.0048 0.014233,-0.01438 0.023741,-0.02399 0.00474,-0.0047 0.014259,-0.0143 0.023789,-0.02387 0.00474,-0.0047 0.014285,-0.01422 0.023837,-0.02374 0.00475,-0.0047 0.014312,-0.01415 0.023884,-0.02362 0.00475,-0.0047 0.014338,-0.01407 0.023932,-0.0235 0.00476,-0.0046 0.014365,-0.014 0.023981,-0.02338 0.00476,-0.0046 0.014392,-0.01392 0.024029,-0.02325 0.00476,-0.0046 0.014419,-0.01385 0.024078,-0.02313 -0.00147,0.0014 0.00196,-0.0019 0.0054,-0.0051 0.0062,-0.0059 0.012442,-0.01188 0.01873,-0.01788 0.00467,-0.0044 0.014373,-0.01361 0.024175,-0.0229 0.00468,-0.0044 0.014406,-0.01354 0.024224,-0.02278 0.00469,-0.0044 0.014437,-0.01347 0.024273,-0.02266 0.0047,-0.0043 0.014469,-0.0134 0.024322,-0.02254 0.00471,-0.0043 0.0145,-0.01333 0.024371,-0.02242 0.00472,-0.0043 0.014532,-0.01327 0.024421,-0.02231 0.00473,-0.0043 0.014563,-0.0132 0.02447,-0.02219 0.00474,-0.0043 0.014594,-0.01313 0.02452,-0.02208 0.00475,-0.0042 0.014625,-0.01307 0.02457,-0.02196 0.00476,-0.0042 0.014655,-0.013 0.024621,-0.02185 0.00476,-0.0042 0.014686,-0.01293 0.024671,-0.02173 0.00477,-0.0042 0.014717,-0.01287 0.024721,-0.02162 0.00478,-0.0041 0.014748,-0.0128 0.024772,-0.02151 0.00479,-0.0041 0.01478,-0.01273 0.024823,-0.0214 0.0048,-0.0041 0.014811,-0.01267 0.024874,-0.02128 0.00481,-0.0041 0.014842,-0.0126 0.024925,-0.02117 0.00482,-0.0041 0.014874,-0.01254 0.024977,-0.02106 0.00483,-0.004 0.014905,-0.01247 0.025028,-0.02095 0.00484,-0.004 0.014937,-0.01241 0.02508,-0.02084 0.00485,-0.004 0.014969,-0.01234 0.025133,-0.02073 0.00486,-0.004 0.015,-0.01228 0.025185,-0.02063 0.00487,-0.0039 0.015032,-0.01221 0.025237,-0.02052 0.00488,-0.0039 0.015065,-0.01215 0.02529,-0.02041 0.00489,-0.0039 0.015097,-0.01209 0.025343,-0.0203 0.0049,-0.0039 0.01513,-0.01203 0.025396,-0.0202 0.00491,-0.0039 0.015163,-0.01196 0.025449,-0.02009 0.00492,-0.0038 0.015196,-0.0119 0.025502,-0.01998 0.00494,-0.0038 0.015229,-0.01184 0.025556,-0.01988 0.00495,-0.0038 0.015262,-0.01178 0.02561,-0.01977 0.00496,-0.0038 0.015296,-0.01172 0.025664,-0.01967 0.00497,-0.0038 0.01533,-0.01166 0.025719,-0.01957 0.00498,-0.0038 0.015364,-0.01159 0.025773,-0.01946 0.005,-0.0037 0.015398,-0.01154 0.025828,-0.01936 0.00501,-0.0037 0.015432,-0.01148 0.025883,-0.01926 0.00502,-0.0037 0.015467,-0.01142 0.025938,-0.01915 0.00504,-0.0037 0.015502,-0.01136 0.025994,-0.01905 0.00505,-0.0037 0.015537,-0.0113 0.026049,-0.01895 0.00506,-0.0036 0.015572,-0.01124 0.026105,-0.01885 0.00508,-0.0036 0.015608,-0.01118 0.026161,-0.01875 0.00509,-0.0036 0.015644,-0.01112 0.026217,-0.01865 0.00511,-0.0036 0.01568,-0.01107 0.026274,-0.01855 0.00512,-0.0036 0.015716,-0.01101 0.026331,-0.01845 0.00514,-0.0036 0.015753,-0.01095 0.026388,-0.01835 0.00515,-0.0035 0.01579,-0.01089 0.026445,-0.01826 0.00517,-0.0035 0.015827,-0.01084 0.026503,-0.01816 0.00519,-0.0035 0.015864,-0.01078 0.02656,-0.01806 0.0052,-0.0035 0.015901,-0.01073 0.026618,-0.01796 0.00522,-0.0035 0.015939,-0.01067 0.026677,-0.01787 0.00524,-0.0035 0.015977,-0.01061 0.026735,-0.01777 0.00525,-0.0035 0.016015,-0.01056 0.026794,-0.01768 0.00527,-0.0034 0.016054,-0.01051 0.026852,-0.01758 0.00529,-0.0034 0.016092,-0.01045 0.026911,-0.01749 0.00531,-0.0034 0.016132,-0.0104 0.026971,-0.01739 0.00532,-0.0034 0.016171,-0.01034 0.02703,-0.0173 0.00534,-0.0034 0.01621,-0.01029 0.02709,-0.01721 0.00536,-0.0034 0.01625,-0.01023 0.02715,-0.01711 0.00538,-0.0034 0.01629,-0.01018 0.02721,-0.01702 0.0054,-0.0033 0.01633,-0.01013 0.027271,-0.01693 0.00542,-0.0033 0.016371,-0.01008 0.027332,-0.01683 0.00544,-0.0033 0.016411,-0.01003 0.027393,-0.01674 0.00546,-0.0033 0.016452,-0.01 0.027454,-0.01665 0.00548,-0.0033 0.016493,-0.0099 0.027515,-0.01656 0.0055,-0.0033 0.016535,-0.0099 0.027577,-0.01647 0.0055,-0.0033 0.01658,-0.0098 0.02764,-0.01638 0.0055,-0.0032 0.01662,-0.0098 0.0277,-0.01629 0.0056,-0.0032 0.01666,-0.0097 0.02776,-0.0162 0.0056,-0.0032 0.0167,-0.0097 0.02783,-0.01611 0.0056,-0.0032 0.01675,-0.0096 0.02789,-0.01602 0.0056,-0.0032 0.01679,-0.0096 0.02795,-0.01593 0.0057,-0.0032 0.01683,-0.0095 0.02801,-0.01584 0.0057,-0.0032 0.01688,-0.0095 0.02808,-0.01575 0.0057,-0.0032 0.01692,-0.0094 0.02814,-0.01566 0.0057,-0.0032 0.01696,-0.0094 0.0282,-0.01558 0.0057,-0.0031 0.01701,-0.0093 0.02827,-0.01549 0.0058,-0.0031 0.01705,-0.0093 0.02833,-0.0154 0.0058,-0.0031 0.0171,-0.0092 0.0284,-0.01531 0.0058,-0.0031 0.01714,-0.0092 0.02846,-0.01523 0.0058,-0.0031 0.01719,-0.0091 0.02853,-0.01514 0.0059,-0.0031 0.01723,-0.0091 0.02859,-0.01506 0.0059,-0.0031 0.01728,-0.009 0.02866,-0.01497 0.0059,-0.0031 0.01732,-0.009 0.02872,-0.01489 0.0059,-0.003 0.01737,-0.0089 0.02879,-0.0148 0.006,-0.003 0.01741,-0.0089 0.02885,-0.01472 0.006,-0.003 0.01746,-0.0088 0.02892,-0.01463 0.006,-0.003 0.01751,-0.0088 0.02899,-0.01455 0.0061,-0.003 0.01755,-0.0087 0.02905,-0.01446 0.0061,-0.003 0.0176,-0.0087 0.02912,-0.01438 0.0061,-0.003 0.01765,-0.0086 0.02919,-0.0143 0.0061,-0.003 0.0177,-0.0086 0.02925,-0.01421 0.0062,-0.003 0.01774,-0.0085 0.02932,-0.01413 0.0062,-0.003 0.01779,-0.0085 0.02939,-0.01405 0.0062,-0.0029 0.01784,-0.0085 0.02946,-0.01397 0.0062,-0.0029 0.01789,-0.0084 0.02952,-0.01388 0.0063,-0.0029 0.01794,-0.0084 0.02959,-0.0138 0.0063,-0.0029 0.01799,-0.0083 0.02966,-0.01372 0.0063,-0.0029 0.01803,-0.0083 0.02973,-0.01364 0.0064,-0.0029 0.01808,-0.0082 0.02979,-0.01355 0.0064,-0.0029 0.01813,-0.0082 0.02986,-0.01348 0.0064,-0.0029 0.01818,-0.0081 0.02993,-0.01339 0.0065,-0.0029 0.01823,-0.0081 0.03,-0.01331 0.0065,-0.0028 0.01828,-0.008 0.03007,-0.01323 0.0065,-0.0028 0.01833,-0.008 0.03014,-0.01315 0.0065,-0.0028 0.01838,-0.008 0.03021,-0.01307 0.0066,-0.0028 0.01843,-0.0079 0.03028,-0.01299 0.0066,-0.0028 0.01848,-0.0079 0.03035,-0.01291 0.0066,-0.0028 0.01853,-0.0078 0.03042,-0.01283 0.0067,-0.0028 0.01858,-0.0078 0.03048,-0.01276 0.0067,-0.0028 0.01864,-0.0077 0.03056,-0.01267 0.0067,-0.0028 0.01869,-0.0077 0.03062,-0.0126 0.0068,-0.0028 0.01874,-0.0076 0.0307,-0.01252 0.0068,-0.0027 0.01879,-0.0076 0.03077,-0.01244 0.0068,-0.0027 0.01884,-0.0076 0.03083,-0.01236 0.0069,-0.0027 0.01889,-0.0075 0.03091,-0.01228 0.0069,-0.0027 0.01895,-0.0075 0.03098,-0.01221 0.0069,-0.0027 0.019,-0.0074 0.03105,-0.01213 0.007,-0.0027 0.01905,-0.0074 0.03112,-0.01205 0.007,-0.0027 0.0191,-0.0073 0.03119,-0.01197 0.007,-0.0027 0.01916,-0.0073 0.03126,-0.0119 0.0071,-0.0027 0.01921,-0.0072 0.03133,-0.01182 0.0071,-0.0026 0.01926,-0.0072 0.0314,-0.01174 0.0071,-0.0026 0.01932,-0.0072 0.03147,-0.01167 0.0072,-0.0026 0.01937,-0.0071 0.03155,-0.01159 0.0072,-0.0026 0.01942,-0.0071 0.03162,-0.01151 0.0072,-0.0026 0.01948,-0.007 0.03169,-0.01144 0.0073,-0.0026 0.01953,-0.007 0.03176,-0.01136 0.0073,-0.0026 0.01959,-0.0069 0.03183,-0.01129 0.0295,-0.01042 0.06148,-0.02156 0.09345,-0.03256 0.03222,-0.01108 0.06442,-0.022 0.0966,-0.03277 0.03244,-0.01086 0.06486,-0.02155 0.09725,-0.0321 0.03267,-0.01063 0.0653,-0.02111 0.0979,-0.03143 0.03289,-0.01041 0.06574,-0.02067 0.09855,-0.03077 0.03311,-0.01019 0.06618,-0.02023 0.09921,-0.03012 0.04446,-0.01331 0.0889,-0.02635 0.133296,-0.03914 0.04486,-0.01292 0.08969,-0.02559 0.13446,-0.03799 0.0566,-0.01568 0.113177,-0.03098 0.169715,-0.04589 0.08017,-0.02115 0.160407,-0.04157 0.240661,-0.0613 0.364256,-0.08953 0.734157,-0.166018 1.108458,-0.23147 0.04946,-0.0086 0.09881,-0.01707 0.148031,-0.02527 0.124926,-0.0211 0.224313,-0.04723 0.274422,-0.06074 0.09411,-0.02561 0.173601,-0.05087 0.233622,-0.07061 0.08303,-0.02737 0.159256,-0.05435 0.226736,-0.07888 0.09957,-0.03623 0.194472,-0.07241 0.282851,-0.106755 0.125334,-0.04874 0.247136,-0.09758 0.363306,-0.144729 0.164813,-0.0669 0.330256,-0.135369 0.483539,-0.19861 0.07985,-0.03293 0.153875,-0.06342 0.227219,-0.09316 0.04656,-0.01886 0.08613,-0.03472 0.123052,-0.04907 0.0255,-0.0099 0.03859,-0.0146 0.0377,-0.01429 0.0028,-9.35e-4 -0.02543,0.01011 -0.09174,0.02765 -0.0071,0.0019 -0.01422,0.0037 -0.02134,0.0055 0.0058,-0.0015 -0.09111,0.03167 -0.293272,0.04783 -0.273992,0.0219 -0.556609,0.02758 -0.814423,-0.06773 -0.257813,-0.09531 -0.46894,-0.283194 -0.663331,-0.477522 0.101513,0.101481 0.200989,0.189998 0.291771,0.265884 0.105979,0.08854 0.208691,0.16705 0.303423,0.236019 0.114315,0.08319 0.225122,0.158382 0.328077,0.225719 0.126943,0.08299 0.25038,0.159537 0.365237,0.229084 0.147009,0.08898 0.291881,0.173674 0.424101,0.250512 0.241931,0.140564 0.44178,0.255144 0.646527,0.378655 0.12672,0.07645 0.241828,0.148287 0.349282,0.219054 0.09016,0.05939 0.170623,0.115223 0.243623,0.169208 0.06661,0.04928 0.123268,0.09428 0.172101,0.13613 0.501424,0.429801 0.990121,0.852894 1.469072,1.272824 0.423816,0.371607 0.835569,0.736846 1.238009,1.098978 0.362523,0.326232 0.713399,0.646257 1.055191,0.963164 0.310056,0.287502 0.608691,0.568773 0.898381,0.846852 0.26,0.249601 0.508909,0.492894 0.749115,0.732832 0.0057,0.0057 0.01154,0.01153 0.01725,0.01724 a 1.8862543,1.8862543 90 0 0 2.666856,-2.668278 c -0.0057,-0.0057 -0.01159,-0.01159 -0.01764,-0.01763 C 25.702487,16.496206 25.43557,16.235363 25.159792,15.970615 24.85249,15.67563 24.5379,15.37937 24.213892,15.07893 23.856687,14.747733 23.491867,14.415017 23.117163,14.077823 22.701176,13.703502 22.277208,13.327448 21.842774,12.94653 21.351782,12.516044 20.85239,12.083708 20.341617,11.645892 20.213172,11.535816 20.08437,11.43473 19.957885,11.341159 c -0.13853,-0.102448 -0.276487,-0.197523 -0.411848,-0.286695 -0.160894,-0.105962 -0.320326,-0.205036 -0.475696,-0.298775 -0.239758,-0.144632 -0.481913,-0.283607 -0.699905,-0.410262 -0.127886,-0.07432 -0.248927,-0.145187 -0.36571,-0.215876 -0.09076,-0.05496 -0.175121,-0.107494 -0.254323,-0.1592748 -0.06431,-0.042062 -0.121413,-0.08115 -0.172669,-0.118449 -0.04258,-0.031003 -0.07675,-0.057606 -0.104392,-0.080701 -0.02378,-0.019874 -0.03733,-0.03269 -0.04374,-0.039101 -0.19589,-0.1958258 -0.408995,-0.3848434 -0.669054,-0.4801838 -0.260059,-0.09534 -0.544794,-0.089149 -0.820898,-0.067081 -0.21398,0.017103 -0.322521,0.053157 -0.328357,0.054628 -0.0071,0.0018 -0.01424,0.00363 -0.02134,0.00551 -0.09048,0.023938 -0.16534,0.05026 -0.179975,0.055307 -0.07133,0.024883 -0.128782,0.047004 -0.165323,0.061155 -0.06411,0.024906 -0.123325,0.048723 -0.175975,0.070053 -0.08549,0.034668 -0.169007,0.069084 -0.248569,0.1018931 -0.159427,0.065776 -0.311767,0.1288254 -0.463761,0.190518 -0.10656,0.043246 -0.209926,0.084646 -0.311544,0.1241644 -0.07231,0.028101 -0.140203,0.053893 -0.205344,0.077598 -0.04504,0.016371 -0.08322,0.029736 -0.11706,0.040892 -0.02626,0.00864 -0.04049,0.012693 -0.0405,0.012697 -0.0018,4.855e-4 0.02517,-0.00795 0.08788,-0.018544 -0.05476,0.00912 -0.113981,0.019229 -0.173481,0.029633 -0.449827,0.078658 -0.903862,0.172226 -1.359142,0.284132 -0.100399,0.02468 -0.201219,0.05034 -0.302419,0.07703 -0.07137,0.01883 -0.143019,0.03819 -0.21493,0.05812 -0.05689,0.01577 -0.113989,0.03189 -0.171288,0.0484 -0.0567,0.01633 -0.113603,0.03304 -0.170688,0.05012 -0.0424,0.01269 -0.08494,0.0256 -0.127618,0.03874 -0.04229,0.01302 -0.08472,0.02627 -0.12727,0.03974 -0.04218,0.01336 -0.08449,0.02694 -0.126916,0.04075 -0.04207,0.0137 -0.08426,0.02762 -0.126558,0.04177 -0.04195,0.01404 -0.08402,0.02831 -0.126193,0.04281 -0.04184,0.01439 -0.08378,0.029 -0.125822,0.04385 -0.01475,0.0052 -0.02703,0.0096 -0.03935,0.01396 -0.01725,0.0062 -0.02951,0.01056 -0.04181,0.01496 -0.01724,0.0062 -0.02949,0.01064 -0.04177,0.01508 -0.01724,0.0063 -0.02947,0.01073 -0.04172,0.0152 -0.01724,0.0063 -0.02944,0.01082 -0.04168,0.01532 -0.01723,0.0064 -0.02942,0.01091 -0.04164,0.01544 -0.01723,0.0064 -0.0294,0.01099 -0.04159,0.01556 -0.01722,0.0065 -0.02937,0.01108 -0.04155,0.01568 -0.01722,0.0066 -0.02935,0.01117 -0.04151,0.0158 -0.01722,0.0066 -0.02933,0.01126 -0.04146,0.01592 -0.01721,0.0067 -0.0293,0.01135 -0.04142,0.01604 -0.0172,0.0067 -0.02928,0.01144 -0.04137,0.01617 -0.0172,0.0068 -0.02925,0.01153 -0.04133,0.01629 -0.01719,0.0068 -0.02923,0.01162 -0.04128,0.01641 -0.01719,0.0069 -0.0292,0.01171 -0.041238,0.01653 -0.017182,0.0069 -0.029177,0.0118 -0.041193,0.01666 -0.017176,0.007 -0.029152,0.01189 -0.041147,0.01678 -0.017169,0.0071 -0.029126,0.01198 -0.041101,0.01691 -0.017162,0.0071 -0.029099,0.01207 -0.041054,0.01703 -0.017155,0.0072 -0.029073,0.01216 -0.041007,0.01716 -0.017148,0.0072 -0.029046,0.01226 -0.04096,0.01729 -0.017141,0.0073 -0.029019,0.01235 -0.040913,0.01741 -0.017133,0.0073 -0.028992,0.01244 -0.040865,0.01754 -0.017124,0.0074 -0.028964,0.01253 -0.040817,0.01767 -0.017116,0.0075 -0.028936,0.01263 -0.040769,0.0178 -0.017108,0.0075 -0.028908,0.01272 -0.04072,0.01792 -0.017099,0.0076 -0.028879,0.01281 -0.040672,0.01805 -0.017089,0.0076 -0.02885,0.01291 -0.040622,0.01818 -0.01708,0.0077 -0.028821,0.013 -0.040573,0.01831 -0.017071,0.0078 -0.028792,0.0131 -0.040523,0.01844 -0.017061,0.0078 -0.028762,0.01319 -0.040473,0.01857 -0.01705,0.0079 -0.028732,0.01329 -0.040422,0.0187 -0.01704,0.0079 -0.028702,0.01339 -0.040372,0.01883 -0.017029,0.008 -0.028671,0.01348 -0.04032,0.01896 -0.017018,0.0081 -0.02864,0.01358 -0.040269,0.0191 -0.017006,0.0081 -0.028609,0.01367 -0.040217,0.01923 -0.016995,0.0082 -0.028577,0.01377 -0.040165,0.01936 -0.016983,0.0082 -0.028545,0.01387 -0.040113,0.01949 -0.016971,0.0083 -0.028513,0.01397 -0.04006,0.01963 -0.016958,0.0084 -0.02848,0.01406 -0.040007,0.01976 -0.016946,0.0084 -0.028448,0.01416 -0.039954,0.01989 -0.016932,0.0085 -0.028415,0.01426 -0.0399,0.02003 -0.016919,0.0086 -0.028381,0.01436 -0.039845,0.02016 -0.016905,0.0086 -0.028347,0.01446 -0.039791,0.0203 -0.016891,0.0087 -0.028313,0.01456 -0.039736,0.02043 -0.016877,0.0087 -0.028278,0.01465 -0.039681,0.02057 -0.016862,0.0088 -0.028244,0.01475 -0.039625,0.02071 -0.016847,0.0089 -0.028208,0.01486 -0.039569,0.02084 -0.016832,0.0089 -0.028173,0.01496 -0.039513,0.02098 -0.016817,0.009 -0.028137,0.01506 -0.039456,0.02112 -0.016801,0.0091 -0.028101,0.01516 -0.039399,0.02125 -0.016784,0.0091 -0.028064,0.01526 -0.039342,0.02139 -0.016768,0.0092 -0.028028,0.01536 -0.039284,0.02153 -0.016751,0.0092 -0.02799,0.01546 -0.039226,0.02167 -0.016734,0.0093 -0.027953,0.01556 -0.039167,0.02181 -0.016717,0.0094 -0.027915,0.01566 -0.039109,0.02195 -0.016699,0.0094 -0.027877,0.01576 -0.03905,0.02209 -0.016681,0.0095 -0.027838,0.01586 -0.03899,0.02223 -0.016663,0.0096 -0.0278,0.01597 -0.03893,0.02236 -0.016644,0.0096 -0.02776,0.01607 -0.03887,0.02251 -0.016625,0.0097 -0.02772,0.01617 -0.038809,0.02264 -0.016606,0.0098 -0.027681,0.01628 -0.038748,0.02279 -0.016586,0.0098 -0.02764,0.01638 -0.038686,0.02293 -0.016566,0.0099 -0.027599,0.01648 -0.038624,0.02307 -0.016546,0.01 -0.027559,0.01659 -0.038562,0.02321 -0.016525,0.01002 -0.027517,0.01669 -0.038499,0.02335 -0.016504,0.01008 -0.027475,0.01679 -0.038436,0.0235 -0.016483,0.01015 -0.027433,0.0169 -0.038373,0.02364 -0.016461,0.01021 -0.027391,0.017 -0.038309,0.02378 -0.016439,0.01028 -0.027348,0.0171 -0.038245,0.02392 -0.016417,0.01034 -0.027305,0.01721 -0.03818,0.02407 -0.016394,0.01041 -0.027261,0.01731 -0.038115,0.02421 -0.016371,0.01047 -0.027217,0.01742 -0.038049,0.02435 -0.016348,0.01054 -0.027173,0.01752 -0.037984,0.0245 -0.016324,0.0106 -0.027129,0.01763 -0.037918,0.02464 -0.0163,0.01067 -0.027084,0.01773 -0.037851,0.02479 -0.016276,0.01073 -0.027038,0.01784 -0.037784,0.02493 -0.016251,0.0108 -0.026992,0.01794 -0.037717,0.02508 -0.016226,0.01086 -0.026946,0.01805 -0.037649,0.02522 -0.016201,0.01093 -0.0269,0.01816 -0.037581,0.02537 -0.016175,0.01099 -0.026853,0.01826 -0.037512,0.02552 -0.016149,0.01106 -0.026806,0.01837 -0.037443,0.02566 -0.016123,0.01113 -0.026759,0.01847 -0.037375,0.02581 -0.016097,0.01119 -0.026711,0.01858 -0.037304,0.02595 -0.01607,0.01126 -0.026663,0.01869 -0.037234,0.0261 -0.016043,0.01132 -0.026615,0.01879 -0.037164,0.02625 -0.016015,0.01139 -0.026566,0.0189 -0.037093,0.02639 -0.015987,0.01145 -0.026517,0.01901 -0.037022,0.02654 -0.015959,0.01152 -0.026467,0.01911 -0.03695,0.02669 -0.015931,0.01159 -0.026417,0.01922 -0.036878,0.02684 -0.015902,0.01165 -0.026367,0.01933 -0.036805,0.02698 -0.015873,0.01171 -0.026316,0.01943 -0.036732,0.02713 -0.015843,0.01178 -0.026266,0.01954 -0.03666,0.02728 -0.015813,0.01185 -0.026214,0.01965 -0.036586,0.02743 -0.015784,0.01191 -0.026163,0.01976 -0.036512,0.02758 -0.015753,0.01198 -0.026111,0.01986 -0.036437,0.02773 -0.015723,0.01204 -0.026059,0.01997 -0.036362,0.02787 -0.015692,0.01211 -0.026007,0.02008 -0.036288,0.02802 -0.015661,0.01218 -0.025954,0.02019 -0.036212,0.02817 -0.015629,0.01224 -0.025901,0.02029 -0.036136,0.02832 -0.015597,0.01231 -0.025847,0.0204 -0.03606,0.02847 -0.015565,0.01237 -0.025793,0.02051 -0.035983,0.02862 -0.015533,0.01244 -0.02574,0.02062 -0.035906,0.02877 -0.0155,0.0125 -0.025685,0.02073 -0.035829,0.02892 -0.015468,0.01257 -0.025631,0.02084 -0.035751,0.02907 -0.015435,0.01263 -0.025576,0.02095 -0.035673,0.02922 -0.015401,0.0127 -0.025521,0.02105 -0.035594,0.02937 -0.015368,0.01276 -0.025465,0.02116 -0.035515,0.02952 -0.015334,0.01283 -0.02541,0.02127 -0.035436,0.02967 -0.0153,0.0129 -0.025354,0.02138 -0.035356,0.02982 -0.015266,0.01296 -0.025298,0.02149 -0.035277,0.02997 -0.015232,0.01303 -0.025241,0.0216 -0.035196,0.03012 -0.015197,0.01309 -0.025185,0.02171 -0.035116,0.03027 -0.015162,0.01316 -0.025128,0.02182 -0.035035,0.03042 -0.015128,0.01322 -0.025071,0.02193 -0.034953,0.03058 -0.015093,0.01329 -0.025014,0.02204 -0.034871,0.03073 -0.015057,0.01336 -0.024957,0.02215 -0.034789,0.03088 -0.015022,0.01342 -0.024899,0.02226 -0.034707,0.03103 -0.014987,0.01349 -0.024842,0.02237 -0.034625,0.03118 -0.014952,0.01355 -0.024785,0.02248 -0.034541,0.03133 -0.014916,0.01362 -0.024727,0.02259 -0.034458,0.03148 -0.014881,0.01369 -0.02467,0.0227 -0.034374,0.03163 -0.014846,0.01375 -0.024612,0.02281 -0.03429,0.03179 -0.014811,0.01382 -0.024555,0.02292 -0.034206,0.03194 -0.014776,0.01389 -0.024498,0.02304 -0.034121,0.03209 -0.014741,0.01395 -0.024441,0.02315 -0.034036,0.03224 -0.01121,0.01068 -0.017454,0.01664 -0.023652,0.02256 -0.00343,0.0033 -0.00687,0.0066 -0.010299,0.0098 -0.014561,0.01398 -0.024216,0.02327 -0.033865,0.03255 -0.014521,0.01405 -0.024153,0.02338 -0.033779,0.0327 -0.014481,0.01411 -0.024091,0.02348 -0.033693,0.03285 -0.014441,0.01417 -0.024028,0.02359 -0.033606,0.033 -0.0144,0.01423 -0.023964,0.0237 -0.033519,0.03315 -0.014359,0.0143 -0.023901,0.02381 -0.033432,0.03331 -0.014318,0.01436 -0.023837,0.02391 -0.033345,0.03346 -0.014276,0.01442 -0.023773,0.02402 -0.033257,0.03361 -0.014235,0.01448 -0.023709,0.02413 -0.033169,0.03377 -0.014193,0.01454 -0.023644,0.02424 -0.033081,0.03392 -0.014151,0.0146 -0.023579,0.02435 -0.032992,0.03407 -0.014109,0.01466 -0.023515,0.02445 -0.032903,0.03422 -0.014066,0.01473 -0.02345,0.02456 -0.032815,0.03437 -0.014023,0.01479 -0.023384,0.02467 -0.032725,0.03453 -0.013981,0.01485 -0.023318,0.02477 -0.032635,0.03468 -0.013938,0.01491 -0.023253,0.02488 -0.032546,0.03483 -0.013895,0.01497 -0.023187,0.02499 -0.032455,0.03499 -0.013851,0.01503 -0.023121,0.0251 -0.032365,0.03514 -0.013808,0.01509 -0.023054,0.0252 -0.032275,0.03529 -0.013764,0.01515 -0.022988,0.02531 -0.032184,0.03544 -0.01372,0.01521 -0.022921,0.02542 -0.032092,0.0356 -0.013677,0.01527 -0.022854,0.02553 -0.032001,0.03575 -0.013633,0.01533 -0.022787,0.02563 -0.03191,0.0359 -0.013589,0.01539 -0.02272,0.02574 -0.031818,0.03605 -0.013545,0.01545 -0.022653,0.02585 -0.031726,0.03621 -0.0135,0.01551 -0.022586,0.02596 -0.031634,0.03636 -0.013456,0.01557 -0.022518,0.02606 -0.031541,0.03651 -0.013412,0.01563 -0.022451,0.02617 -0.031448,0.03667 -0.013367,0.01569 -0.022383,0.02628 -0.031356,0.03682 -0.013323,0.01575 -0.022315,0.02639 -0.031263,0.03697 -0.013278,0.01581 -0.022248,0.0265 -0.031169,0.03713 -0.013234,0.01587 -0.02218,0.0266 -0.031076,0.03728 -0.013189,0.01593 -0.022112,0.02671 -0.030982,0.03743 -0.013145,0.01599 -0.022044,0.02682 -0.030889,0.03759 -0.0131,0.01605 -0.021977,0.02693 -0.030794,0.03774 -0.013056,0.01611 -0.021909,0.02704 -0.0307,0.03789 -0.013012,0.01616 -0.021842,0.02715 -0.030606,0.03805 -0.012968,0.01623 -0.021774,0.02726 -0.030511,0.0382 -0.012924,0.01629 -0.021707,0.02737 -0.030417,0.03835 -0.012881,0.01635 -0.02164,0.02748 -0.030322,0.03851 -0.012838,0.01641 -0.021574,0.02759 -0.030227,0.03866 -0.012795,0.01647 -0.021507,0.0277 -0.030132,0.03881 -0.012752,0.01653 -0.021441,0.02781 -0.030036,0.03897 -0.012711,0.0166 -0.021376,0.02792 -0.029941,0.03912 -0.01267,0.01666 -0.021312,0.02804 -0.029845,0.03927 -0.01263,0.01673 -0.021248,0.02815 -0.02975,0.03943 -0.012591,0.0168 -0.021185,0.02827 -0.029654,0.03958 -0.012553,0.01687 -0.021124,0.02839 -0.029558,0.03974 -0.012517,0.01694 -0.021065,0.02852 -0.029462,0.03989 -0.012484,0.01701 -0.021008,0.02864 -0.029365,0.04004 -0.012453,0.01709 -0.020954,0.02877 -0.029269,0.0402 -0.012427,0.01718 -0.020904,0.02891 -0.029172,0.04035 -0.012406,0.01727 -0.020859,0.02905 -0.029076,0.0405 -0.012393,0.01738 -0.020823,0.02921 -0.028979,0.04066 -0.012393,0.0175 -0.0208,0.02939 -0.028882,0.04081 -0.012414,0.01766 -0.020798,0.02959 -0.028785,0.04097 a 1.8862543,1.8862543 90 0 0 3.0871516,2.168252 z"
       id="path-1-8"
       inkscape:path-effect="#path-effect11;#path-effect12"
       inkscape:original-d="m 5.5330125,16.850538 c 2.1421081,-3.060815 5.0683985,-4.449574 8.5510195,-5.030011 0.392956,-0.06549 1.979458,-0.787048 2.012004,-0.754502 0.656316,0.656316 2.12013,1.242396 3.018007,2.012005 2.083174,1.785577 4.029791,3.526789 5.533013,5.030011"
       style="fill:#000000;fill-rule:nonzero;stroke:none"
       transform="translate(0,2.1166667)" />
    <path
       d="M 6.2063847,8.3774869 C 6.6657213,8.2720836 7.2561057,8.127466 7.93453,7.9365912 8.4443857,7.7931191 9.0426435,7.6126928 9.6998828,7.3894252 10.203025,7.218482 10.767368,7.013412 11.370944,6.7697807 c 0.494639,-0.1996833 1.03477,-0.4329642 1.601701,-0.7037308 0.460074,-0.2197564 0.953146,-0.4715111 1.463561,-0.7584528 0.111909,-0.062916 0.227541,-0.1291487 0.346352,-0.1987194 0.0717,-0.041982 0.146568,-0.086361 0.22422,-0.13307 0.08626,-0.051885 0.180576,-0.1094329 0.281427,-0.1722237 0.07298,-0.04544 0.150692,-0.094439 0.232402,-0.1468144 0.05872,-0.03764 0.120331,-0.07755 0.184464,-0.1196376 0.05883,-0.038605 0.119953,-0.079158 0.183112,-0.1216039 0.04408,-0.029624 0.0896,-0.060471 0.136416,-0.092507 0.04403,-0.030125 0.08926,-0.061344 0.135605,-0.093635 0.04391,-0.0306 0.08887,-0.062196 0.134772,-0.094772 0.04376,-0.031058 0.08843,-0.063035 0.133916,-0.095919 0.0153,-0.011096 0.02862,-0.020753 0.04219,-0.030595 0.01755,-0.012795 0.03083,-0.022486 0.04434,-0.032344 0.01755,-0.012873 0.03079,-0.022596 0.04424,-0.032473 0.01754,-0.012949 0.03074,-0.022705 0.04414,-0.032602 0.01753,-0.013023 0.0307,-0.022812 0.04404,-0.032732 0.01752,-0.013097 0.03065,-0.022919 0.04394,-0.032863 0.0175,-0.013169 0.0306,-0.023025 0.04384,-0.032993 0.01749,-0.013241 0.03054,-0.02313 0.04373,-0.033124 0.01747,-0.013312 0.03049,-0.023234 0.04363,-0.033255 0.01745,-0.013384 0.03043,-0.023339 0.04352,-0.033387 0.01743,-0.013454 0.03037,-0.023443 0.04342,-0.033519 0.01741,-0.013525 0.03031,-0.023547 0.04331,-0.033652 0.01739,-0.013596 0.03025,-0.023651 0.0432,-0.033785 0.01737,-0.013666 0.03018,-0.023755 0.04309,-0.033917 0.01735,-0.013737 0.03012,-0.023859 0.04298,-0.034051 0.01732,-0.013807 0.03006,-0.023963 0.04287,-0.034185 0.0173,-0.013878 0.02999,-0.024067 0.04276,-0.034319 0.01727,-0.013948 0.02992,-0.024171 0.04265,-0.034455 0.01725,-0.014019 0.02986,-0.024275 0.04254,-0.034589 0.01722,-0.01409 0.02979,-0.02438 0.04242,-0.034725 0.01719,-0.014161 0.02972,-0.024485 0.04231,-0.034861 0.01717,-0.014232 0.02965,-0.02459 0.04219,-0.034997 0.01714,-0.014304 0.02958,-0.024695 0.04207,-0.035134 0.01711,-0.014375 0.0295,-0.0248 0.04195,-0.035271 0.01708,-0.014447 0.02943,-0.024906 0.04184,-0.035408 0.01705,-0.014519 0.02936,-0.025012 0.04172,-0.035546 0.01702,-0.014592 0.02928,-0.025118 0.0416,-0.035684 0.01699,-0.014664 0.02921,-0.025225 0.04147,-0.035823 0.01695,-0.014737 0.02913,-0.025331 0.04135,-0.035962 0.01692,-0.01481 0.02906,-0.025438 0.04123,-0.036101 0.01689,-0.014883 0.02898,-0.025546 0.0411,-0.036241 0.01686,-0.014956 0.0289,-0.025653 0.04098,-0.036381 0.01682,-0.01503 0.02882,-0.025761 0.04085,-0.036521 0.01679,-0.015104 0.02874,-0.025869 0.04072,-0.036662 0.01675,-0.015179 0.02866,-0.025978 0.0406,-0.036803 0.01672,-0.015253 0.02858,-0.026087 0.04047,-0.036945 0.01668,-0.015328 0.0285,-0.026196 0.04034,-0.037087 0.01665,-0.015403 0.02841,-0.026305 0.04021,-0.037229 0.01661,-0.015478 0.02833,-0.026415 0.04007,-0.037372 0.01657,-0.015554 0.02824,-0.026524 0.03994,-0.037515 0.01653,-0.01563 0.02816,-0.026635 0.03981,-0.037659 0.01649,-0.015706 0.02807,-0.026746 0.03967,-0.037803 0.01645,-0.015783 0.02799,-0.026857 0.03953,-0.037947 0.01641,-0.01586 0.0279,-0.026968 0.0394,-0.038091 0.01637,-0.015937 0.02781,-0.02708 0.03926,-0.038236 0.01633,-0.016014 0.02772,-0.027192 0.03912,-0.038382 0.01629,-0.016092 0.02763,-0.027304 0.03898,-0.038527 0.01625,-0.01617 0.02754,-0.027416 0.03884,-0.038674 l -0.504571,0.3557365 c 0.0014,-6.594e-4 0.0028,-0.00132 0.0041,-0.00198 l -0.113814,0.049799 c 0.0015,-5.833e-4 0.0029,-0.00117 0.0044,-0.00175 l -0.109218,0.039707 c 0.0015,-5.076e-4 0.0031,-0.00102 0.0046,-0.00152 l -0.103654,0.030844 c 0.0016,-4.325e-4 0.0032,-8.651e-4 0.0049,-0.0013 l -0.09752,0.023243 c 0.0017,-3.58e-4 0.0034,-7.161e-4 0.0051,-0.00107 l -0.09114,0.016851 c 0.0018,-2.84e-4 0.0036,-5.681e-4 0.0053,-8.521e-4 l -0.08476,0.011562 c 0.0019,-2.106e-4 0.0037,-4.212e-4 0.0056,-6.318e-4 l -0.07855,0.00725 c 0.0019,-1.378e-4 0.0039,-2.755e-4 0.0058,-4.132e-4 l -0.07263,0.00377 c 0.002,-6.54e-5 0.004,-1.308e-4 0.006,-1.962e-4 l -0.06707,9.88e-4 c 0.0021,6.4e-6 0.0042,1.28e-5 0.0063,1.91e-5 l -0.06189,-0.0012 c 0.0022,7.76e-5 0.0043,1.551e-4 0.0065,2.326e-4 l -0.05711,-0.00292 c 0.0022,1.482e-4 0.0045,2.964e-4 0.0067,4.445e-4 l -0.05273,-0.00424 c 0.0023,2.184e-4 0.0046,4.366e-4 0.0069,6.547e-4 l -0.04872,-0.00524 c 0.0024,2.879e-4 0.0048,5.756e-4 0.0071,8.631e-4 l -0.04506,-0.00599 c 0.0025,3.57e-4 0.0049,7.136e-4 0.0074,0.00107 l -0.04172,-0.00654 c 0.0025,4.255e-4 0.0051,8.505e-4 0.0076,0.00128 l -0.03869,-0.00693 c 0.0026,4.933e-4 0.0052,9.862e-4 0.0078,0.00148 l -0.03593,-0.00718 c 0.0027,5.607e-4 0.0053,0.00112 0.008,0.00168 l -0.01713,-0.00368 c -0.0259,-0.00569 -0.0478,-0.011262 -0.06493,-0.015918 -0.06059,-0.01655 -0.0988,-0.031757 -0.103397,-0.033581 -0.01645,-0.00656 -0.01309,-0.00611 0.02007,0.010747 0.04399,0.02245 0.09937,0.053306 0.171547,0.095926 0.08111,0.047979 0.166766,0.1012803 0.258511,0.1601367 0.111999,0.071896 0.225925,0.1475936 0.342775,0.2269253 0.153315,0.1041267 0.307386,0.2116576 0.462987,0.3221734 0.194655,0.1382885 0.389176,0.2794945 0.583993,0.4230394 0.211949,0.1561978 0.423002,0.3142588 0.633073,0.4737295 0.108433,0.082315 0.2164,0.1649001 0.323888,0.2477129 0.104358,0.080159 0.207336,0.1608503 0.312203,0.2439431 0.186893,0.1481109 0.37399,0.2989733 0.56239,0.4521803 0.258102,0.2099553 0.515514,0.4219388 0.772289,0.6351071 0.358429,0.2976043 0.714837,0.5969434 1.06911,0.8973052 0.4409,0.3738463 0.878134,0.7490014 1.311631,1.1255424 0.420235,0.3650561 0.836081,0.7306518 1.247402,1.097645 0.359898,0.3211492 0.714971,0.6421288 1.065257,0.9644346 0.275654,0.253672 0.546723,0.506659 0.813306,0.760478 0.245975,0.234256 0.485642,0.466761 0.719205,0.700046 0.196046,0.195916 0.38347,0.387922 0.562899,0.579835 0.111645,0.1195 0.216088,0.234593 0.314177,0.347829 0.02013,0.02325 0.03994,0.04638 0.0592,0.06913 0.0054,0.0065 0.01328,0.01576 0.02108,0.02501 0.0027,0.0033 0.01042,0.01249 0.01807,0.02165 0.0024,0.0029 0.01,0.01204 0.01745,0.02108 0.0021,0.0026 0.0095,0.01156 0.01681,0.0205 0.0018,0.0022 0.009,0.01107 0.01616,0.0199 0.0014,0.0018 0.0085,0.01056 0.0155,0.01927 0.0011,0.0014 0.008,0.01002 0.01482,0.01863 -3.77e-4,-4.36e-4 0.0053,0.0068 0.01097,0.01394 0.0024,0.003 0.0079,0.01007 0.01331,0.01707 0.0021,0.0027 0.0073,0.0095 0.01259,0.01633 0.0017,0.0023 0.0068,0.0089 0.01185,0.01556 0.0014,0.0019 0.0063,0.0083 0.01109,0.01475 0.0011,0.0014 0.0057,0.0077 0.01032,0.01391 6.96e-4,9.51e-4 0.0051,0.007 0.0095,0.01302 3.29e-4,4.57e-4 0.0045,0.0063 0.0087,0.0121 -4.9e-5,-6.8e-5 0.0039,0.0055 0.0079,0.01112 -4.37e-4,-6.28e-4 0.0033,0.0048 0.007,0.01009 -8.4e-4,-0.0012 0.0027,0.0039 0.0062,0.009 -0.0013,-0.0019 0.002,0.003 0.0053,0.0078 -0.0017,-0.0025 0.0014,0.0021 0.0044,0.0066 -0.0021,-0.0033 6.65e-4,0.001 0.0034,0.0053 -0.0026,-0.0041 -4.2e-5,-6.6e-5 0.0025,0.0039 -0.003,-0.0049 -7.66e-4,-0.0012 0.0015,0.0024 -0.0035,-0.0059 -0.0015,-0.0025 4.85e-4,8.06e-4 -0.004,-0.0069 -0.0023,-0.0039 -5.39e-4,-9.2e-4 -0.0045,-0.008 -0.003,-0.0054 -0.0016,-0.0028 -0.005,-0.0092 -0.0038,-0.007 -0.0026,-0.0048 -0.0055,-0.01047 -0.0046,-0.0087 -0.0037,-0.007 8.15e-4,0.0016 0.0016,0.0032 0.0024,0.0047 a 1.8862543,1.8862543 90 0 0 3.360206,-1.714888 c -0.0029,-0.0057 -0.006,-0.01166 -0.0091,-0.0179 -0.0045,-0.0088 -0.009,-0.01753 -0.01366,-0.02625 -0.0031,-0.0059 -0.0064,-0.01197 -0.0097,-0.01831 -0.0043,-0.0082 -0.0087,-0.01627 -0.01315,-0.02436 -0.0033,-0.006 -0.0067,-0.01227 -0.01027,-0.0187 -0.0042,-0.0076 -0.0084,-0.01513 -0.01265,-0.02266 -0.0035,-0.0062 -0.0071,-0.01256 -0.01083,-0.0191 -0.004,-0.0071 -0.0081,-0.0141 -0.01216,-0.02111 -0.0037,-0.0063 -0.0075,-0.01284 -0.01139,-0.01949 -0.0039,-0.0066 -0.0077,-0.01316 -0.01168,-0.01971 -0.0039,-0.0065 -0.0079,-0.01311 -0.01194,-0.01988 -0.0037,-0.0062 -0.0074,-0.01231 -0.01122,-0.01843 -0.0041,-0.0066 -0.0082,-0.01338 -0.01249,-0.02026 -0.0036,-0.0058 -0.0072,-0.01153 -0.01078,-0.01727 -0.0043,-0.0068 -0.0086,-0.01364 -0.01304,-0.02064 -0.0034,-0.0054 -0.0069,-0.01082 -0.01035,-0.01621 -0.0045,-0.0069 -0.009,-0.0139 -0.01358,-0.02102 -0.0033,-0.0051 -0.0066,-0.01017 -0.0099,-0.01523 -0.0046,-0.007 -0.0093,-0.01416 -0.01411,-0.02139 -0.0032,-0.0048 -0.0063,-0.0096 -0.0096,-0.01434 -0.0048,-0.0072 -0.0097,-0.01441 -0.01465,-0.02177 -0.003,-0.0045 -0.0061,-0.009 -0.0092,-0.01352 -0.005,-0.0073 -0.01005,-0.01467 -0.01517,-0.02213 -0.0029,-0.0043 -0.0059,-0.0085 -0.0088,-0.01276 -0.0052,-0.0074 -0.0104,-0.01491 -0.0157,-0.0225 -0.0028,-0.004 -0.0056,-0.0081 -0.0085,-0.01207 -0.0053,-0.0075 -0.01075,-0.01516 -0.01622,-0.02286 -0.0027,-0.0038 -0.0054,-0.0076 -0.0082,-0.01142 -0.0055,-0.0077 -0.0111,-0.0154 -0.01673,-0.02322 -0.0026,-0.0036 -0.0052,-0.0072 -0.0079,-0.01083 -0.0057,-0.0078 -0.01144,-0.01564 -0.01725,-0.02358 -0.0025,-0.0034 -0.005,-0.0069 -0.0076,-0.01028 -0.0059,-0.0079 -0.01178,-0.01588 -0.01775,-0.02393 -0.0024,-0.0033 -0.0049,-0.0065 -0.0073,-0.0098 -0.006,-0.008 -0.01212,-0.01612 -0.01826,-0.02428 -0.0023,-0.0031 -0.0047,-0.0062 -0.007,-0.0093 -0.0062,-0.0081 -0.01245,-0.01635 -0.01876,-0.02462 -0.0023,-0.003 -0.0045,-0.0059 -0.0068,-0.0088 -0.0064,-0.0083 -0.01279,-0.01658 -0.01925,-0.02497 -0.0022,-0.0028 -0.0044,-0.0056 -0.0065,-0.0084 -0.0065,-0.0084 -0.01311,-0.01681 -0.01974,-0.02531 -0.0021,-0.0027 -0.0042,-0.0054 -0.0063,-0.008 -0.0067,-0.0085 -0.01344,-0.01704 -0.02023,-0.02564 -0.01296,-0.01629 -0.01986,-0.02495 -0.02681,-0.03366 -0.01291,-0.01606 -0.01997,-0.02483 -0.02708,-0.03365 -0.01287,-0.01586 -0.0201,-0.02474 -0.02736,-0.03366 -0.01284,-0.01567 -0.02022,-0.02466 -0.02764,-0.03369 -0.01282,-0.0155 -0.02035,-0.02459 -0.02793,-0.03373 -0.01281,-0.01535 -0.02049,-0.02455 -0.02822,-0.03379 -0.0128,-0.01521 -0.02064,-0.02451 -0.02851,-0.03385 -0.0315,-0.03723 -0.06055,-0.07112 -0.08956,-0.104635 C 30.914509,9.9232506 30.776912,9.7720331 30.641944,9.6275692 30.424922,9.3954458 30.206222,9.171722 29.989221,8.954864 29.729369,8.6953215 29.467545,8.4414439 29.205209,8.191607 28.920287,7.9203272 28.633322,7.6525512 28.344857,7.3870895 27.978161,7.0496855 27.608653,6.7156898 27.236765,6.3838408 26.811556,6.0044562 26.383185,5.6278659 25.951675,5.2530149 25.506547,4.8663708 25.057938,4.4814588 24.60579,4.0980755 24.242515,3.7900817 23.876206,3.4824189 23.506776,3.1756804 23.242349,2.9561596 22.97505,2.7360169 22.70506,2.5163912 22.508819,2.3568086 22.308662,2.1953722 22.105285,2.0341972 21.990223,1.9430265 21.871665,1.8500717 21.750288,1.7568425 21.638064,1.6703788 21.522977,1.582347 21.407231,1.4944799 21.18412,1.32511 20.958763,1.1563228 20.731073,0.98852529 20.521992,0.83447036 20.309561,0.68021903 20.093818,0.52694895 19.921719,0.40471582 19.745505,0.28165104 19.565432,0.15935124 19.428708,0.06652647 19.287009,-0.02776149 19.140849,-0.12158602 c -0.118063,-0.0757405 -0.244006,-0.15445296 -0.376502,-0.23283024 -0.109923,-0.0649124 -0.237902,-0.13790368 -0.378922,-0.20987109 -0.08674,-0.0440931 -0.202469,-0.10047993 -0.337714,-0.1544472 -0.07179,-0.0284744 -0.174558,-0.0668313 -0.299092,-0.10085091 -0.03599,-0.009788 -0.07473,-0.0195584 -0.117594,-0.0289742 -0.0057,-0.001253 -0.01141,-0.002479 -0.01713,-0.003679 -0.0027,-5.5939e-4 -0.0053,-0.001119 -0.008,-0.00168 -0.01195,-0.00251 -0.02393,-0.004904 -0.03593,-0.007181 -0.0026,-4.9228e-4 -0.0052,-9.8512e-4 -0.0078,-0.001478 -0.01287,-0.002443 -0.02577,-0.004751 -0.03869,-0.006925 -0.0025,-4.2461e-4 -0.0051,-8.4965e-4 -0.0076,-0.001275 -0.01388,-0.002336 -0.02779,-0.004516 -0.04173,-0.006541 -0.0025,-3.5634e-4 -0.0049,-7.1301e-4 -0.0074,-0.00107 -0.01499,-0.002179 -0.03001,-0.004177 -0.04506,-0.005994 -0.0024,-2.875e-4 -0.0048,-5.7524e-4 -0.0071,-8.6319e-4 -0.01622,-0.001959 -0.03246,-0.003706 -0.04872,-0.005243 -0.0023,-2.1809e-4 -0.0046,-4.3633e-4 -0.0069,-6.5471e-4 -0.01755,-0.001659 -0.03513,-0.003072 -0.05272,-0.004238 -0.0022,-1.4809e-4 -0.0045,-2.9627e-4 -0.0067,-4.4453e-4 -0.01902,-0.001261 -0.03806,-0.002233 -0.05711,-0.002917 -0.0022,-7.751e-5 -0.0043,-1.5507e-4 -0.0065,-2.3266e-4 -0.02062,-7.3997e-4 -0.04126,-0.001142 -0.06189,-0.001204 -0.0021,-6.36e-6 -0.0042,-1.272e-5 -0.0063,-1.909e-5 -0.02236,-6.818e-5 -0.04472,2.6122e-4 -0.06707,9.8803e-4 -0.002,6.537e-5 -0.004,1.3077e-4 -0.006,1.9617e-4 -0.02423,7.8811e-4 -0.04845,0.002043 -0.07263,0.003765 -0.0019,1.3769e-4 -0.0039,2.754e-4 -0.0058,4.1314e-4 -0.02623,0.001867 -0.05242,0.004283 -0.07855,0.007246 -0.0019,2.1057e-4 -0.0037,4.2117e-4 -0.0056,6.3178e-4 -0.02834,0.003213 -0.0566,0.007068 -0.08476,0.0115622 -0.0018,2.8404e-4 -0.0036,5.6809e-4 -0.0053,8.5213e-4 -0.03051,0.00487 -0.0609,0.0104883 -0.09114,0.0168509 -0.0017,3.5809e-4 -0.0034,7.1615e-4 -0.0051,0.001074 -0.03271,0.006882 -0.06523,0.0146326 -0.09752,0.0232428 -0.0016,4.327e-4 -0.0032,8.6534e-4 -0.0049,0.001298 -0.03484,0.009288 -0.0694,0.0195739 -0.103654,0.0308437 -0.0015,5.0791e-4 -0.0031,0.001016 -0.0046,0.001523 -0.03681,0.0121106 -0.07323,0.0253527 -0.109218,0.0397068 -0.0015,5.837e-4 -0.0029,0.001167 -0.0044,0.00175 -0.03847,0.0153453 -0.07643,0.0319542 -0.113814,0.0497988 -0.0014,6.6006e-4 -0.0028,0.00132 -0.0041,0.001979 -0.09879,0.0471584 -0.196953,0.0966785 -0.286355,0.15984552 -0.0894,0.063167 -0.168905,0.13910933 -0.246453,0.21636903 -0.0113,0.0112572 -0.02259,0.0225039 -0.03386,0.0337389 -0.0064,0.006289 -0.01772,0.0175011 -0.02904,0.0287003 -0.0064,0.006298 -0.01782,0.0174752 -0.02919,0.0286387 -0.0065,0.006306 -0.01792,0.017449 -0.02935,0.0285766 -0.0065,0.006315 -0.01803,0.0174232 -0.0295,0.0285152 -0.0066,0.006323 -0.01813,0.0173965 -0.02965,0.0284529 -0.0067,0.00633 -0.01824,0.0173699 -0.0298,0.0283906 -0.0067,0.006338 -0.01834,0.0173431 -0.02995,0.02832815 -0.0068,0.0063457 -0.01844,0.01731621 -0.0301,0.02826556 -0.0068,0.0063528 -0.01855,0.01728898 -0.03025,0.02820278 -0.0069,0.0063597 -0.01865,0.0172615 -0.03039,0.02813959 -0.0069,0.00636686 -0.01875,0.01723445 -0.03054,0.02807701 -0.007,0.0063732 -0.01886,0.01720653 -0.03069,0.02801348 -0.0071,0.0063797 -0.01896,0.01717861 -0.03083,0.02794977 -0.0071,0.006386 -0.01906,0.01715096 -0.03098,0.02788667 -0.0072,0.0063918 -0.01916,0.01712255 -0.03113,0.02782262 -0.0072,0.006398 -0.01926,0.0170943 -0.03127,0.0277587 -0.0073,0.006403 -0.01937,0.0170658 -0.03142,0.0276945 -0.0073,0.006409 -0.01946,0.0170371 -0.03156,0.02763 -0.0074,0.006414 -0.01957,0.0170086 -0.0317,0.027566 -0.0074,0.006419 -0.01967,0.0169794 -0.03184,0.0275011 -0.0075,0.006424 -0.01977,0.0169504 -0.03199,0.0274362 -0.0076,0.006429 -0.01987,0.0169211 -0.03213,0.027371 -0.0076,0.006433 -0.01997,0.0168921 -0.03227,0.0273063 -0.0077,0.006437 -0.02007,0.0168625 -0.03241,0.0272407 -0.0077,0.006442 -0.02017,0.016833 -0.03255,0.0271752 -0.0078,0.006446 -0.02027,0.0168033 -0.03268,0.0271094 -0.0078,0.00645 -0.02036,0.0167737 -0.03282,0.0270436 -0.0079,0.006454 -0.02046,0.0167439 -0.03296,0.0269775 -0.008,0.006458 -0.02056,0.0167142 -0.0331,0.0269113 -0.008,0.006461 -0.02066,0.0166842 -0.03323,0.0268449 -0.0081,0.006465 -0.02076,0.0166543 -0.03337,0.0267781 -0.0081,0.006469 -0.02086,0.0166248 -0.0335,0.0267118 -0.0082,0.006473 -0.02095,0.0165948 -0.03364,0.0266447 -0.0082,0.006476 -0.02105,0.0165651 -0.03377,0.0265776 -0.0083,0.00648 -0.02115,0.0165355 -0.0339,0.0265103 -0.0084,0.006484 -0.02125,0.016506 -0.03403,0.0264429 -0.0084,0.006488 -0.02135,0.0164768 -0.03417,0.0263753 -0.0085,0.006493 -0.02145,0.0164479 -0.0343,0.0263075 -0.0085,0.006497 -0.02155,0.0164193 -0.03443,0.0262396 -0.0086,0.006502 -0.02165,0.0163911 -0.03456,0.0261715 -0.0087,0.006508 -0.02175,0.0163636 -0.03468,0.0261032 -0.0087,0.006514 -0.02185,0.0163367 -0.03481,0.0260348 -0.0088,0.006522 -0.02195,0.0163109 -0.03494,0.0259662 -0.0089,0.00653 -0.02206,0.0162861 -0.03507,0.0258975 -0.0089,0.00654 -0.02216,0.0162628 -0.03519,0.0258286 -0.009,0.006551 -0.02227,0.0162414 -0.03532,0.0257595 -0.0091,0.006565 -0.02238,0.0162225 -0.03544,0.0256903 -0.03406,0.0246174 -0.06977,0.050187 -0.104833,0.0750699 -0.03678,0.026099 -0.07286,0.05146 -0.108174,0.076068 -0.03727,0.025968 -0.07371,0.051119 -0.109248,0.075435 -0.03779,0.025858 -0.07459,0.0508 -0.1103,0.074797 -0.05116,0.034384 -0.100794,0.067311 -0.148671,0.098731 -0.0522,0.034254 -0.102448,0.066808 -0.150458,0.097582 -0.06681,0.042823 -0.13051,0.082992 -0.190511,0.1203489 -0.08292,0.051626 -0.160692,0.099081 -0.23206,0.1420103 -0.06424,0.038642 -0.126321,0.07544 -0.185913,0.1103346 -0.09876,0.057826 -0.195193,0.1130698 -0.288838,0.1657174 -0.4278,0.2404976 -0.845549,0.4540044 -1.24074,0.642769 C 10.859879,2.8944226 10.392015,3.0966557 9.9588071,3.2715396 9.4303743,3.4848396 8.9331979,3.6656114 8.4863724,3.8174211 7.9028635,4.015642 7.3695872,4.1765391 6.9127232,4.3050995 6.3050789,4.4760603 5.7754935,4.6058062 5.3626415,4.7005427 a 1.8862543,1.8862543 90 0 0 0.8437432,3.6769442 z"
       id="path-1-4"
       inkscape:path-effect="#path-effect13;#path-effect14"
       inkscape:original-d="M 5.7845131,6.5390148 C 9.7166666,5.636805 14.218545,3.889496 17.102039,1.0060023 c 0.258542,-0.25854268 3.275507,2.0746584 3.521008,2.2635051 1.783426,1.371866 8.801651,7.2917796 9.557021,8.8025196"
       style="fill:#000000;fill-rule:nonzero;stroke:none"
       transform="translate(0,2.1166667)" />
  </g>
</svg>
