<?xml version="1.0" encoding="UTF-8" standalone="no"?>
<svg
   viewBox="0 0 64 64"
   width="64"
   height="64"
   version="1.1"
   id="svg2"
   sodipodi:docname="rate_boost.svg"
   inkscape:version="1.4.3 (0d15f75, 2025-12-25)"
   xmlns:inkscape="http://www.inkscape.org/namespaces/inkscape"
   xmlns:sodipodi="http://sodipodi.sourceforge.net/DTD/sodipodi-0.dtd"
   xmlns="http://www.w3.org/2000/svg"
   xmlns:svg="http://www.w3.org/2000/svg">
  <defs
     id="defs2" />
  <sodipodi:namedview
     id="namedview2"
     pagecolor="#ffffff"
     bordercolor="#000000"
     borderopacity="0.25"
     inkscape:showpageshadow="2"
     inkscape:pageopacity="0.0"
     inkscape:pagecheckerboard="0"
     inkscape:deskcolor="#d1d1d1"
     inkscape:zoom="1.7589683"
     inkscape:cx="45.765464"
     inkscape:cy="40.364571"
     inkscape:window-width="1105"
     inkscape:window-height="575"
     inkscape:window-x="0"
     inkscape:window-y="38"
     inkscape:window-maximized="0"
     inkscape:current-layer="svg2" />
  <path
     style="fill:#000000;stroke:#000000;stroke-width:0.328577"
     id="path1"
     d="m 3.7550147,15.756803 c 0.481208,2.304364 0.545864,4.66924 0.590969,7.008465 -0.01205,2.409895 -0.101399,4.820612 -0.334353,7.221609 0,0 4.015207,1.856606 4.015207,1.856606 v 0 c -0.223024,-2.50491 -0.323209,-5.017858 -0.334353,-7.530815 0.02907,-1.480698 0.08643,-2.95123 0.238078,-4.426428 0.05912,-0.575075 0.122016,-1.104516 0.246467,-1.666187 0.02764,-0.124753 0.07095,-0.24622 0.106424,-0.36933 z" />
  <path
     style="fill:#000000;stroke:#000000;stroke-width:0.328577"
     id="path2"
     d="m 9.2039187,17.837349 c 0.772108,-0.0673 1.5926173,-0.183777 2.3670173,-0.06861 0.17648,0.02625 0.343751,0.08967 0.515626,0.134502 -1.235236,-0.617247 -2.4446153,-1.279172 -3.7057083,-1.851741 -0.168361,-0.07644 0.299412,0.214854 0.407923,0.35446 0.139581,0.179581 0.248097,0.381148 0.325651,0.589333 0.377913,1.01446 0.173831,1.74219 -0.05203,2.750998 -0.586156,1.683655 -1.702321,3.151484 -3.318582,4.150214 -0.222606,0.137555 -0.463289,0.249318 -0.694935,0.373977 -2.49313,0.968173 -2.750792,-0.139688 3.071418,3.12571 0.140733,0.07893 0.331766,-0.02473 0.496232,-0.0085 0.287119,0.0284 0.568162,0.09456 0.852243,0.141839 2.6867283,0.661732 5.1861153,1.81032 7.6192363,3.01519 0,0 -3.403786,-2.478675 -3.403786,-2.478675 v 0 C 11.177144,26.95449 8.6336527,25.895169 5.9775987,25.10707 c -0.375104,-0.102077 -0.752473,-0.197537 -1.125313,-0.30623 -0.237416,-0.06921 -0.899354,-0.369012 -0.70491,-0.22733 1.260701,0.918607 2.620835,1.718799 3.931252,2.578198 0.01424,-0.03652 0.01318,-0.0816 0.04272,-0.109574 0.228331,-0.21619 0.563651,-0.326061 0.785619,-0.5466 0.55133,-0.429733 0.782131,-0.585938 1.2935133,-1.094913 1.120015,-1.114745 2.009689,-2.40451 2.616932,-3.808932 0.1179,-0.346426 0.262547,-0.686269 0.353699,-1.039279 0.199731,-0.773514 0.276501,-1.676246 -0.02193,-2.443444 -0.0678,-0.174302 -0.122033,-0.386786 -0.293696,-0.486277 -1.479146,-0.857266 -3.0590173,-1.562203 -4.5885263,-2.343304 -1.060052,-0.106296 -2.130836,-0.03567 -3.190039,-0.163161 z" />
  <path
     style="fill:#000000;stroke:#000000;stroke-width:0.328577"
     id="path4"
     d="m 21.510583,20.439717 c -0.661136,0.109743 -1.335272,0.03246 -1.999745,-0.0079 -0.885961,-0.05694 -1.767283,-0.121415 -2.648013,0.0028 -0.493629,0.129129 -1.073114,0.21775 -1.495304,0.508278 -0.277424,0.190909 -0.377397,0.378896 -0.569011,0.639918 -0.767059,1.403309 -0.832506,3.006288 -0.984766,4.538998 -0.03398,1.134343 -0.225797,2.430203 0.187821,3.530687 0.05294,0.140864 0.13309,0.27206 0.199634,0.408089 0.08184,0.108413 0.152236,0.224722 0.245513,0.325238 0.08563,0.09227 0.173705,0.188925 0.288323,0.250028 2.667877,1.422256 3.464583,2.483951 5.885278,2.424319 1.260605,-0.156851 1.978132,-0.954722 2.707245,-1.82148 0.676427,-0.803797 1.253157,-1.647541 1.595509,-2.612236 0.183041,-0.610526 0.404148,-1.212263 0.577617,-1.82498 0.08058,-0.369134 0.289483,-0.68673 0.464608,-1.019936 0.136781,-0.21792 0.142725,-0.470304 0.178544,-0.712518 0.660632,-1.555043 -4.113231,-3.832454 -4.603109,-2.112253 -0.06539,0.229603 -0.04848,0.490739 -0.05457,0.72497 -0.0049,0.78691 0.112905,1.571178 0.213977,2.351657 0.101359,0.491181 0.09888,1.000316 0.224958,1.487325 0.519019,1.704209 -0.68003,-0.05785 4.55799,2.500614 0.03993,0.0195 0.08298,-0.03833 0.128217,-0.04126 0.04381,-0.0028 0.08521,0.02083 0.128937,0.0246 0.07157,0.0062 0.143738,0.0034 0.215607,0.0051 0.522382,0.09322 1.033618,0.229758 1.555069,0.329352 0,0 -3.956004,-2.726244 -3.956004,-2.726244 v 0 c -0.541819,-0.107964 -1.075972,-0.247089 -1.623216,-0.33169 -0.145795,-0.02988 -0.299499,-0.03116 -0.440446,-0.0763 -0.03234,-0.01036 -0.108285,-0.07574 -0.07843,-0.06043 1.460548,0.748887 2.929506,1.484905 4.372069,2.261971 0.03202,0.01725 -0.0667,0.03737 -0.103939,0.03714 -0.03059,-1.83e-4 -0.05434,-0.0255 -0.08152,-0.03825 -0.427835,-0.336614 -0.42405,-0.968966 -0.57265,-1.428403 -0.09341,-0.733843 -0.178677,-1.476071 -0.115091,-2.214901 0.02406,-0.187374 0.0485,-0.365984 0.104172,-0.547592 0.454951,-1.484232 -4.856465,-3.768567 -4.431928,-2.276932 0.01053,0.197518 4.83e-4,0.395996 -0.06401,0.586378 -0.13924,0.374393 -0.314306,0.736797 -0.423816,1.12016 -0.154621,0.621555 -0.19463,1.262542 -0.420572,1.870341 -0.298547,0.915939 -0.71885,1.783553 -1.366556,2.545664 -0.712286,0.775668 -1.434061,1.390955 -2.608159,1.400578 -0.38422,-0.03025 -0.485914,-0.02181 -0.859755,-0.117254 -0.128598,-0.03283 -0.491234,-0.185744 -0.377487,-0.122166 1.260363,0.704474 2.55286,1.360508 3.824132,2.04865 0.114813,0.06215 -0.24442,-0.10142 -0.354355,-0.17045 -0.119138,-0.07481 -0.218977,-0.172199 -0.328465,-0.258298 -0.09576,-0.120651 -0.2048,-0.233475 -0.287272,-0.361953 -0.674454,-1.050696 -0.638179,-2.340207 -0.598694,-3.510878 0.144958,-1.427037 0.31092,-2.92632 1.25154,-4.129317 0.09231,-0.0898 0.177394,-0.186196 0.276918,-0.269407 0.430475,-0.359912 1.04232,-0.489509 1.600461,-0.573681 0.852,-0.06572 1.70545,-0.0075 2.557244,0.04185 0.759428,0.05128 1.520038,0.09175 2.278274,0.153252 z" />
  <path
     style="fill:#000000;stroke:#000000;stroke-width:0.328577"
     id="path5"
     d="m 29.417604,11.054549 c 0.352763,1.611786 0.393277,3.265798 0.446617,4.903294 0.0534,1.947096 -0.03311,3.894199 -0.228192,5.833052 -0.0162,0.482412 -0.105957,0.985037 0.0053,1.465015 0.04498,0.194079 0.136899,0.396734 0.212891,0.581576 0.213191,0.40937 0.321065,0.859344 0.531828,1.268148 0.237483,0.488568 0.525794,0.957562 0.81638,1.421754 0.995437,1.656706 3.080828,3.032218 5.212698,3.040836 0.89441,-0.145511 1.76134,-0.401322 2.62515,-0.652018 0.55125,-0.139336 1.10331,-0.266404 1.64546,-0.433251 0,0 -4.15745,-2.511319 -4.15745,-2.511319 v 0 c -0.44636,0.232001 -0.94226,0.355862 -1.42706,0.50587 -0.85947,0.226698 -1.803,0.503649 -2.69845,0.314555 -1.629154,-0.763742 -0.005,-0.0059 3.99513,2.137274 0.0504,0.027 -0.10991,-0.03907 -0.15827,-0.06899 -0.21006,-0.129934 -0.37255,-0.326916 -0.51203,-0.514608 -0.29701,-0.418348 -0.5266,-0.86393 -0.75238,-1.316712 -0.18582,-0.479533 0.0587,0.108684 -0.17322,-0.325825 -0.168,-0.314712 -0.28058,-0.656908 -0.46146,-0.967366 -0.25945,-0.662854 -0.53101,-1.313347 -0.56249,-2.0297 -0.18501,-2.009881 -0.28318,-4.026757 -0.22819,-6.04408 0.0503,-1.497926 0.0658,-3.024784 0.44662,-4.490269 z" />
  <path
     style="fill:#000000;stroke:#000000;stroke-width:0.328577"
     id="path6"
     d="m 28.961546,19.809908 c 1.42587,-0.241655 2.889666,-0.222269 4.33449,-0.227698 0.97513,-0.01559 1.94868,0.02935 2.92135,0.08372 0,0 -3.73605,-2.463316 -3.73605,-2.463316 v 0 c -0.88769,0.05975 -1.776614,0.100681 -2.667395,0.08372 -1.677127,-0.0062 -3.360417,-0.02178 -5.025182,-0.227699 z" />
  <path
     style="fill:#000000;stroke:#000000;stroke-width:0.328577"
     id="path7"
     d="m 42.507586,23.185953 c 0.72551,-0.08455 1.46012,-0.08689 2.19023,-0.132825 1.14457,-0.209161 1.25771,-0.940781 1.46869,-1.854122 0.12942,-0.728953 0.30741,-1.460553 0.3047,-2.203061 -0.002,-0.495446 -0.0434,-0.601473 -0.13324,-1.078947 -0.19117,-0.685301 -0.54853,-1.397155 -1.25659,-1.765649 -1.50615,-0.783838 -3.02743,-1.543485 -4.54114,-2.315228 -0.19124,-0.04271 -0.43872,-0.120512 -0.64368,-0.08115 -0.56002,0.107559 -1.12857,0.781347 -1.49384,1.140757 -0.45494,0.52968 -1.04852,0.973049 -1.42548,1.557728 -0.20998,0.325676 -0.23358,0.46886 -0.3581,0.830582 -0.27349,1.092962 -0.33038,2.215512 -0.26358,3.330877 0.1301,1.132754 0.58273,2.188954 1.32178,3.109308 0.14889,0.185415 0.31913,0.355906 0.47869,0.53386 0.44532,0.427937 0.9206,0.85623 1.48855,1.152224 2.62427,1.36769 3.42204,2.228918 5.72296,2.561342 1.09024,0.11455 2.19123,0.03286 3.26137,-0.172137 0.10024,-0.02072 0.20048,-0.04143 0.30071,-0.06214 0,0 -4.11768,-2.556545 -4.11768,-2.556545 v 0 c -0.0791,0.02662 -0.15816,0.05324 -0.23723,0.07986 -0.97824,0.259202 -1.98759,0.31132 -2.98937,0.108835 -1.88659,-0.43729 -2.99848,-1.360083 2.45891,1.589491 0.18167,0.09819 -0.37433,-0.179557 -0.55223,-0.283274 -0.50681,-0.295468 -0.63484,-0.426868 -1.09011,-0.791711 -0.1714,-0.164973 -0.35473,-0.320363 -0.51419,-0.49492 -0.74909,-0.820054 -1.18581,-1.806713 -1.32662,-2.859917 -0.0844,-1.050579 -0.0408,-2.113258 0.28608,-3.131255 0.0903,-0.227259 0.19465,-0.512115 0.31431,-0.730994 0.31406,-0.574446 0.7892,-1.061097 1.27731,-1.517349 0.70571,-0.545195 1.05688,-0.899601 1.96802,-0.537129 -1.29792,-0.686515 -2.60231,-1.363047 -3.89376,-2.059543 -0.117,-0.0631 0.25049,0.09793 0.36904,0.158607 0.58255,0.298189 0.96619,0.750668 1.16316,1.330083 0.0511,0.15765 0.11831,0.311716 0.15328,0.472948 0.18806,0.86694 -0.0345,1.774083 -0.22324,2.622159 -0.25388,0.717752 -0.3467,1.211134 -1.25137,1.339521 -0.79023,0.06425 -1.58564,0.05686 -2.37386,-0.03149 z" />
  <path
     style="fill:#000000;stroke:#000000;stroke-width:0.328577"
     id="path8"
     d="m 7.6600077,36.882674 c 0.279342,1.306248 0.281726,2.64444 0.307962,3.969866 0.04076,1.574503 -0.04894,3.147771 -0.05408,4.722015 0.0048,0.172863 0.0097,0.345726 0.01455,0.518589 0,0 4.2496993,1.9181 4.2496993,1.9181 v 0 c -0.03276,-0.177625 -0.06553,-0.355251 -0.09829,-0.532876 -0.168625,-1.596031 -0.200916,-3.198177 -0.165746,-4.801163 0.02479,-1.229287 0.0081,-2.479427 0.307963,-3.685066 z" />
  <path
     style="fill:#000000;stroke:#000000;stroke-width:0.328577"
     id="path9"
     d="m 12.309712,38.489773 c 0.815064,-0.113349 1.646268,-0.0918 2.468703,-0.09692 0.859018,0.02174 1.734589,-0.04052 2.566182,0.1886 1.536855,0.744913 3.514398,1.828738 -3.722056,-1.934393 -0.05282,-0.02747 0.113577,0.04267 0.162669,0.07534 0.15658,0.104192 0.165852,0.17286 0.256951,0.333303 0.273514,0.835538 0.308102,1.752702 0.07523,2.601692 -0.06402,0.233406 -0.163407,0.457631 -0.24511,0.686446 -0.713871,1.449918 -1.674209,2.393924 -3.148264,3.217648 -0.295254,0.119749 -0.684207,0.376447 -1.0408543,0.283045 -0.05833,-0.01528 -0.200378,-0.123874 -0.147052,-0.09753 4.4071073,2.176838 5.8967523,2.422725 4.1749463,2.125183 0.06799,0.01225 -0.130421,-0.111667 -0.100041,-0.11712 0.274919,-0.04935 0.556638,-0.143332 0.830984,-0.205233 1.288042,-0.227103 2.598266,-0.278913 3.881554,-0.01948 0.137008,0.05472 0.278241,0.101445 0.411024,0.164157 0.118166,0.05581 0.456069,0.249915 0.340023,0.190555 -1.305364,-0.667725 -2.5964,-1.358574 -3.908231,-2.015779 -0.08924,-0.0447 0.162009,0.112807 0.236256,0.176184 0.165345,0.14114 0.225416,0.226597 0.35869,0.386898 0.396378,0.546338 -0.0374,1.068841 -0.432182,1.49508 -0.64936,0.534018 -1.497185,0.745972 -2.319488,0.958305 -1.225184,0.26924 -2.487867,0.361828 -3.7451763,0.325675 -0.185454,-0.01426 -0.370907,-0.02852 -0.556361,-0.04278 0,0 3.8637773,2.565736 3.8637773,2.565736 v 0 c 0.168053,-0.0034 0.336107,-0.0068 0.50416,-0.01013 1.29305,-0.0392 2.598042,-0.106021 3.857011,-0.394898 0.935228,-0.225788 1.937985,-0.438956 2.612793,-1.11506 0.479477,-0.569868 0.996628,-1.214456 0.78162,-1.967308 -1.192935,-1.836929 -3.609565,-2.851887 -5.85353,-3.335861 -1.318908,-0.09016 -2.638067,0.06502 -3.952694,0.155143 -0.6320323,0.0845 -1.6274683,0.122212 -1.4735823,0.935992 0.282327,1.751543 3.3252233,3.257526 4.9955873,2.313774 0.254564,-0.143828 0.439124,-0.288471 0.677993,-0.460094 1.238813,-1.018638 2.352266,-2.152558 3.133031,-3.507085 0.107671,-0.237413 0.231393,-0.469342 0.323013,-0.712241 0.320518,-0.84975 0.37792,-1.745353 0.371185,-2.635454 -0.230594,-2.033336 -3.096082,-2.736194 -5.170866,-3.140532 -0.820139,-0.05506 -1.641225,-0.02792 -2.462735,-0.01514 -0.9212163,-0.0056 -1.8465623,0.004 -2.7626833,-0.09692 z" />
  <path
     style="fill:#000000;stroke:#000000;stroke-width:0.328577"
     id="path10"
     d="m 23.914717,39.755787 c -0.391604,-0.01423 -0.78269,-0.04007 -1.174418,-0.05508 -0.80631,0.08101 -1.024125,0.685033 -1.331346,1.281396 -0.438823,0.991879 -1.074397,1.911025 -1.423661,2.933844 -0.150645,0.958132 0.609771,1.548063 1.391731,2.050891 1.017832,-1.092614 3.424574,2.81056 5.388078,2.397735 0.524352,-0.110245 0.931584,-0.445547 1.328351,-0.749333 0.676205,-0.60953 1.349041,-1.2232 1.80013,-1.990783 0.25949,-0.527622 0.425279,-1.089508 0.443534,-1.66742 -0.0019,-0.260233 -0.102461,-0.465619 -0.241897,-0.684239 0,0 -4.623836,-1.796805 -4.623836,-1.796805 v 0 c 0.156542,0.128517 0.318388,0.242474 0.391782,0.430091 0.06277,0.535546 -0.02583,1.014907 -0.267877,1.511384 -0.321064,0.740003 -0.886774,1.35801 -1.541952,1.880192 -0.35724,0.214298 -0.445769,0.309141 -0.862594,0.40157 -0.124169,0.02753 -0.253852,0.03786 -0.381611,0.0342 -1.387028,-0.03976 -5.46995,-3.135357 3.092998,1.828374 -0.534202,-0.272033 -1.352821,-0.67969 -1.572669,-1.238363 -0.03919,-0.09958 -0.04085,-0.208197 -0.06127,-0.312296 0.177965,-1.026016 0.653937,-1.98879 1.291816,-2.847604 0.350627,-0.422434 0.599144,-0.823493 1.234446,-0.756004 0.404008,0.02867 0.821133,0.05405 1.190944,0.21821 z" />
  <path
     style="fill:#000000;stroke:#000000;stroke-width:0.328577"
     id="path11"
     d="m 32.607846,40.331054 c -0.25097,0.225595 -0.612726,0.289724 -0.898034,0.462497 -0.256306,0.15521 -0.356836,0.286011 -0.563568,0.495704 -0.690686,0.945068 -0.999498,2.078055 -1.292241,3.168527 -0.191591,0.697584 -0.305183,1.328939 0.324999,1.875235 0.106147,0.09202 0.232695,0.162457 0.349042,0.243685 2.574052,1.619237 3.515412,2.257847 5.881672,2.500629 0.12236,0.01255 0.24444,0.04521 0.36721,0.03659 0.11992,-0.0084 0.23194,-0.05786 0.34791,-0.08679 0.10225,-0.108535 0.23964,-0.19645 0.30675,-0.325607 0.19033,-0.366333 0.20359,-0.976274 0.22453,-1.34849 0.0496,-0.882333 0.073,-1.763237 0.13954,-2.645046 0.0613,-0.849247 0.26921,-1.688219 0.0878,-2.533676 0,0 -4.55709,-1.914525 -4.55709,-1.914525 v 0 c 0.53523,0.753559 0.4351,1.739433 0.49208,2.59208 -0.007,0.856889 -0.0204,1.705735 -0.21792,2.548562 -0.0595,0.253871 -0.18362,0.709747 -0.38624,0.948211 -0.0389,0.04584 -0.10934,0.05963 -0.16401,0.08945 -2.014996,0.06251 -5.027393,-1.917398 2.0291,1.732466 -0.97959,-0.392096 -1.1613,-0.707564 -1.06485,-1.688834 0.20241,-1.028169 0.48805,-2.08182 1.30598,-2.861124 0.46571,-0.341656 0.99925,-0.572326 1.57292,-0.730595 z" />
  <path
     style="fill:#000000;stroke:#000000;stroke-width:0.328577"
     id="path12"
     d="m 42.492226,38.056905 c -0.66063,0.07959 -1.32948,0.08727 -1.99486,0.100012 -0.67111,0.01287 -1.36349,0.06532 -1.91933,0.45015 -0.30203,0.209102 -0.47614,0.457723 -0.70189,0.728577 -0.28578,0.344946 -0.52472,0.716392 -0.74246,1.099017 -0.0766,0.13458 -0.22316,0.374996 -0.24998,0.533698 -0.0175,0.103598 4.8e-4,0.209619 6.9e-4,0.314429 0.0465,0.104283 0.0728,0.218044 0.13959,0.312848 0.0741,0.105247 0.15943,0.212685 0.27661,0.278197 1.50002,0.838614 3.02782,1.636045 4.55979,2.425673 0.46546,0.239913 1.06651,0.323325 1.58082,0.41985 1.09068,0.152272 2.19389,0.223487 3.29314,0.30882 0.18636,0.01144 0.43949,0.01716 0.58932,0.14691 0.0301,0.02609 0.10152,0.115259 0.0653,0.09667 -4.48843,-2.30177 -5.93977,-2.472205 -4.21478,-2.257751 0.1974,0.103695 0.17643,0.314315 0.0941,0.475358 -0.26268,0.356367 -0.56424,0.688877 -0.91404,0.977262 -0.5146,0.440517 -1.23614,0.526388 -1.90585,0.639489 -0.74849,0.106509 -1.50602,0.127912 -2.26214,0.130495 0,0 3.9812,2.602246 3.9812,2.602246 v 0 c 0.74769,-0.05531 1.49638,-0.110382 2.23744,-0.219302 0.79304,-0.122274 1.5898,-0.232955 2.18466,-0.771522 0.39202,-0.321686 0.7453,-0.685635 1.07463,-1.060425 0.20947,-0.301339 0.28635,-0.569291 0.22412,-0.924085 -0.41987,-1.843548 -3.22158,-2.660591 -5.13948,-2.483033 -1.02893,0.02263 -2.0612,-0.03832 -3.06248,-0.268714 -0.49505,-0.135178 -0.65136,-0.160289 -1.11462,-0.353253 -0.16455,-0.06854 -0.63715,-0.311957 -0.48185,-0.227496 6.64013,3.611265 4.62817,2.565484 3.29637,1.735043 -0.0332,-0.05034 -0.0869,-0.09349 -0.0995,-0.151011 -0.0865,-0.393761 0.47303,-1.232396 0.70538,-1.537749 0.22705,-0.223818 0.36531,-0.393547 0.64909,-0.554583 0.51366,-0.29149 1.1418,-0.298678 1.72557,-0.314561 0.7667,0.01388 1.53488,0.02877 2.29824,0.100013 z" />
  <path
     style="fill:#000000;stroke:#000000;stroke-width:0.328577"
     id="path13"
     d="m 50.727546,41.164076 c 1.03172,-0.136224 2.08003,-0.168183 3.12055,-0.220515 1.22647,-0.04184 2.4514,-0.110287 3.67798,-0.149984 0.60142,-0.02139 1.20243,-0.138466 1.77041,-0.317738 0,0 -4.13019,-2.550143 -4.13019,-2.550143 v 0 c -0.54653,0.142291 -1.10266,0.220677 -1.66885,0.266815 -1.10341,0.175771 -2.21301,0.336287 -3.33704,0.339474 -1.20349,0.02517 -2.40966,0.02422 -3.60565,-0.119177 z" />
  <path
     style="fill:#000000;stroke:#000000;stroke-width:0.328577"
     id="path14"
     d="m 51.567386,32.383545 c 0.0302,0.401453 0.0757,0.801659 0.12063,1.202057 0.12949,1.310789 0.13738,2.628138 0.14499,3.943173 0.0217,1.1344 -0.0672,2.26519 -0.1296,3.39694 -0.0357,0.834137 -0.005,1.669582 0.0853,2.499962 0.1449,0.547854 0.14795,1.291788 0.51751,1.77181 0.0675,0.08767 0.16057,0.156573 0.24086,0.23486 3.88913,1.997932 3.90203,2.804405 7.23616,2.111884 0.88239,-0.262669 1.71747,-0.639293 2.45677,-1.149242 0.1851,-0.129631 0.36133,-0.268889 0.53493,-0.41081 0,0 -4.35861,-2.387061 -4.35861,-2.387061 v 0 c -0.10552,0.149546 -0.21962,0.2925 -0.36244,0.415635 -0.63327,0.504512 -1.38995,0.85554 -2.20543,1.049779 -0.51938,0.09213 -1.02523,0.168825 -1.55786,0.135795 -1.7976,-0.111474 -4.20904,-1.896894 2.86638,1.880456 -0.0969,-0.03356 -0.20134,-0.05286 -0.29065,-0.100686 -0.48262,-0.258424 -0.6472,-1.162834 -0.76591,-1.613521 -0.11324,-0.812585 -0.0453,-1.62295 -0.0733,-2.439647 -0.0614,-1.171742 -0.14939,-2.34261 -0.1296,-3.516794 0.007,-1.270274 0.0112,-2.543479 0.14499,-3.809086 0.0454,-0.363154 0.0913,-0.726069 0.12064,-1.090494 z" />
</svg>
