<?xml version="1.0" encoding="UTF-8" standalone="no"?>
<!-- Created with Inkscape (http://www.inkscape.org/) -->

<svg
   width="128"
   height="128"
   viewBox="0 0 33.866666 33.866666"
   version="1.1"
   id="svg1"
   sodipodi:docname="supply1.svg"
   inkscape:version="1.4.3 (0d15f75, 2025-12-25)"
   xmlns:inkscape="http://www.inkscape.org/namespaces/inkscape"
   xmlns:sodipodi="http://sodipodi.sourceforge.net/DTD/sodipodi-0.dtd"
   xmlns="http://www.w3.org/2000/svg"
   xmlns:svg="http://www.w3.org/2000/svg">
  <sodipodi:namedview
     id="namedview1"
     pagecolor="#ffffff"
     bordercolor="#000000"
     borderopacity="0.25"
     inkscape:showpageshadow="2"
     inkscape:pageopacity="0.0"
     inkscape:pagecheckerboard="0"
     inkscape:deskcolor="#d1d1d1"
     inkscape:document-units="px"
     inkscape:zoom="1.0520188"
     inkscape:cx="105.9867"
     inkscape:cy="26.615494"
     inkscape:window-width="1231"
     inkscape:window-height="729"
     inkscape:window-x="0"
     inkscape:window-y="38"
     inkscape:window-maximized="0"
     inkscape:current-layer="layer1" />
  <defs
     id="defs1">
    <inkscape:path-effect
       effect="powerstroke"
       message=""
       id="path-effect14"
       is_visible="true"
       lpeversion="1.3"
       scale_width="1"
       interpolator_type="CentripetalCatmullRom"
       interpolator_beta="0.75"
       start_linecap_type="round"
       end_linecap_type="round"
       offset_points="5.605586,1.8862543"
       linejoin_type="spiro"
       miter_limit="4"
       not_jump="true"
       sort_points="true" />
    <inkscape:path-effect
       effect="simplify"
       id="path-effect13"
       is_visible="true"
       lpeversion="1.3"
       threshold="0.012"
       steps="1"
       smooth_angles="0"
       helper_size="0"
       simplify_individual_paths="false"
       simplify_just_coalesce="false"
       step="1" />
    <inkscape:path-effect
       effect="powerstroke"
       message=""
       id="path-effect12"
       is_visible="true"
       lpeversion="1.3"
       scale_width="1"
       interpolator_type="CentripetalCatmullRom"
       interpolator_beta="0.75"
       start_linecap_type="round"
       end_linecap_type="round"
       offset_points="56.354786,1.8862543"
       linejoin_type="spiro"
       miter_limit="4"
       not_jump="true"
       sort_points="true" />
    <inkscape:path-effect
       effect="simplify"
       id="path-effect11"
       is_visible="true"
       lpeversion="1.3"
       threshold="0.012"
       steps="1"
       smooth_angles="0"
       helper_size="0"
       simplify_individual_paths="false"
       simplify_just_coalesce="false"
       step="1" />
    <inkscape:path-effect
       effect="powerstroke"
       message=""
       id="path-effect10"
       is_visible="true"
       lpeversion="1.3"
       scale_width="1"
       interpolator_type="CentripetalCatmullRom"
       interpolator_beta="0.75"
       start_linecap_type="round"
       end_linecap_type="round"
       offset_points="76.862056,1.8862543"
       linejoin_type="spiro"
       miter_limit="4"
       not_jump="true"
       sort_points="true" />
    <inkscape:path-effect
       effect="simplify"
       id="path-effect9"
       is_visible="true"
       lpeversion="1.3"
       threshold="0.012"
       steps="1"
       smooth_angles="0"
       helper_size="0"
       simplify_individual_paths="false"
       simplify_just_coalesce="false"
       step="1" />
    <inkscape:path-effect
       effect="powerstroke"
       message=""
       id="path-effect8"
       is_visible="true"
       lpeversion="1.3"
       scale_width="1"
       interpolator_type="CentripetalCatmullRom"
       interpolator_beta="0.75"
       start_linecap_type="round"
       end_linecap_type="round"
       offset_points="23.663772,1.8862543"
       linejoin_type="spiro"
       miter_limit="4"
       not_jump="true"
       sort_points="true" />
    <inkscape:path-effect
       effect="simplify"
       id="path-effect7"
       is_visible="true"
       lpeversion="1.3"
       threshold="0.012"
       steps="1"
       smooth_angles="0"
       helper_size="0"
       simplify_individual_paths="false"
       simplify_just_coalesce="false"
       step="1" />
    <inkscape:path-effect
       effect="powerstroke"
       message=""
       id="path-effect6"
       is_visible="true"
       lpeversion="1.3"
       scale_width="1"
       interpolator_type="CentripetalCatmullRom"
       interpolator_beta="0.75"
       start_linecap_type="round"
       end_linecap_type="round"
       offset_points="40.56292,1.8862543"
       linejoin_type="spiro"
       miter_limit="4"
       not_jump="true"
       sort_points="true" />
    <inkscape:path-effect
       effect="simplify"
       id="path-effect5"
       is_visible="true"
       lpeversion="1.3"
       threshold="0.012"
       steps="1"
       smooth_angles="0"
       helper_size="0"
       simplify_individual_paths="false"
       simplify_just_coalesce="false"
       step="1" />
    <inkscape:path-effect
       effect="powerstroke"
       message=""
       id="path-effect4"
       is_visible="true"
       lpeversion="1.3"
       scale_width="1"
       interpolator_type="CentripetalCatmullRom"
       interpolator_beta="0.75"
       start_linecap_type="round"
       end_linecap_type="round"
       offset_points="86.392198,1.8862543"
       linejoin_type="spiro"
       miter_limit="4"
       not_jump="true"
       sort_points="true" />
    <inkscape:path-effect
       effect="simplify"
       id="path-effect3"
       is_visible="true"
       lpeversion="1.3"
       threshold="0.012"
       steps="1"
       smooth_angles="0"
       helper_size="0"
       simplify_individual_paths="false"
       simplify_just_coalesce="false"
       step="1" />
    <inkscape:path-effect
       effect="powerstroke"
       message=""
       id="path-effect2"
       is_visible="true"
       lpeversion="1.3"
       scale_width="1"
       interpolator_type="CentripetalCatmullRom"
       interpolator_beta="0.75"
       start_linecap_type="round"
       end_linecap_type="round"
       offset_points="19.442751,1.8862543"
       linejoin_type="spiro"
       miter_limit="4"
       not_jump="true"
       sort_points="true" />
    <inkscape:path-effect
       effect="simplify"
       id="path-effect1"
       is_visible="true"
       lpeversion="1.3"
       threshold="0.012"
       steps="1"
       smooth_angles="0"
       helper_size="0"
       simplify_individual_paths="false"
       simplify_just_coalesce="false"
       step="1" />
    <inkscape:path-effect
       effect="bspline"
       id="path-effect18"
       is_visible="true"
       lpeversion="1.3"
       weight="33.333333"
       steps="2"
       helper_size="0"
       apply_no_weight="true"
       apply_with_weight="true"
       only_selected="false"
       uniform="false" />
    <inkscape:path-effect
       effect="bspline"
       id="path-effect17"
       is_visible="true"
       lpeversion="1.3"
       weight="33.333333"
       steps="2"
       helper_size="0"
       apply_no_weight="true"
       apply_with_weight="true"
       only_selected="false"
       uniform="false" />
    <inkscape:path-effect
       effect="bspline"
       id="path-effect16"
       is_visible="true"
       lpeversion="1.3"
       weight="33.333333"
       steps="2"
       helper_size="0"
       apply_no_weight="true"
       apply_with_weight="true"
       only_selected="false"
       uniform="false" />
    <linearGradient
       id="swatch12"
       inkscape:swatch="solid">
      <stop
         style="stop-color:#000000;stop-opacity:1;"
         offset="0"
         id="stop13" />
    </linearGradient>
  </defs>
  <g
     inkscape:label="图层 1"
     inkscape:groupmode="layer"
     id="layer1">
    <path
       style="fill:#000000;stroke:#000000;stroke-width:0.264583"
       id="path1"
       d="m 2.2680437,12.33374 c 0.2011671,1.86525 0.1764901,3.745876 0.1656935,5.619145 -0.046597,1.84639 -0.024511,3.693337 -0.040851,5.53997 -0.0165,1.151855 -0.026266,2.304341 -0.093887,3.454589 0,0 3.4500198,1.757874 3.4500198,1.757874 v 0 C 5.683444,27.523048 5.670973,26.338824 5.655132,25.155052 5.638815,23.294544 5.660642,21.433725 5.614281,19.573453 5.603872,17.756825 5.57088,15.930854 5.7799747,14.123158 Z" />
    <path
       style="fill:#000000;stroke:#000000;stroke-width:0.264583"
       id="path2"
       d="m 6.2971687,13.729981 c 1.2747202,-0.08351 2.5540671,-0.06845 3.8308733,-0.06251 1.016666,0.01361 2.033531,0.01903 3.049972,0.0458 0.377267,0.0031 0.75441,0.02248 1.131665,0.02363 0.03977,0.05559 0.148758,-0.04255 0.193051,0.0041 0.0235,0.02478 0.04179,0.11849 0.01203,0.101744 -1.12163,-0.631067 -2.21179,-1.316573 -3.323528,-1.964907 -0.02538,-0.0148 0.04909,0.03632 0.06184,0.06278 0.02397,0.04973 0.03014,0.106224 0.0452,0.159336 0.204393,1.624299 0.193644,3.265332 0.201958,4.899505 0.0038,2.173528 -0.01757,4.346963 -0.0295,6.520421 -0.02869,1.263539 0.0053,2.528158 0.06107,3.790585 -0.01841,0.461815 0.09945,0.907638 0.188207,1.356887 0.0039,0.05072 0.0172,0.101558 0.01183,0.152141 -0.0033,0.03068 -0.128144,-0.0064 -0.304304,-0.0026 -0.254956,0.0054 -0.509705,0.01836 -0.764632,0.02503 -1.0113706,0.01167 -2.0226223,-0.01122 -3.0336696,-0.03365 -0.5676347,-0.0145 -1.1354107,-0.02127 -1.7030745,-0.03332 -0.2750319,-0.0013 -0.5498454,-0.01135 -0.8248869,-0.0087 -0.2624119,-5.29e-4 -0.5247576,0.0048 -0.7871902,0.0021 -0.155253,-0.0034 -0.077437,-0.0028 -0.2334493,-0.0019 0,0 3.1989167,2.324137 3.1989167,2.324137 v 0 c 0.1554062,7.93e-4 0.079347,0.0016 0.2281788,-0.0019 0.2642897,-0.0028 0.5285023,0.0026 0.7927732,0.0019 0.2667672,0.0024 0.533283,-0.0076 0.8000428,-0.0084 0.5432049,-0.01029 1.086609,-0.0118 1.629887,-0.0163 1.009013,-0.0041 2.017878,0.0034 3.026793,0.01834 0.565796,-2.7e-5 1.491216,0.101195 1.483899,-0.704763 -0.0812,-0.449093 -0.204965,-0.890217 -0.252412,-1.345322 -0.165746,-1.285853 -0.333856,-2.5752 -0.3022,-3.875511 -0.01037,-2.182127 -0.02888,-4.364247 -0.02166,-6.54643 0.0097,-1.591309 0.03285,-3.180727 0.153956,-4.767808 0.0019,-0.09161 0.009,-0.365131 0.0035,-0.368818 -5.9211299,-3.9407315 -1.97785,-2.109624 -3.710979,-2.062579 -0.355572,0.0011 -0.711023,0.02052 -1.066609,0.02363 -0.9743782,0.02768 -1.9492563,0.03189 -2.9238842,0.0458 -1.3342908,0.0063 -2.6704097,0.01637 -4.0029392,-0.06251 z" />
    <path
       style="fill:#000000;stroke:#000000;stroke-width:0.264583"
       id="path3"
       d="M 5.3121319,12.509088 C 5.6260658,11.716927 6.0125689,10.955152 6.4924264,10.2511 6.8458201,9.6463737 7.3287834,9.1506331 7.855814,8.6967973 8.2740348,8.3512486 8.7108791,7.9865998 9.2376248,7.823431 9.5571682,7.762366 9.8977081,7.7629796 10.21514,7.8291699 9.8956581,7.5205321 11.335364,8.4374864 10.958367,8.2244859 5.7862543,5.3022821 7.3546263,6.0007141 8.4536078,6.8942533 c 0.606253,0.52847 1.0831311,1.17636 1.4958758,1.861417 0.3365194,0.570212 0.6904214,1.1343256 0.9328004,1.7524677 0.05598,0.287061 0.233161,0.521795 0.341322,0.786147 0,0 3.581423,1.680535 3.581423,1.680535 v 0 C 14.719409,12.668864 14.55038,12.431121 14.420788,12.146932 14.165575,11.501501 13.835362,10.896711 13.458487,10.313446 13.049379,9.609835 12.611804,8.9297714 12.036676,8.3459077 10.620349,7.0716916 8.9327613,5.9601347 7.0849997,5.4973279 6.7035131,5.4801221 6.3131535,5.4594941 5.9643822,5.6426535 5.4593754,5.9144642 5.0284332,6.2975872 4.587455,6.6597483 4.0321409,7.1356551 3.517865,7.6564186 3.1715522,8.3087356 2.7153534,9.031926 2.3826074,9.8235056 1.9103871,10.537454 Z" />
    <path
       style="fill:#000000;stroke:#000000;stroke-width:0.20301"
       id="path4"
       d="m 17.520988,11.703861 c 1.174842,-0.06563 2.353109,-0.05712 3.529547,-0.05793 1.111981,0.0051 2.224015,0.0085 3.335635,0.03849 0.389713,0.0076 0.779176,0.02541 1.169009,0.02546 0.143163,-0.0015 0.286263,-0.002 0.429424,-5.39e-4 0,0 -2.482228,-1.7429499 -2.482228,-1.7429499 v 0 c -0.143677,0.00149 -0.287301,8.75e-4 -0.430981,-5.388e-4 -0.365687,3.69e-5 -0.730954,0.017383 -1.096503,0.025456 -1.075035,0.031388 -2.150577,0.032807 -3.226007,0.038488 -1.231514,-8.37e-4 -2.464394,0.0046 -3.694541,-0.057927 z" />
    <path
       style="fill:#000000;stroke:#000000;stroke-width:0.20301"
       id="path5"
       d="m 19.828861,5.129619 c 0.03973,0.5904394 0.04724,1.1831646 0.05496,1.7747985 0.02147,0.9635032 0.03039,1.9279257 0.0074,2.8914585 -0.0059,0.698982 -0.03963,1.398174 0.02052,2.095491 0.08605,0.657148 0.215906,1.308844 0.330661,1.962066 0.05742,0.335614 0.03816,0.17998 0.06404,0.46614 0,0 2.719271,1.304467 2.719271,1.304467 v 0 c -0.04068,-0.325804 -0.01016,-0.155655 -0.09781,-0.509364 -0.140494,-0.638798 -0.221339,-1.287063 -0.321026,-1.932277 -0.100462,-0.695532 -0.08371,-1.39287 -0.09126,-2.094181 -0.02239,-0.96111 -0.01472,-1.9230902 0.0074,-2.884159 0.0076,-0.5735648 0.01433,-1.1484091 0.05496,-1.7206699 z" />
    <path
       style="fill:#000000;stroke:#000000;stroke-width:0.264583"
       id="path9"
       d="m 26.12516,30.917386 c 0.646471,-0.03312 1.294467,-0.02773 1.941655,-0.03284 0.764639,-0.0077 1.529297,0.0038 2.293901,0.01066 0.459674,0.004 0.919293,0.0131 1.378985,0.01527 0.196836,0.0031 0.393718,0.0054 0.590581,0.0047 0,0 -3.192195,-2.319266 -3.192195,-2.319266 v 0 c -0.192543,-7.93e-4 -0.385106,0.0016 -0.57762,0.0047 -0.445682,0.0021 -0.891287,0.01119 -1.336951,0.01527 -0.754812,0.007 -1.509678,0.01844 -2.264528,0.01066 -0.677345,-0.0052 -1.355322,-7.94e-4 -2.03205,-0.03284 z" />
    <path
       style="fill:#000000;stroke:#000000;stroke-width:0.264583"
       id="path10"
       d="m 29.687894,30.281092 c -0.034,-0.563078 -0.03122,-1.127831 -0.0393,-1.691748 -0.0046,-0.640871 0.01269,-1.281648 0.0064,-1.922488 -0.03497,-0.777657 -0.0071,-1.555595 -0.01145,-2.333531 -0.01197,-0.636654 0.01016,-1.272447 0.02607,-1.908647 0.0059,-0.404988 -0.0046,-0.809831 0.01096,-1.214636 0.01317,-0.342447 -0.0099,-0.684265 -0.007,-1.026731 0.0012,-0.307387 0.0016,-0.614918 0.01883,-0.921918 0,0 -3.531418,-1.799346 -3.531418,-1.799346 v 0 c 0.01665,0.313427 0.01784,0.627317 0.01883,0.941107 0.0029,0.340101 -0.02022,0.679522 -0.007,1.019613 0.01507,0.408542 0.0054,0.817088 0.01096,1.225802 0.01573,0.645061 0.03789,1.289726 0.02607,1.935219 -0.0043,0.774045 0.02368,1.54811 -0.01145,2.321861 -0.0064,0.643017 0.01111,1.285975 0.0064,1.929025 -0.008,0.550551 -0.0047,1.102043 -0.0393,1.651694 z" />
    <path
       style="fill:#000000;stroke:#000000;stroke-width:0.264583"
       id="path11"
       d="m 25.402949,16.658764 c -0.530647,0.248242 -1.016289,0.58402 -1.507604,0.901273 -0.395836,0.276817 -0.789742,0.556176 -1.196002,0.815149 -0.24544,0.09698 -0.436803,0.27555 -0.679734,0.378076 0,0 3.308685,2.170694 3.308685,2.170694 v 0 c 0.231355,-0.139772 0.454549,-0.292092 0.684861,-0.433097 0.380419,-0.278298 0.74853,-0.572593 1.139782,-0.835547 0.496209,-0.312013 0.987003,-0.640235 1.547884,-0.826666 z" />
  </g>
</svg>
