<?xml version="1.0" encoding="UTF-8" standalone="no"?>
<!-- Created with Inkscape (http://www.inkscape.org/) -->

<svg
   width="128"
   height="128"
   viewBox="0 0 33.866666 33.866666"
   version="1.1"
   id="svg1"
   sodipodi:docname="supply2.svg"
   inkscape:version="1.4.3 (0d15f75, 2025-12-25)"
   xmlns:inkscape="http://www.inkscape.org/namespaces/inkscape"
   xmlns:sodipodi="http://sodipodi.sourceforge.net/DTD/sodipodi-0.dtd"
   xmlns="http://www.w3.org/2000/svg"
   xmlns:svg="http://www.w3.org/2000/svg">
  <sodipodi:namedview
     id="namedview1"
     pagecolor="#ffffff"
     bordercolor="#000000"
     borderopacity="0.25"
     inkscape:showpageshadow="2"
     inkscape:pageopacity="0.0"
     inkscape:pagecheckerboard="0"
     inkscape:deskcolor="#d1d1d1"
     inkscape:document-units="px"
     inkscape:zoom="1.0520188"
     inkscape:cx="105.9867"
     inkscape:cy="26.615494"
     inkscape:window-width="1231"
     inkscape:window-height="729"
     inkscape:window-x="0"
     inkscape:window-y="38"
     inkscape:window-maximized="0"
     inkscape:current-layer="layer1" />
  <defs
     id="defs1">
    <inkscape:path-effect
       effect="powerstroke"
       message=""
       id="path-effect14"
       is_visible="true"
       lpeversion="1.3"
       scale_width="1"
       interpolator_type="CentripetalCatmullRom"
       interpolator_beta="0.75"
       start_linecap_type="round"
       end_linecap_type="round"
       offset_points="5.605586,1.8862543"
       linejoin_type="spiro"
       miter_limit="4"
       not_jump="true"
       sort_points="true" />
    <inkscape:path-effect
       effect="simplify"
       id="path-effect13"
       is_visible="true"
       lpeversion="1.3"
       threshold="0.012"
       steps="1"
       smooth_angles="0"
       helper_size="0"
       simplify_individual_paths="false"
       simplify_just_coalesce="false"
       step="1" />
    <inkscape:path-effect
       effect="powerstroke"
       message=""
       id="path-effect12"
       is_visible="true"
       lpeversion="1.3"
       scale_width="1"
       interpolator_type="CentripetalCatmullRom"
       interpolator_beta="0.75"
       start_linecap_type="round"
       end_linecap_type="round"
       offset_points="56.354786,1.8862543"
       linejoin_type="spiro"
       miter_limit="4"
       not_jump="true"
       sort_points="true" />
    <inkscape:path-effect
       effect="simplify"
       id="path-effect11"
       is_visible="true"
       lpeversion="1.3"
       threshold="0.012"
       steps="1"
       smooth_angles="0"
       helper_size="0"
       simplify_individual_paths="false"
       simplify_just_coalesce="false"
       step="1" />
    <inkscape:path-effect
       effect="powerstroke"
       message=""
       id="path-effect10"
       is_visible="true"
       lpeversion="1.3"
       scale_width="1"
       interpolator_type="CentripetalCatmullRom"
       interpolator_beta="0.75"
       start_linecap_type="round"
       end_linecap_type="round"
       offset_points="76.862056,1.8862543"
       linejoin_type="spiro"
       miter_limit="4"
       not_jump="true"
       sort_points="true" />
    <inkscape:path-effect
       effect="simplify"
       id="path-effect9"
       is_visible="true"
       lpeversion="1.3"
       threshold="0.012"
       steps="1"
       smooth_angles="0"
       helper_size="0"
       simplify_individual_paths="false"
       simplify_just_coalesce="false"
       step="1" />
    <inkscape:path-effect
       effect="powerstroke"
       message=""
       id="path-effect8"
       is_visible="true"
       lpeversion="1.3"
       scale_width="1"
       interpolator_type="CentripetalCatmullRom"
       interpolator_beta="0.75"
       start_linecap_type="round"
       end_linecap_type="round"
       offset_points="23.663772,1.8862543"
       linejoin_type="spiro"
       miter_limit="4"
       not_jump="true"
       sort_points="true" />
    <inkscape:path-effect
       effect="simplify"
       id="path-effect7"
       is_visible="true"
       lpeversion="1.3"
       threshold="0.012"
       steps="1"
       smooth_angles="0"
       helper_size="0"
       simplify_individual_paths="false"
       simplify_just_coalesce="false"
       step="1" />
    <inkscape:path-effect
       effect="powerstroke"
       message=""
       id="path-effect6"
       is_visible="true"
       lpeversion="1.3"
       scale_width="1"
       interpolator_type="CentripetalCatmullRom"
       interpolator_beta="0.75"
       start_linecap_type="round"
       end_linecap_type="round"
       offset_points="40.56292,1.8862543"
       linejoin_type="spiro"
       miter_limit="4"
       not_jump="true"
       sort_points="true" />
    <inkscape:path-effect
       effect="simplify"
       id="path-effect5"
       is_visible="true"
       lpeversion="1.3"
       threshold="0.012"
       steps="1"
       smooth_angles="0"
       helper_size="0"
       simplify_individual_paths="false"
       simplify_just_coalesce="false"
       step="1" />
    <inkscape:path-effect
       effect="powerstroke"
       message=""
       id="path-effect4"
       is_visible="true"
       lpeversion="1.3"
       scale_width="1"
       interpolator_type="CentripetalCatmullRom"
       interpolator_beta="0.75"
       start_linecap_type="round"
       end_linecap_type="round"
       offset_points="86.392198,1.8862543"
       linejoin_type="spiro"
       miter_limit="4"
       not_jump="true"
       sort_points="true" />
    <inkscape:path-effect
       effect="simplify"
       id="path-effect3"
       is_visible="true"
       lpeversion="1.3"
       threshold="0.012"
       steps="1"
       smooth_angles="0"
       helper_size="0"
       simplify_individual_paths="false"
       simplify_just_coalesce="false"
       step="1" />
    <inkscape:path-effect
       effect="powerstroke"
       message=""
       id="path-effect2"
       is_visible="true"
       lpeversion="1.3"
       scale_width="1"
       interpolator_type="CentripetalCatmullRom"
       interpolator_beta="0.75"
       start_linecap_type="round"
       end_linecap_type="round"
       offset_points="19.442751,1.8862543"
       linejoin_type="spiro"
       miter_limit="4"
       not_jump="true"
       sort_points="true" />
    <inkscape:path-effect
       effect="simplify"
       id="path-effect1"
       is_visible="true"
       lpeversion="1.3"
       threshold="0.012"
       steps="1"
       smooth_angles="0"
       helper_size="0"
       simplify_individual_paths="false"
       simplify_just_coalesce="false"
       step="1" />
    <inkscape:path-effect
       effect="bspline"
       id="path-effect18"
       is_visible="true"
       lpeversion="1.3"
       weight="33.333333"
       steps="2"
       helper_size="0"
       apply_no_weight="true"
       apply_with_weight="true"
       only_selected="false"
       uniform="false" />
    <inkscape:path-effect
       effect="bspline"
       id="path-effect17"
       is_visible="true"
       lpeversion="1.3"
       weight="33.333333"
       steps="2"
       helper_size="0"
       apply_no_weight="true"
       apply_with_weight="true"
       only_selected="false"
       uniform="false" />
    <inkscape:path-effect
       effect="bspline"
       id="path-effect16"
       is_visible="true"
       lpeversion="1.3"
       weight="33.333333"
       steps="2"
       helper_size="0"
       apply_no_weight="true"
       apply_with_weight="true"
       only_selected="false"
       uniform="false" />
    <linearGradient
       id="swatch12"
       inkscape:swatch="solid">
      <stop
         style="stop-color:#000000;stop-opacity:1;"
         offset="0"
         id="stop13" />
    </linearGradient>
  </defs>
  <g
     inkscape:label="图层 1"
     inkscape:groupmode="layer"
     id="layer1">
    <path
       style="fill:#000000;stroke:#000000;stroke-width:0.264583"
       id="path1"
       d="m 2.2680437,12.33374 c 0.2011671,1.86525 0.1764901,3.745876 0.1656935,5.619145 -0.046597,1.84639 -0.024511,3.693337 -0.040851,5.53997 -0.0165,1.151855 -0.026266,2.304341 -0.093887,3.454589 0,0 3.4500198,1.757874 3.4500198,1.757874 v 0 C 5.683444,27.523048 5.670973,26.338824 5.655132,25.155052 5.638815,23.294544 5.660642,21.433725 5.614281,19.573453 5.603872,17.756825 5.57088,15.930854 5.7799747,14.123158 Z" />
    <path
       style="fill:#000000;stroke:#000000;stroke-width:0.264583"
       id="path2"
       d="m 6.2971687,13.729981 c 1.2747202,-0.08351 2.5540671,-0.06845 3.8308733,-0.06251 1.016666,0.01361 2.033531,0.01903 3.049972,0.0458 0.377267,0.0031 0.75441,0.02248 1.131665,0.02363 0.03977,0.05559 0.148758,-0.04255 0.193051,0.0041 0.0235,0.02478 0.04179,0.11849 0.01203,0.101744 -1.12163,-0.631067 -2.21179,-1.316573 -3.323528,-1.964907 -0.02538,-0.0148 0.04909,0.03632 0.06184,0.06278 0.02397,0.04973 0.03014,0.106224 0.0452,0.159336 0.204393,1.624299 0.193644,3.265332 0.201958,4.899505 0.0038,2.173528 -0.01757,4.346963 -0.0295,6.520421 -0.02869,1.263539 0.0053,2.528158 0.06107,3.790585 -0.01841,0.461815 0.09945,0.907638 0.188207,1.356887 0.0039,0.05072 0.0172,0.101558 0.01183,0.152141 -0.0033,0.03068 -0.128144,-0.0064 -0.304304,-0.0026 -0.254956,0.0054 -0.509705,0.01836 -0.764632,0.02503 -1.0113706,0.01167 -2.0226223,-0.01122 -3.0336696,-0.03365 -0.5676347,-0.0145 -1.1354107,-0.02127 -1.7030745,-0.03332 -0.2750319,-0.0013 -0.5498454,-0.01135 -0.8248869,-0.0087 -0.2624119,-5.29e-4 -0.5247576,0.0048 -0.7871902,0.0021 -0.155253,-0.0034 -0.077437,-0.0028 -0.2334493,-0.0019 0,0 3.1989167,2.324137 3.1989167,2.324137 v 0 c 0.1554062,7.93e-4 0.079347,0.0016 0.2281788,-0.0019 0.2642897,-0.0028 0.5285023,0.0026 0.7927732,0.0019 0.2667672,0.0024 0.533283,-0.0076 0.8000428,-0.0084 0.5432049,-0.01029 1.086609,-0.0118 1.629887,-0.0163 1.009013,-0.0041 2.017878,0.0034 3.026793,0.01834 0.565796,-2.7e-5 1.491216,0.101195 1.483899,-0.704763 -0.0812,-0.449093 -0.204965,-0.890217 -0.252412,-1.345322 -0.165746,-1.285853 -0.333856,-2.5752 -0.3022,-3.875511 -0.01037,-2.182127 -0.02888,-4.364247 -0.02166,-6.54643 0.0097,-1.591309 0.03285,-3.180727 0.153956,-4.767808 0.0019,-0.09161 0.009,-0.365131 0.0035,-0.368818 -5.9211299,-3.9407315 -1.97785,-2.109624 -3.710979,-2.062579 -0.355572,0.0011 -0.711023,0.02052 -1.066609,0.02363 -0.9743782,0.02768 -1.9492563,0.03189 -2.9238842,0.0458 -1.3342908,0.0063 -2.6704097,0.01637 -4.0029392,-0.06251 z" />
    <path
       style="fill:#000000;stroke:#000000;stroke-width:0.264583"
       id="path3"
       d="M 5.3121319,12.509088 C 5.6260658,11.716927 6.0125689,10.955152 6.4924264,10.2511 6.8458201,9.6463737 7.3287834,9.1506331 7.855814,8.6967973 8.2740348,8.3512486 8.7108791,7.9865998 9.2376248,7.823431 9.5571682,7.762366 9.8977081,7.7629796 10.21514,7.8291699 9.8956581,7.5205321 11.335364,8.4374864 10.958367,8.2244859 5.7862543,5.3022821 7.3546263,6.0007141 8.4536078,6.8942533 c 0.606253,0.52847 1.0831311,1.17636 1.4958758,1.861417 0.3365194,0.570212 0.6904214,1.1343256 0.9328004,1.7524677 0.05598,0.287061 0.233161,0.521795 0.341322,0.786147 0,0 3.581423,1.680535 3.581423,1.680535 v 0 C 14.719409,12.668864 14.55038,12.431121 14.420788,12.146932 14.165575,11.501501 13.835362,10.896711 13.458487,10.313446 13.049379,9.609835 12.611804,8.9297714 12.036676,8.3459077 10.620349,7.0716916 8.9327613,5.9601347 7.0849997,5.4973279 6.7035131,5.4801221 6.3131535,5.4594941 5.9643822,5.6426535 5.4593754,5.9144642 5.0284332,6.2975872 4.587455,6.6597483 4.0321409,7.1356551 3.517865,7.6564186 3.1715522,8.3087356 2.7153534,9.031926 2.3826074,9.8235056 1.9103871,10.537454 Z" />
    <path
       style="fill:#000000;stroke:#000000;stroke-width:0.196294"
       id="path4"
       d="m 16.813253,12.23504 c 1.096733,-0.06573 2.196662,-0.0572 3.294885,-0.05802 1.038051,0.0051 2.076151,0.0085 3.113865,0.03855 0.363803,0.0076 0.727373,0.02545 1.091287,0.0255 0.133645,-0.0015 0.267231,-0.002 0.400874,-5.4e-4 0,0 -2.317197,-1.745595 -2.317197,-1.745595 v 0 c -0.134125,0.0015 -0.268199,8.76e-4 -0.402327,-5.4e-4 -0.341374,3.7e-5 -0.682356,0.01741 -1.023602,0.02549 -1.003561,0.03144 -2.007595,0.03286 -3.011526,0.03855 -1.149637,-8.39e-4 -2.300548,0.0046 -3.448909,-0.05801 z" />
    <path
       style="fill:#000000;stroke:#000000;stroke-width:0.196294"
       id="path5"
       d="m 18.967687,5.6508181 c 0.03708,0.5913358 0.04409,1.1849607 0.05131,1.7774927 0.02004,0.9649658 0.02837,1.9308523 0.0069,2.8958482 -0.0055,0.700043 -0.03699,1.400296 0.01916,2.098672 0.08033,0.658145 0.201552,1.310831 0.308677,1.965044 0.0536,0.336123 0.03562,0.180253 0.05978,0.466847 0,0 2.53848,1.306448 2.53848,1.306448 v 0 c -0.03797,-0.326298 -0.0095,-0.155891 -0.09131,-0.510137 -0.131153,-0.639768 -0.206623,-1.289017 -0.299682,-1.935211 -0.09378,-0.696587 -0.07814,-1.394984 -0.08519,-2.09736 -0.0209,-0.962569 -0.01374,-1.9260091 0.0069,-2.8885368 0.0071,-0.5744355 0.01338,-1.1501524 0.05131,-1.7232819 z" />
    <path
       style="fill:#000000;stroke:#000000;stroke-width:0.264583"
       id="path12"
       d="m 23.632092,22.61777 c 0.240182,-0.441583 0.599375,-0.780892 0.992738,-1.083764 0.390151,-0.301958 0.686435,-0.692832 1.072603,-1.002053 0.297242,-0.22964 0.633747,-0.396071 1.006943,-0.442948 0.364125,-0.008 0.728159,-0.0067 1.092329,-0.0034 0.128973,0.0556 0.350656,-0.05193 0.475556,0.01619 0.0294,0.01603 0.02669,0.06261 0.04863,0.08792 0.02062,0.02379 0.10339,0.07163 0.0761,0.05593 -1.102101,-0.633669 -2.200684,-1.273437 -3.301026,-1.910155 0.175044,0.14318 0.339733,0.338599 0.439938,0.542249 0.294835,0.332296 0.573434,0.67008 0.808383,1.049267 0.205217,0.334113 0.393116,0.669016 0.553876,1.026545 0.180719,0.376415 0.331894,0.761502 0.440304,1.16443 0.115155,0.674826 0.115722,1.365016 0.102994,2.047732 0.04372,0.658279 -0.23678,1.201633 -0.582179,1.739718 -0.250872,0.286291 -0.431493,0.712049 -0.775144,0.904994 -0.413984,0.137896 -0.778145,0.397745 -1.186825,0.562337 -0.623833,0.267026 -1.262437,0.490362 -1.911239,0.692493 -0.4759,0.144484 -0.961765,0.259448 -1.459243,0.285332 -0.397302,0.11711 -0.91117,0.167809 -1.180317,0.511447 1.159915,0.692764 2.293992,1.430748 3.479746,2.078289 0.06448,0.03521 0.139617,-0.04664 0.211335,-0.06258 0.114571,-0.02548 0.230527,-0.04474 0.346696,-0.06147 0.688738,-0.09918 1.383336,-0.131443 2.077262,-0.170937 1.563567,-0.07605 3.129232,-0.05671 4.693541,-0.02249 0.741753,0.007 1.48351,0.01426 2.225272,0.02133 0,0 -3.14072,-2.282463 -3.14072,-2.282463 v 0 c -0.723183,0.0052 -1.446429,0.0096 -2.16951,0.02238 -1.52504,0.05345 -3.050186,0.105034 -4.576184,0.123021 -0.889962,0.02064 -1.782545,0.02561 -2.666615,0.140179 -1.554204,0.201427 0.117756,0.274187 2.998107,2.162712 -0.0281,0.0263 -0.121207,0.06801 -0.08429,0.07888 6.08e-4,1.78e-4 0.857771,-0.318778 0.980498,-0.263247 0.495815,-0.06616 0.967281,-0.244509 1.440722,-0.399957 0.661642,-0.218104 1.337141,-0.401918 1.970279,-0.696799 0.434911,-0.196995 0.874257,-0.395428 1.294536,-0.617194 0.316706,-0.304858 0.53686,-0.695756 0.76563,-1.067216 0.364822,-0.605895 0.77636,-1.183408 0.689715,-1.926754 -0.01673,-0.69426 0.0054,-1.388591 -0.01838,-2.082628 -0.04735,-0.435974 -0.216867,-0.844794 -0.409496,-1.236366 -0.135648,-0.384988 -0.27969,-0.757887 -0.548381,-1.072673 -0.184094,-0.394403 -0.422764,-0.786794 -0.741489,-1.080989 -0.137355,-0.117761 -0.275161,-0.452843 -0.405131,-0.61214 -3.689712,-2.191689 -2.212428,-2.085599 -4.129766,-2.050686 -0.391279,-6.08e-4 -0.793782,-0.02978 -1.176568,0.06163 -0.386693,0.136677 -0.733328,0.36333 -1.045291,0.627942 -0.378931,0.318689 -0.729131,0.667517 -1.103829,0.990746 -0.386211,0.362467 -0.75569,0.74002 -1.086874,1.154307 z" />
  </g>
</svg>
