<?xml version="1.0" encoding="UTF-8" standalone="no"?>
<svg
   viewBox="0 0 64 64"
   width="64"
   height="64"
   version="1.1"
   id="svg2"
   sodipodi:docname="TODO.svg"
   inkscape:version="1.4.3 (0d15f75, 2025-12-25)"
   xmlns:inkscape="http://www.inkscape.org/namespaces/inkscape"
   xmlns:sodipodi="http://sodipodi.sourceforge.net/DTD/sodipodi-0.dtd"
   xmlns="http://www.w3.org/2000/svg"
   xmlns:svg="http://www.w3.org/2000/svg">
  <defs
     id="defs2" />
  <sodipodi:namedview
     id="namedview2"
     pagecolor="#ffffff"
     bordercolor="#000000"
     borderopacity="0.25"
     inkscape:showpageshadow="2"
     inkscape:pageopacity="0.0"
     inkscape:pagecheckerboard="0"
     inkscape:deskcolor="#d1d1d1"
     inkscape:zoom="1.7589683"
     inkscape:cx="45.765463"
     inkscape:cy="40.36457"
     inkscape:window-width="1105"
     inkscape:window-height="575"
     inkscape:window-x="0"
     inkscape:window-y="38"
     inkscape:window-maximized="0"
     inkscape:current-layer="svg2" />
  <path
     style="fill:#000000;stroke:#000000;stroke-width:0.515358"
     id="path7"
     d="m 4.6350186,21.448137 c 1.9971223,-0.256417 4.0299119,-0.21547 6.0431844,-0.240478 2.568562,-0.01676 5.137357,-0.0011 7.704656,0.07595 0.802056,0.01634 1.603332,0.04767 2.404228,0.08895 0,0 -6.205719,-4.111029 -6.205719,-4.111029 v 0 c -0.711202,0.04342 -1.422975,0.07353 -2.135667,0.08896 -2.4906932,0.08216 -4.9832506,0.09047 -7.475351,0.07595 -2.2568204,-0.02702 -4.52365613,-0.0094 -6.7692006,-0.240477 z" />
  <path
     style="fill:#000000;stroke:#000000;stroke-width:0.515358"
     id="path8"
     d="m 8.3047755,18.026783 c 0.6221973,2.547098 0.6284968,5.185473 0.6574862,7.782682 -0.038757,2.863103 -0.099128,5.727196 -0.2471889,8.587551 -0.045908,0.763124 -0.1151925,1.524135 -0.2076864,2.283566 0,0 6.7858936,3.15261 6.7858936,3.15261 v 0 c -0.09016,-0.824057 -0.160595,-1.649358 -0.207686,-2.47654 -0.145056,-2.937092 -0.208544,-5.877553 -0.247189,-8.817231 0.02692,-2.386622 -0.0234,-4.849673 0.657487,-7.171768 z" />
  <path
     style="fill:#000000;stroke:#000000;stroke-width:0.515358"
     id="path9"
     d="m 21.204927,17.786588 c 0.666533,2.901586 0.747981,5.874747 0.820159,8.82722 0.03255,2.282171 -0.114036,4.560186 -0.370526,6.828884 0,0 6.265548,2.910868 6.265548,2.910868 v 0 c -0.243961,-2.384548 -0.402042,-4.776659 -0.370526,-7.173167 0.06745,-2.696241 0.09641,-5.433072 0.820159,-8.065154 z" />
  <path
     style="fill:#000000;stroke:#000000;stroke-width:0.515358"
     id="path10"
     d="m 29.721069,21.192099 c 1.180554,-0.152529 2.399526,-0.24877 3.592131,-0.162415 0.360037,0.02607 0.715637,0.08952 1.073455,0.134276 0.873685,0.207759 1.135416,0.22376 1.935821,0.590343 0.270867,0.124057 1.043766,0.562299 0.778883,0.427928 -14.493113,-7.352115 -6.498523,-3.997492 -5.334734,-2.547567 0.121141,0.150925 0.19241,0.330359 0.288616,0.495538 0.04252,0.203629 0.120564,0.403699 0.127547,0.610888 0.04349,1.290602 -0.948535,2.556141 -1.805316,3.493474 -1.154148,0.973381 -2.524652,1.848219 -4.060902,2.223255 -0.131155,0.01824 -0.262239,0.07253 -0.393466,0.05472 -0.08983,-0.01219 -0.305746,-0.178365 -0.22597,-0.138791 2.263118,1.12264 4.543007,2.218407 6.777024,3.388503 0.05156,0.02701 -0.09783,0.06672 -0.155601,0.07955 -0.06064,0.01347 0.05015,-0.107925 0.09592,-0.146604 1.200843,-0.540492 2.549322,-0.23864 3.787123,0.01438 0.840831,0.219351 1.666332,0.478611 2.436937,0.859755 0.205209,0.101496 0.803028,0.434493 0.600115,0.329229 -6.032996,-3.129698 -7.96536,-4.379584 -5.672468,-2.915096 0.655854,0.422007 0.975104,0.965001 1.153808,1.658138 0.144616,0.669941 0.07745,1.290276 -0.212296,1.913722 -0.637942,0.67823 -1.753795,0.688782 -2.655459,0.793095 -2.088424,0.218289 -4.181166,0.39624 -6.269667,0.615848 -1.241941,0.138131 -2.491308,0.192803 -3.741556,0.190601 -0.102817,-0.003 -0.205633,-0.0059 -0.308449,-0.0088 0,0 6.436355,4.22296 6.436355,4.22296 v 0 c 0.08748,-0.01088 0.174957,-0.02175 0.262436,-0.03262 1.139107,-0.130668 2.269596,-0.317746 3.40426,-0.476116 2.076861,-0.30395 4.167016,-0.510056 6.270307,-0.580359 1.281319,-0.07815 2.717253,-0.115701 3.470443,-1.216762 0.32497,-0.726034 0.495675,-1.486914 0.382278,-2.272046 -0.07272,-0.827484 -0.289638,-1.602814 -0.999927,-2.172814 -2.412789,-1.989834 -0.452739,-0.420398 -7.460996,-4.074822 -0.909835,-0.47443 -1.984309,-0.654999 -2.981208,-0.90154 -1.54036,-0.265412 -3.246118,-0.533582 -4.639407,0.297602 -0.277429,0.267712 -0.418809,0.349449 -0.560479,0.708909 -1.079362,2.738668 5.086333,5.218116 7.638336,3.727479 1.409401,-0.761869 2.756527,-1.633799 3.934088,-2.676645 0.227822,-0.237936 0.474516,-0.461883 0.683466,-0.713809 0.664811,-0.801547 1.39883,-2.165346 1.558914,-3.163936 0.04093,-0.255297 0.01302,-0.515884 0.01953,-0.773826 -0.06995,-0.227904 -0.103771,-0.467715 -0.20984,-0.683712 -0.107237,-0.218376 -0.20339,-0.474527 -0.423146,-0.605292 -2.284802,-1.359556 -4.667766,-2.577276 -7.026451,-3.827543 -0.830072,-0.439995 -1.814647,-0.582373 -2.742684,-0.727394 -1.776072,-0.147382 -3.561022,-0.135214 -5.333286,-0.32132 z" />
  <path
     style="fill:#000000;stroke:#000000;stroke-width:0.515358"
     id="path11"
     d="m 41.469079,17.826163 c 0.551342,2.493464 0.580376,5.055281 0.590869,7.589422 -0.04104,2.229996 -0.123162,4.464725 -0.391961,6.682894 -0.07114,0.624414 -0.03292,0.334913 -0.110531,0.868944 0,0 6.961759,3.234314 6.961759,3.234314 v 0 c -0.07701,-0.601456 -0.03904,-0.277682 -0.110531,-0.971645 -0.254995,-2.341195 -0.352959,-4.695454 -0.391961,-7.047091 0.0098,-2.347369 -0.0081,-4.743851 0.590868,-7.040407 z" />
  <path
     style="fill:#000000;stroke:#000000;stroke-width:0.515358"
     id="path12"
     d="m 48.769498,22.303266 c 1.457394,-0.394308 3.026556,-0.376725 4.536059,-0.407233 1.369241,-0.01873 2.768742,-0.10047 4.046619,0.434697 0.242778,0.101675 0.468258,0.234673 0.702389,0.352009 -10.373631,-5.433589 -6.023124,-3.495399 -4.137677,-1.754658 0.65999,0.609336 1.200132,1.287927 1.731072,1.990281 1.044312,1.395133 1.531007,2.986908 1.818764,4.633284 0.199687,1.436284 0.216521,2.619954 -0.620893,3.881202 -1.220485,1.123274 -2.892248,1.727868 -4.440351,2.382484 -1.773475,0.721038 -3.578636,1.378875 -5.480094,1.754439 -0.609488,0.120827 -1.230726,0.132467 -1.850028,0.09501 -0.325484,0.02536 -0.521537,-0.04717 -0.779575,-0.218825 0,0 6.261237,4.465164 6.261237,4.465164 v 0 c 0.331033,0.04184 0.659641,0.04178 0.993582,0.02556 0.604134,-0.06024 1.189241,-0.186982 1.747192,-0.415221 1.686922,-0.686096 3.334052,-1.44935 5.036012,-2.105154 0.787443,-0.286748 1.580358,-0.561046 2.365161,-0.853745 0.810796,-0.302394 1.726204,-0.608952 2.371794,-1.176775 0.157898,-0.13888 0.27325,-0.313029 0.409878,-0.469543 0.107564,-0.185771 0.233667,-0.363559 0.322692,-0.557314 0.559102,-1.216854 0.451765,-2.566928 0.278129,-3.842529 -0.244478,-1.708662 -0.567392,-3.422045 -1.639472,-4.884453 -2.759344,-3.970032 -4.942299,-4.543943 -10.242498,-7.200582 -0.703973,-0.261245 -0.852582,-0.359596 -1.589638,-0.472223 -1.08603,-0.165952 -2.194678,-0.0032 -3.285294,-5.86e-4 -1.675721,0.05699 -3.362824,0.145481 -5.036693,0.0509 z" />
</svg>
