<?xml version="1.0" encoding="UTF-8" standalone="no"?>
<!-- Created with Inkscape (http://www.inkscape.org/) -->

<svg
   width="128"
   height="128"
   viewBox="0 0 33.866666 33.866666"
   version="1.1"
   id="svg1"
   sodipodi:docname="tower1010.svg"
   inkscape:version="1.4.3 (0d15f75, 2025-12-25)"
   xmlns:inkscape="http://www.inkscape.org/namespaces/inkscape"
   xmlns:sodipodi="http://sodipodi.sourceforge.net/DTD/sodipodi-0.dtd"
   xmlns="http://www.w3.org/2000/svg"
   xmlns:svg="http://www.w3.org/2000/svg">
  <sodipodi:namedview
     id="namedview1"
     pagecolor="#ffffff"
     bordercolor="#000000"
     borderopacity="0.25"
     inkscape:showpageshadow="2"
     inkscape:pageopacity="0.0"
     inkscape:pagecheckerboard="0"
     inkscape:deskcolor="#d1d1d1"
     inkscape:document-units="px"
     inkscape:zoom="1.0520188"
     inkscape:cx="105.9867"
     inkscape:cy="26.615494"
     inkscape:window-width="1233"
     inkscape:window-height="671"
     inkscape:window-x="0"
     inkscape:window-y="38"
     inkscape:window-maximized="0"
     inkscape:current-layer="layer1" />
  <defs
     id="defs1">
    <inkscape:path-effect
       effect="bspline"
       id="path-effect18"
       is_visible="true"
       lpeversion="1.3"
       weight="33.333333"
       steps="2"
       helper_size="0"
       apply_no_weight="true"
       apply_with_weight="true"
       only_selected="false"
       uniform="false" />
    <inkscape:path-effect
       effect="bspline"
       id="path-effect17"
       is_visible="true"
       lpeversion="1.3"
       weight="33.333333"
       steps="2"
       helper_size="0"
       apply_no_weight="true"
       apply_with_weight="true"
       only_selected="false"
       uniform="false" />
    <inkscape:path-effect
       effect="bspline"
       id="path-effect16"
       is_visible="true"
       lpeversion="1.3"
       weight="33.333333"
       steps="2"
       helper_size="0"
       apply_no_weight="true"
       apply_with_weight="true"
       only_selected="false"
       uniform="false" />
    <linearGradient
       id="swatch12"
       inkscape:swatch="solid">
      <stop
         style="stop-color:#000000;stop-opacity:1;"
         offset="0"
         id="stop13" />
    </linearGradient>
    <inkscape:path-effect
       effect="bspline"
       id="path-effect18-3"
       is_visible="true"
       lpeversion="1.3"
       weight="33.333333"
       steps="2"
       helper_size="0"
       apply_no_weight="true"
       apply_with_weight="true"
       only_selected="false"
       uniform="false" />
  </defs>
  <g
     inkscape:label="图层 1"
     inkscape:groupmode="layer"
     id="layer1">
    <path
       style="fill:none;fill-opacity:1;fill-rule:nonzero;stroke:#000000;stroke-width:1.765;stroke-dasharray:none;stroke-opacity:1"
       d="M 7.0839327,8.3833524 C 6.7905153,10.060023 6.7905153,13.832531 6.7905153,17.521206 c 0,3.688675 0,7.293517 0.041917,9.389354 0.041917,2.095837 0.1257503,2.682673 0.2095829,2.934175 0.083833,0.251502 0.1676683,0.167666 0.2934185,0.12575 0.1257502,-0.04192 0.2934172,-0.04192 0.6287515,-0.125751 C 8.2995192,29.7609 8.80252,29.593233 10.101939,29.5094 c 1.29942,-0.08383 3.395258,-0.08383 5.323429,-0.167668 1.928171,-0.08383 3.688675,-0.251501 5.868346,-0.461084 2.179672,-0.209584 4.778511,-0.461085 6.371348,-0.586835 1.592838,-0.12575 2.179673,-0.12575 2.431173,-0.503001 0.2515,-0.377251 0.167666,-1.131753 0.12575,-1.760504 -0.04192,-0.628751 -0.04192,-1.131752 -0.293418,-3.185674 -0.2515,-2.053921 -0.754501,-5.658762 -1.047918,-8.718685 -0.293417,-3.059924 -0.377251,-5.5749298 -0.419167,-7.0839332 -0.04192,-1.5090034 -0.04192,-2.0120044 -0.125751,-2.221588 -0.08383,-0.2095835 -0.251502,-0.1257501 -1.006003,0 -0.754502,0.1257501 -2.095838,0.2934171 -3.059924,0.3772506 -0.964085,0.083833 -1.55092,0.083833 -2.556922,0.2095838 C 20.70688,5.5330125 19.28171,5.784513 18.024207,6.0360136 16.766704,6.2875142 15.676869,6.5390147 14.922367,6.7485986 14.167865,6.9581825 13.748698,7.1258493 12.742696,7.2515997 11.736693,7.37735 10.143856,7.4611835 9.0540203,7.2935165 7.9641846,7.1258494 7.37735,6.7066818 7.0839327,8.3833524 Z"
       id="path16"
       inkscape:path-effect="#path-effect17"
       inkscape:original-d="m 6.7905153,6.2875141 c 0,3.7725089 0,7.5450169 0,11.3175259 0,3.604841 0,7.209683 0,10.814525 0.083833,0.586832 0.167667,1.173668 0.2515005,1.760503 0.083833,-0.08383 0.1676672,-0.167667 0.2515007,-0.2515 0.167667,0 0.335334,0 0.503001,0 0.5030012,-0.167669 1.0060024,-0.335335 1.5090034,-0.503002 2.0958381,0 4.1916761,0 6.2875141,0 1.760504,-0.167666 3.521008,-0.335333 5.281512,-0.503002 2.598839,-0.251499 5.197678,-0.502999 7.796518,-0.754501 0.586835,0 1.17367,0 1.760503,0 -0.08383,-0.754502 -0.167667,-1.509004 -0.2515,-2.263505 0,-0.503001 0,-1.006002 0,-1.509003 -0.503002,-3.604842 -1.006001,-7.209683 -1.509003,-10.814524 -0.08383,-2.515006 -0.167667,-5.0300118 -0.2515,-7.5450174 0,-0.5030012 0,-1.0060022 0,-1.5090034 -0.167669,0.083833 -0.335336,0.167667 -0.503002,0.2515005 -1.341337,0.1676672 -2.682673,0.3353342 -4.024009,0.5030012 -0.586835,0 -1.17367,0 -1.760504,0 -1.42517,0.2515005 -2.85034,0.5030012 -4.27551,0.7545017 -1.089836,0.2515005 -2.179671,0.5030012 -3.269507,0.7545017 -0.419168,0.167667 -0.838335,0.335334 -1.257503,0.5030012 C 11.736693,7.37735 10.143856,7.4611835 8.5510192,7.545017 7.9641847,7.1258493 7.37735,6.7066818 6.7905153,6.2875141 Z" />
    <path
       style="fill:none;fill-opacity:1;fill-rule:nonzero;stroke:#000000;stroke-width:1.765;stroke-dasharray:none;stroke-opacity:1"
       d="m 14.587033,15.341534 c 0,-0.335334 0,-0.670668 0,-0.670668 0,0 0,0.335334 0,-0.37725 0,-0.712585 0,-2.473089 0.04192,-4.7365942 0.04192,-2.2635052 0.12575,-5.0300116 0.796418,-6.539015 0.670668,-1.5090034 1.928171,-1.7605039 3.059924,-1.8862542 1.131752,-0.1257503 2.137754,-0.1257503 2.598839,0.083833 0.461084,0.2095835 0.377251,0.6287517 0.335334,1.2994199 -0.04192,0.6706682 -0.04192,1.5928369 -0.04192,3.0180068 0,1.4251699 0,3.353341 0.04192,4.4850926 0.04192,1.131752 0.12575,1.467087 -0.12575,1.634754 -0.251501,0.167668 -0.838336,0.167668 -1.928172,0.419168 -1.089835,0.251501 -2.682672,0.754502 -3.47909,0.922169 -0.796419,0.167667 -0.796419,0 -0.796419,-0.167667"
       id="path17"
       inkscape:original-d="m 14.587033,15.341534 c 0,-0.335334 0,-0.670668 0,-1.006002 0,0.335334 0,0.670668 0,1.006002 0,-1.760503 0,-3.521007 0,-5.281511 0.08383,-2.7665065 0.167667,-5.5330128 0.2515,-8.299519 1.257503,-0.2515006 2.515006,-0.5030012 3.772509,-0.7545017 1.006002,0 2.012004,0 3.018007,0 -0.08383,0.4191676 -0.167667,0.8383352 -0.251501,1.2575028 0,0.9221687 0,1.8443374 0,2.7665063 0,1.9281709 0,3.856342 0,5.7845126 0.08383,0.335334 0.167667,0.670668 0.251501,1.006003 -0.586835,0 -1.17367,0 -1.760504,0 -1.592837,0.503001 -3.185674,1.006002 -4.778511,1.509003 0,-0.167667 0,-0.335334 0,-0.503001"
       inkscape:path-effect="#path-effect18" />
    <path
       style="fill:none;fill-opacity:1;fill-rule:nonzero;stroke:#000000;stroke-width:1.765;stroke-dasharray:none;stroke-opacity:1"
       d="m 14.587033,15.341534 c 0,-0.335334 0,-0.670668 0,-0.670668 0,0 0,0.335334 0,-0.37725 0,-0.712585 0,-2.473089 0.04192,-4.7365942 0.04192,-2.2635052 0.12575,-5.0300116 0.796418,-6.539015 0.670668,-1.5090034 1.928171,-1.7605039 3.059924,-1.8862542 1.131752,-0.1257503 2.137754,-0.1257503 2.598839,0.083833 0.461084,0.2095835 0.377251,0.6287517 0.335334,1.2994199 -0.04192,0.6706682 -0.04192,1.5928369 -0.04192,3.0180068 0,1.4251699 0,3.353341 0.04192,4.4850926 0.04192,1.131752 0.12575,1.467087 -0.12575,1.634754 -0.251501,0.167668 -0.838336,0.167668 -1.928172,0.419168 -1.089835,0.251501 -2.682672,0.754502 -3.47909,0.922169 -0.796419,0.167667 -0.796419,0 -0.796419,-0.167667"
       id="path17-2"
       inkscape:original-d="m 14.587033,15.341534 c 0,-0.335334 0,-0.670668 0,-1.006002 0,0.335334 0,0.670668 0,1.006002 0,-1.760503 0,-3.521007 0,-5.281511 0.08383,-2.7665065 0.167667,-5.5330128 0.2515,-8.299519 1.257503,-0.2515006 2.515006,-0.5030012 3.772509,-0.7545017 1.006002,0 2.012004,0 3.018007,0 -0.08383,0.4191676 -0.167667,0.8383352 -0.251501,1.2575028 0,0.9221687 0,1.8443374 0,2.7665063 0,1.9281709 0,3.856342 0,5.7845126 0.08383,0.335334 0.167667,0.670668 0.251501,1.006003 -0.586835,0 -1.17367,0 -1.760504,0 -1.592837,0.503001 -3.185674,1.006002 -4.778511,1.509003 0,-0.167667 0,-0.335334 0,-0.503001"
       inkscape:path-effect="#path-effect18-3"
       transform="rotate(180,18.326706,17.104188)" />
  </g>
</svg>
